<svg xmlns="http://www.w3.org/2000/svg" viewBox="0 0 200 200"><defs><style>.cls-1{isolation:isolate;}.cls-2{fill:#d60051;}.cls-3,.cls-4{fill:#f0d907;}.cls-3{mix-blend-mode:multiply;}.cls-5{fill:#fff;}.cls-6{fill:#e8e8e8;}.cls-7{fill:#820098;}.cls-8{fill:#faffb2;}.cls-9{fill:#361308;}</style></defs><g class="cls-1"><g id="Layer_1" data-name="Layer 1"><path class="cls-2" d="M123.2,108.85c-1.79-.69-4.71-3.08-4.71-5.3h0a18.1,18.1,0,0,0,7.1-17.45C124.08,76.76,117.51,69,108,67.55,97.6,66,85.29,69.58,78.43,77.79c-6.66,8-9.79,17.8-8.08,27.61s8,19.3,18,23.13A52.42,52.42,0,0,0,118,130.27c10.65-2.64,21.51-9.72,26.55-19.68a52.23,52.23,0,0,0,2.77-7C140.66,109,131.73,112.14,123.2,108.85Z"/><path class="cls-3" d="M101,100.86a9.81,9.81,0,0,1-9.8-9.8,9,9,0,0,1,.15-1.55A9.79,9.79,0,1,1,101,100.86Z"/><path class="cls-4" d="M101,100.86a9.81,9.81,0,0,1-9.8-9.8,9,9,0,0,1,.15-1.55A9.79,9.79,0,1,1,101,100.86Z"/><path class="cls-5" d="M92.86,91.06A8.1,8.1,0,1,0,101,83,8.1,8.1,0,0,0,92.86,91.06Z"/><path class="cls-6" d="M93.16,89A8.06,8.06,0,0,0,109,90.57c0,.17,0,.32,0,.49a8.1,8.1,0,0,1-16.2,0A8.28,8.28,0,0,1,93.16,89Z"/><path d="M97.94,92.56a4,4,0,1,0-.34-5.7A4,4,0,0,0,97.94,92.56Z"/><path class="cls-5" d="M99.82,88.84a1.62,1.62,0,1,0-.13-2.28A1.61,1.61,0,0,0,99.82,88.84Z"/><path class="cls-7" d="M83.38,90.45s0,.21-.12.6a16.79,16.79,0,0,0-.32,1.65c0,.35-.13.72-.15,1.13s-.05.87-.09,1.35,0,1,0,1.51.09,1.08.2,1.64a16.67,16.67,0,0,0,.38,1.75,17.57,17.57,0,0,0,.6,1.82,18.07,18.07,0,0,0,1.94,3.67,19.44,19.44,0,0,0,3,3.37,24,24,0,0,0,3.77,2.75,24.43,24.43,0,0,0,4.3,1.89,22.26,22.26,0,0,0,4.47.89,20.28,20.28,0,0,0,4.28-.07c.34-.05.68-.08,1-.14l1-.21a15.94,15.94,0,0,0,1.81-.49l.43-.13.4-.16L111,113c.52-.19,1-.45,1.43-.66A25.58,25.58,0,0,0,114.7,111c.6-.39,1-.74,1.37-1l.48-.34.35.38-.45.42c-.29.26-.7.68-1.26,1.16l-1,.76a11.92,11.92,0,0,1-1.2.82,11.49,11.49,0,0,1-1.43.85l-.81.41-.42.22-.44.18a18.33,18.33,0,0,1-1.9.7l-1,.3c-.35.09-.72.15-1.08.23a19.81,19.81,0,0,1-4.69.4,23.59,23.59,0,0,1-5-.73,24.69,24.69,0,0,1-4.87-1.93,24.39,24.39,0,0,1-4.32-3,22.22,22.22,0,0,1-3.41-3.81,18.44,18.44,0,0,1-2.26-4.26,15.76,15.76,0,0,1-.59-2.18,10.21,10.21,0,0,1-.18-1.06l-.09-1a6.57,6.57,0,0,1,0-1c0-.32,0-.64,0-.94.07-.61.17-1.18.26-1.72s.29-1,.42-1.45.35-.84.5-1.2a5.57,5.57,0,0,1,.46-.89c.15-.25.28-.46.39-.62l.34-.51Z"/><path class="cls-8" d="M84.36,108.08c-.25-.32-.5-.64-.73-1a14.56,14.56,0,0,1-.94-1.47,4.84,4.84,0,0,0-.46.33,2.36,2.36,0,0,0-.62.72,2.88,2.88,0,0,0-.31.79,4.19,4.19,0,0,0-.13.93,2,2,0,0,0,.58.21,3.24,3.24,0,0,0,1.58-.13A8.18,8.18,0,0,0,84.36,108.08Z"/><path class="cls-8" d="M101.23,116.56a19.11,19.11,0,0,1-2.79-.28,12,12,0,0,0-.07,1.83,2.79,2.79,0,0,0,.66,1.64,4.65,4.65,0,0,0,.45.49,1.24,1.24,0,0,0,.21.16,2.81,2.81,0,0,0,1.34-1.68,9.44,9.44,0,0,0,.46-2.16Z"/><path class="cls-8" d="M107,115.93c-.35.09-.72.15-1.08.23s-.76.15-1.14.21a12.3,12.3,0,0,0,.54,1.95,2.78,2.78,0,0,0,1.15,1.34,4.55,4.55,0,0,0,.84.42,2.9,2.9,0,0,0,.74-2,10.13,10.13,0,0,0-.29-2.33Z"/><path class="cls-8" d="M117.27,113.07a10.25,10.25,0,0,0-1.34-2c-.21.2-.46.43-.74.67l-1,.76c-.21.17-.45.33-.69.49a12,12,0,0,0,1.44,1.57,2.87,2.87,0,0,0,1.64.7,3.13,3.13,0,0,0,.9,0A2.76,2.76,0,0,0,117.27,113.07Z"/><path class="cls-8" d="M113.45,113l-.43.27a11.49,11.49,0,0,1-1.43.85l-.8.41a13,13,0,0,0,1.19,1.76,2.6,2.6,0,0,0,.72.61,3.35,3.35,0,0,0,.79.3,4.34,4.34,0,0,0,.91.12,1.84,1.84,0,0,0,.2-.58,3,3,0,0,0-.13-1.56A9.89,9.89,0,0,0,113.45,113Z"/><path class="cls-8" d="M80.86,94.73c.12-.44.25-.87.36-1.25s.35-.84.5-1.2l0-.09a3,3,0,0,0-1.48.33,4.38,4.38,0,0,0-.58.35l-.21.18A2.76,2.76,0,0,0,80.86,94.73Z"/><path class="cls-8" d="M96.23,115.83c-.31-.08-.61-.18-.91-.27a10.77,10.77,0,0,0-.31,1.65,2.85,2.85,0,0,0,.4,1.71,3.7,3.7,0,0,0,.37.55,1.52,1.52,0,0,0,.18.2,2.85,2.85,0,0,0,1.58-1.46,9.37,9.37,0,0,0,.76-1.95C97.61,116.14,96.92,116,96.23,115.83Z"/><path class="cls-8" d="M91.36,113.9c-.64-.35-1.27-.73-1.88-1.14a12,12,0,0,0-.6,1.19,2.84,2.84,0,0,0-.12,1.76,4.94,4.94,0,0,0,.19.63,1,1,0,0,0,.12.24,2.81,2.81,0,0,0,1.94-.93,9.94,9.94,0,0,0,1.12-1.37Z"/><path class="cls-8" d="M80.78,100.67a10.21,10.21,0,0,1-.18-1.06c0-.16,0-.31,0-.47a2.86,2.86,0,0,0-1.42,1,3.48,3.48,0,0,0-.46.83,2.59,2.59,0,0,0,1.94.94l.46,0A8.22,8.22,0,0,1,80.78,100.67Z"/><path class="cls-8" d="M80.35,98.31l.15,0c0-.25,0-.51,0-.76s0-.64,0-.94.1-.71.15-1a2.81,2.81,0,0,0-1.39.65,2.75,2.75,0,0,0-.65.7A2.7,2.7,0,0,0,80.35,98.31Z"/><path class="cls-8" d="M84.6,108.37c-.2.2-.41.41-.61.64a2.7,2.7,0,0,0-.65,1.63,4.28,4.28,0,0,0,0,.94,1.75,1.75,0,0,0,.61.09,3.1,3.1,0,0,0,1.53-.39,8.76,8.76,0,0,0,1.15-.72A21.28,21.28,0,0,1,84.6,108.37Z"/><path class="cls-8" d="M89.28,112.63A25,25,0,0,1,87,110.92l-.16-.15a9.15,9.15,0,0,0-.64.91,2.85,2.85,0,0,0-.38,1.71,4.22,4.22,0,0,0,.17.92,2.87,2.87,0,0,0,2.07-.63A10.42,10.42,0,0,0,89.28,112.63Z"/><path class="cls-9" d="M71.28,94a23.66,23.66,0,0,0-4.82-3.48c-1-.58-1.88-1.19-2.82-1.8s-2.19-1-2.67-1.8a.09.09,0,0,0-.15,0c-.65,1,1,1.89,1.61,2.37,2.53,2,5.43,3.7,7.79,5.89C71,95.84,72,94.71,71.28,94Z"/><path class="cls-9" d="M116.78,145.18c-1.26-1.26-3-1.91-4.21-3.15-1.07-1.06-2.18-2.1-3.31-3.08a2.08,2.08,0,0,0-2.24-.54,2.79,2.79,0,0,0-.69.55c-1.53.59-7.31,1.58-10.51-2a5.91,5.91,0,0,1-.69-.86,24,24,0,0,1-1.93-3.94c-.94-2.34-1.74-4.66-2.78-7-.1-.23-.43-.08-.38.14.24,1.24.52,2.7.89,4.2l-1.22-2.27a.17.17,0,0,0-.32.11c.1.52.22,1.09.36,1.67a36.82,36.82,0,0,1-2.52-5.83c0-.06-.12,0-.13,0-.33,4,2.81,8.76,5,11.92,5.09,7.28,11,8.39,13.67,7.53a22.29,22.29,0,0,0,2.83,3.81,30.42,30.42,0,0,0,4.77,3.55.9.9,0,0,0,1.28-1.24c-.28-.39-.55-.82-.83-1.25a.76.76,0,0,0,.59-.83,1.8,1.8,0,0,0-.51-1.08l.11,0,1.4,1C116.36,147.41,117.61,146,116.78,145.18Z"/><path class="cls-9" d="M110.85,132.35s0,.05,0,.05S110.88,132.35,110.85,132.35Z"/><path class="cls-9" d="M131.94,140.26a47,47,0,0,1-4.72-2.94c-.86-.65-1.63-1.42-2.51-2l0-.06a2.62,2.62,0,0,0-1.21-1.14,1.92,1.92,0,0,0-1-.13,2.13,2.13,0,0,0-.76.43,1.18,1.18,0,0,0-.22.17l-.06.07-.06.05a.59.59,0,0,0-.17.24,6.29,6.29,0,0,1-2.65.78,14.78,14.78,0,0,1-3.63-2.11,23.12,23.12,0,0,1-4.34-5.53.2.2,0,0,0-.38.14,8,8,0,0,0,.84,2.25l-.2-.08a.15.15,0,0,0-.14.05,2.38,2.38,0,0,1-.24-.57c0-.06-.11-.07-.12,0a2.61,2.61,0,0,0,0,.8c-1.68-1.66-3.06-3.62-4.58-5.41-.19-.22-.58.08-.41.31.78,1.07,1.3,2.32,2.09,3.41.37.5.74,1,1.13,1.47a17.58,17.58,0,0,1-1.79-1.94c-.2-.24-.5.06-.4.3,1,2.4,8.37,8.27,9.43,8.67,1.71,1.24,5,.54,6.15-.19.57,1.69,1.49,2.67,2.5,4.31a.7.7,0,0,0,1.32-.25l.41.45a2.13,2.13,0,0,0,.47.37,17.38,17.38,0,0,0,1.38,1.23.75.75,0,0,0,1.23-.81,2.73,2.73,0,0,0-1-1.17l-.14-.11a5.66,5.66,0,0,0,2.46,1h.15a1.5,1.5,0,0,0,.39-.08l.07,0C132.33,142.69,133,140.91,131.94,140.26Z"/><path class="cls-9" d="M89.19,74.06c-1.14-.93-1.06-2.61-1.49-3.88a37.3,37.3,0,0,0-1.5-3.79,17.46,17.46,0,0,0-3.93-5.14c-3-2.83-7.84-6.19-12.09-4.26a.44.44,0,0,0,.2.84,14.32,14.32,0,0,1,7.23,1.63,21.19,21.19,0,0,1,5.83,5,21.44,21.44,0,0,1,3.24,6.24c.58,1.53.76,2.9,2.16,3.84C89.11,74.69,89.44,74.26,89.19,74.06Z"/><path class="cls-9" d="M93.53,70.73c-2.62-2.54-2.82-6.22-3.71-9.59a19,19,0,0,1,.71-11.34.27.27,0,0,0-.34-.33c-2.84,1-2.46,6.11-2.45,8.45,0,2.58,1.32,5.3,1.93,7.78a9.94,9.94,0,0,0,3.46,5.44C93.41,71.38,93.8,71,93.53,70.73Z"/><path class="cls-9" d="M105.8,51.85c-3.51.71-6.24,3.82-7.84,6.85-2.11,4-2.27,8.64-2,13a.19.19,0,0,0,.38,0,39.69,39.69,0,0,1,2.23-11,13.77,13.77,0,0,1,3.16-4.83c1.28-1.32,3-2,4.39-3.21C106.4,52.38,106.28,51.75,105.8,51.85Z"/><path class="cls-9" d="M110.41,55.44c-.14-1.72-.88-2.19-2.45-2.54-.37-.09-.59.36-.41.65.75,1.2,1.32,1.8,1.34,3.38a42.55,42.55,0,0,1-.57,7c-.54,3.52-2.43,6.74-2.87,10.23a.4.4,0,0,0,.79.14c.43-1.89,1.67-3.84,2.32-5.73a33,33,0,0,0,1.64-7A31,31,0,0,0,110.41,55.44Z"/><path class="cls-9" d="M124.83,54.83c-3.38-1.15-7.58,2.57-9.32,5.15-2.67,4-3.42,8.81-3.52,13.51,0,.32.47.32.49,0A28.14,28.14,0,0,1,116,62.06a14.73,14.73,0,0,1,3.92-4.4c1.53-1.15,3.3-1.53,5-2.32C125.14,55.23,125,54.9,124.83,54.83Z"/><path class="cls-9" d="M137,62.88c-3.42-2.07-9.4-.2-12.84,1.18a21.17,21.17,0,0,0-5.17,3.23,19.41,19.41,0,0,0-3,3.17c-.79,1-1.16,2.18-2.05,3.11-.18.2.06.57.29.39a24,24,0,0,0,3.14-3.39,23.3,23.3,0,0,1,6-4.45c4-2.14,9-2.74,13.43-2.41A.44.44,0,0,0,137,62.88Z"/><path class="cls-9" d="M138.69,73.24c-3.41-2.32-7.78-1.93-11.67-1.3-2,.32-7,.76-7.56,3.28a.2.2,0,0,0,.35.17c1.56-1.9,6.17-2,8.4-2.32a28.9,28.9,0,0,1,10.27.7A.29.29,0,0,0,138.69,73.24Z"/><path class="cls-9" d="M85.07,79.46c-1.23-1.37-2-3.29-3.18-4.75a19.81,19.81,0,0,0-11.64-6.09c-1.24-.24-2.88-.69-3.63.61a.43.43,0,0,0,.32.6,21.93,21.93,0,0,1,9.16,2.35c3.65,1.9,5.67,5,8.62,7.61A.24.24,0,0,0,85.07,79.46Z"/><path class="cls-9" d="M79.72,65.92c-1.21-1.23-5.72-5-7.13-2.29a.34.34,0,0,0,.31.49c2.95-.5,5.78,3,7.55,4.9a52.2,52.2,0,0,1,5.75,7.67.26.26,0,0,0,.48-.2C86,72,82.77,69,79.72,65.92Z"/><path class="cls-9" d="M104.35,59.18a.3.3,0,0,0-.55-.14c-2.42,3.23-2.56,8.24-1.48,11.95a.22.22,0,0,0,.42-.1,16,16,0,0,1,.57-7.23C103.73,62.18,104.52,60.74,104.35,59.18Z"/><path class="cls-9" d="M124.23,58.34c-1.55.25-2.48,1.29-3.57,2.38-1.32,1.33-2.59,2.57-3.86,4-1.78,2-3.9,5.62-3.27,8.37a.25.25,0,0,0,.48,0,29.28,29.28,0,0,1,4.44-8.14c1.65-2.38,4.56-3.65,6.09-6.08A.33.33,0,0,0,124.23,58.34Z"/><path class="cls-9" d="M135.72,76.05c-2.41-1.88-6.57-.81-9.34-.39-2.32.34-6.43,1.06-7.87,3.16-.28.42.22,1,.65.67,1.94-1.61,5.12-2.22,7.55-2.54a41.78,41.78,0,0,1,8.8-.3A.35.35,0,0,0,135.72,76.05Z"/><path class="cls-9" d="M135.58,84.23c-3.26-5.6-11.38-3.9-16.23-2.23a.19.19,0,0,0-.13.27.55.55,0,0,0,.15.19,0,0,0,0,0,0,0s2.55.08,2,0a18.3,18.3,0,0,0,3.5-.43,12.4,12.4,0,0,1,6.25.59c1.39.58,2.57,1.55,3.92,2.23C135.46,85.07,135.78,84.58,135.58,84.23Z"/><path class="cls-9" d="M82,84.29C78.63,82.2,69.57,74,66,79.72c-.2.32.2.58.47.44,5.16-2.57,10.82,2.12,15.29,4.51C82,84.81,82.2,84.44,82,84.29Z"/><path class="cls-9" d="M80.68,80.43c-.65-.42-1-1.36-1.48-2a17.28,17.28,0,0,0-1.84-1.79c-.76-.64-1.56-1.2-2.28-1.87a1.82,1.82,0,0,0-1.43-.6c-.2,0-.39.26-.25.45a26.81,26.81,0,0,0,3.88,3.57c1.06,1,1.83,2.18,3.21,2.66C80.77,81,80.92,80.58,80.68,80.43Z"/><path class="cls-9" d="M88.18,88.32c-.53,0-.45.82.08.82S88.71,88.32,88.18,88.32Z"/><path class="cls-9" d="M88.5,91.55a.58.58,0,1,0-.09,1.16.58.58,0,0,0,.62-.54A.57.57,0,0,0,88.5,91.55Z"/><path class="cls-9" d="M87.78,94.32a.64.64,0,0,0-.66.61V95a.64.64,0,0,0,.6.66.63.63,0,0,0,.66-.6V95A.65.65,0,0,0,87.78,94.32Z"/><path class="cls-9" d="M89.69,96.72v0a.77.77,0,0,0-.8-.74.7.7,0,0,0-.39.13v0a.72.72,0,0,0-.24.25h0a.41.41,0,0,0,0,.09.56.56,0,0,0,0,.12v0a1.11,1.11,0,0,0,0,.19.28.28,0,0,0,0,.09.77.77,0,0,0,1.44.34h0A.72.72,0,0,0,89.69,96.72Z"/><path class="cls-9" d="M91.23,98.84c-1,0-.94,1.57.07,1.57S92.24,98.84,91.23,98.84Z"/><path class="cls-9" d="M90.43,102.68h-.06a.59.59,0,1,0,.08,1.17h0a.58.58,0,0,0,.47-.53A.6.6,0,0,0,90.43,102.68Z"/><path class="cls-9" d="M95.08,102.66c-.62,0-.75,1-.13,1S95.7,102.66,95.08,102.66Z"/><path class="cls-9" d="M96,103.93a.51.51,0,0,0-.19.32.77.77,0,0,0,0,.15s0,0,0,.08a.47.47,0,0,0,.93,0C96.88,103.81,96.29,103.72,96,103.93Z"/><path class="cls-9" d="M97.24,106.24h0a.41.41,0,0,0-.17-.2l0,0-.14,0h-.06c-.68-.1-.68,1,0,.93h.06A.46.46,0,0,0,97.24,106.24Z"/><path class="cls-9" d="M102,104.5a.64.64,0,1,0,.61.66A.65.65,0,0,0,102,104.5Z"/><path class="cls-9" d="M100.88,107.26h-.11c-.66.06-.56,1.07.06,1.13H101a.58.58,0,1,0-.07-1.15Z"/><path class="cls-9" d="M100,103.3a.52.52,0,0,0-.84-.33l0,0a.45.45,0,0,0-.07.63.46.46,0,0,0,.26.23.51.51,0,0,0,.4,0,.54.54,0,0,0,.31-.56Z"/><path class="cls-9" d="M104.6,102.06a.72.72,0,0,0-.78.62.71.71,0,0,0,.62.78.72.72,0,0,0,.78-.62A.71.71,0,0,0,104.6,102.06Z"/><path class="cls-9" d="M105.6,105.4a.57.57,0,0,0-.35-.48.63.63,0,0,0-.71.16.61.61,0,0,0-.13.45.56.56,0,0,0,.24.41h0a.51.51,0,0,0,.43.13h0A.61.61,0,0,0,105.6,105.4Z"/><path class="cls-9" d="M105.2,106.39c-1.42,0-1.27,2.2.14,2.2S106.61,106.39,105.2,106.39Z"/><path class="cls-9" d="M108.25,102.64a.66.66,0,0,0-.18,1.3.68.68,0,0,0,.74-.57A.66.66,0,0,0,108.25,102.64Z"/><path class="cls-9" d="M109.36,104.63a.87.87,0,1,0-.07,1.74.87.87,0,0,0,.07-1.74Z"/><path class="cls-9" d="M91.11,103.44a1.26,1.26,0,0,0-1.38-1.08,1.23,1.23,0,0,0-1.08,1.38A1.27,1.27,0,0,0,90,104.82,1.25,1.25,0,0,0,91.11,103.44Z"/><path class="cls-9" d="M92.29,105.54a.61.61,0,0,0-.54.67.62.62,0,0,0,.68.53.6.6,0,1,0-.14-1.2Z"/><path class="cls-9" d="M93.4,107.22v0a.68.68,0,0,0,1.35,0v0C94.91,106.21,93.26,106.21,93.4,107.22Z"/><path class="cls-9" d="M110.2,98.93a.83.83,0,0,0-.87.78.82.82,0,0,0,.77.87.83.83,0,0,0,.1-1.65Z"/><path class="cls-9" d="M111.7,100.47c-1.51,0-1.28,2.33.21,2.33S113.19,100.47,111.7,100.47Z"/><path class="cls-9" d="M113.81,96.05a.78.78,0,1,0,.73.84A.8.8,0,0,0,113.81,96.05Z"/><path class="cls-9" d="M112.34,97.5c0-.06,0-.11-.07-.17a.46.46,0,0,0-.8,0l0,.06a.5.5,0,0,0,.34.71C112.11,98.21,112.51,97.85,112.34,97.5Z"/><path class="cls-9" d="M113.64,92.19a.45.45,0,0,0-.2,0,.5.5,0,0,0-.06.92.71.71,0,0,0,.24.06h.09a.42.42,0,0,0,.35-.16h0A.52.52,0,0,0,113.64,92.19Z"/><path class="cls-9" d="M114.69,98.72c-.66,0-.58,1,.08,1S115.35,98.72,114.69,98.72Z"/><path class="cls-9" d="M87.91,98.39a1,1,0,0,0-1,1,1,1,0,0,0,1.83.54,1,1,0,0,0,.15-.57A1,1,0,0,0,87.91,98.39Z"/><path class="cls-9" d="M94.87,101.88h0a.95.95,0,0,0,0,1.89h0a1,1,0,0,0,0-1.91Z"/><path class="cls-9" d="M91.22,96.52a.39.39,0,0,0,0,.77A.39.39,0,0,0,91.22,96.52Z"/><path class="cls-9" d="M93.32,99.05a.64.64,0,0,0-.55.72.66.66,0,0,0,.72.55A.64.64,0,0,0,94,99.6.66.66,0,0,0,93.32,99.05Z"/><path class="cls-9" d="M97,108.44c-1.49,0-1.27,2.31.21,2.31S98.47,108.44,97,108.44Z"/><path class="cls-9" d="M99.2,104.91a.93.93,0,0,0,0,1.86A.93.93,0,0,0,99.2,104.91Z"/><path class="cls-9" d="M102.37,108.85l-.07,0a.88.88,0,1,0,1.16,1.25.21.21,0,0,0,0-.06A.87.87,0,0,0,102.37,108.85Z"/><path class="cls-9" d="M90.27,127.51a28.74,28.74,0,0,1-.83-3.65.91.91,0,0,0-.63-.66.86.86,0,0,0-.72.08,1,1,0,0,0-.44,1,18.92,18.92,0,0,0,.7,3.26c.39,1.11,1.1,3.2,2.29,3.77a.31.31,0,0,0,.46-.18C91.53,129.9,90.63,128.69,90.27,127.51Z"/><path class="cls-9" d="M91.06,127.89c-.29-1.25-.38-3.1-1.47-3.94a.26.26,0,0,0-.31,0c-1.18,1.24-.16,3.39.28,4.76.26.78.44,2.38,1.48,2.47a.08.08,0,0,0,.07,0C91.68,130.19,91.29,128.91,91.06,127.89Z"/><path class="cls-9" d="M90.66,124.41c-.26-.85-1.76-.87-1.68.15a16.37,16.37,0,0,0,.49,3c.21.78.25,1.54,1,2a0,0,0,0,0,.07,0A8.07,8.07,0,0,0,90.66,124.41Z"/><path class="cls-9" d="M89.23,126a13.5,13.5,0,0,0-1.1-2.79c-.15-.21-.54-.29-.67,0-.45,1,.05,2.23.34,3.24a3,3,0,0,0,1.56,2,.36.36,0,0,0,.44-.25A4,4,0,0,0,89.23,126Z"/><path class="cls-9" d="M91.13,126a14,14,0,0,1-.27-1.74,2.26,2.26,0,0,0-.77-1.33c-.45-.27-.8-.15-1.24-.23a.79.79,0,0,0-1.13.39,1.55,1.55,0,0,0,.53,1.93s0,0,0,0a8.26,8.26,0,0,1,.22-1l.19,0s.42,0,.4,0a2,2,0,0,1,.16.84c.11,1,0,2.47,1.27,2.73a.53.53,0,0,0,.52-.19A1.47,1.47,0,0,0,91.13,126Z"/><path class="cls-9" d="M92.16,129.78a1.09,1.09,0,0,0,0-.18s0-.06,0-.09h0c0-.14-.07-.28-.11-.42-.24-1-.51-1.94-.69-2.92s-.32-3.26-1.24-3.81-2.72-.53-2.84.76c0,.35.41,2,1,1.68a.78.78,0,0,0,.33-.57c.12-1.07.36-.27.43.42a22.76,22.76,0,0,0,1.18,5.4,1,1,0,0,0,1.77.25c0,.17,0,.19.1-.18a.64.64,0,0,0,0-.07v0h0a1.5,1.5,0,0,0,0-.22Z"/><path class="cls-9" d="M112.86,132.6a29.89,29.89,0,0,0-1.69-3.52c-.54-1.24-1.08-2.48-1.63-3.72a2.2,2.2,0,0,0-4-.11c-.67,1.42.54,3.69,1.56,4.69a28.25,28.25,0,0,0,2.33,2.31c.29.21.58.43.88.63a4.45,4.45,0,0,0,.83.85A1.08,1.08,0,0,0,112.86,132.6Z"/><path class="cls-9" d="M154.74,79.85a.9.9,0,0,0-1.05-.71,15.78,15.78,0,0,0-4.4.93.48.48,0,0,0-.27.32,8.73,8.73,0,0,0-3,.4c-.61.27-1.4.58-2.18.95l.27-.26c.32-.29.69-.59,1.06-.91a12.42,12.42,0,0,0,2.61-2.32.75.75,0,0,0,0-.91c-.83-1.46-2.12-2.63-2.94-4.09a.62.62,0,0,0-1.13.15c-.08.42-.3.95,0,1.32a20.3,20.3,0,0,0,2.06,2.6.55.55,0,0,1,.23.52,9.36,9.36,0,0,0-2.24,2.55l-.5.5a1.58,1.58,0,0,0-.34-1.43,12.14,12.14,0,0,0-1.54-2.21c-.86-.68-2.22-1.29-2.64-2.32a.77.77,0,0,0-1.41-.05,2.67,2.67,0,0,0,.17,2.19c.39.9,1.66.77,2.29,1.38a4.79,4.79,0,0,1,1.64,2.86c0,.14-.08.28-.13.43l-.12-.12a.6.6,0,0,0-.46-.49c-.28,0-.48-.18-.77-.24-.5-.09-1,0-1.5-.13a10.31,10.31,0,0,0-1.8-.55,5.13,5.13,0,0,1-.8,0l-.64-.2a.82.82,0,0,0-.63,1.52,6.33,6.33,0,0,0,1.42.42c.64.17,1.28.34,1.91.55a7.6,7.6,0,0,0,1.62.37c.6.07.52.46.67,1a.72.72,0,0,0,.12.21.7.7,0,0,0,.29.63.34.34,0,0,0,0,.1c-3.11,4.5-6.38,8.91-9.67,13.29-1.09,1.45-2.27,2.8-3.35,4.24a20.89,20.89,0,0,1-2.24,2.89l-.15.09c-1.15.39-8.12-1-9.68-1.73-.91,1.41.09,3.42,1.34,4.42a6.92,6.92,0,0,0,4,1.38c2.61.2,5.73,0,7.91-1.61l.63-.51a7.14,7.14,0,0,0,1-1.4c1.59-2.83,3.27-5.6,4.84-8.44,2.23-4,4.42-8.07,6.87-11.94.51-.09.93-.24,1.36-.34,2,.15,4.35,1.36,6,1.54a.83.83,0,0,0,.86-1.12c-.41-1.41-2-1.81-3.33-1.86-.86,0-1.67-.31-2.52-.42a8.48,8.48,0,0,1,3.26-1,24,24,0,0,0,6.18-1,.92.92,0,0,0,.72-1.05Z"/><path class="cls-9" d="M72.28,98.21c.13,0,.24-.06.36-.09a4.85,4.85,0,0,0,3-5.46,3.81,3.81,0,0,0-1-.13C70,91.44,63,90.61,61.89,85.66a34.72,34.72,0,0,0-2.27-6.49,12.58,12.58,0,0,0-2.47-3.35.44.44,0,0,0,.08-.11,11.58,11.58,0,0,0,3.21-2.43,2.71,2.71,0,0,0,.58-1c.68-.72.31-1.52.24-2.8s-1.76-.93-1.76.19a7.16,7.16,0,0,1-.13,1.68c-.67.47-1.41.91-2.09,1.39A11.07,11.07,0,0,0,57,70.84a2.46,2.46,0,0,0-.47-1s.42-.62.46-.77a12.89,12.89,0,0,0,.42-1.68,1.31,1.31,0,0,0,0-1.4.74.74,0,0,0-1.36.38c0,.2,0,.43,0,.67-.29.39-.89,1-1,1.18A1.92,1.92,0,0,0,54.57,70a25.56,25.56,0,0,1,.69,3,8.29,8.29,0,0,0-2.1-1.3c-.9-.33-2.29.29-2.75-.91A23.87,23.87,0,0,1,48.8,66.6c-.16-1-1.76-.94-1.62.11s.43,2.21.68,3.36A6.78,6.78,0,0,0,49.21,73a5.12,5.12,0,0,0,2.72.71,5.38,5.38,0,0,1,1.73.5,37.57,37.57,0,0,0-4.63,0c-2.11,0-3.05.73-3.74,2.76a.72.72,0,0,0,.49.86c1.26.45,1.8-.46,2.56-1.34s2.15-.63,3.33-.62a19.16,19.16,0,0,1,3.21.08s0,0,.07,0c.21,1.67,1.58,3.32,2.14,4.86a33.89,33.89,0,0,1,1.72,4.73,13.45,13.45,0,0,0,1.2,3.1,11,11,0,0,0,5,4.9c1.72,1,4,2.08,5.34,3.56a.63.63,0,0,0,.13.2C71,97.88,71.46,98.36,72.28,98.21Z"/><path class="cls-9" d="M106.43,77.29a3.19,3.19,0,0,1,.47,0c.19,0,.43.13.69.22a7.3,7.3,0,0,1,.72.38,8.52,8.52,0,0,1,1.52,1.26c.24.26.5.51.73.81a9.85,9.85,0,0,1,.67.89,9.18,9.18,0,0,1,.57.95c.15.34.32.65.43,1a7.5,7.5,0,0,1,.31,1,6,6,0,0,1,.17.87,4.93,4.93,0,0,1,.05.74,2.52,2.52,0,0,1,0,.56c0,.31,0,.49,0,.49a.13.13,0,0,1-.13.11.12.12,0,0,1-.1-.09h0l-.13-.45a3.62,3.62,0,0,0-.16-.51,4.36,4.36,0,0,0-.26-.62c-.12-.22-.22-.46-.37-.7a6,6,0,0,0-.48-.72,6.43,6.43,0,0,0-.58-.71c-.23-.23-.44-.46-.67-.67a6.74,6.74,0,0,0-.71-.61c-.24-.2-.5-.36-.73-.53a13.81,13.81,0,0,0-1.36-.74c-.19-.11-.36-.18-.51-.27a2.28,2.28,0,0,1-.32-.18c-.27-.12-.43-.21-.43-.21h0a1.2,1.2,0,0,1-.38-1.67A1.19,1.19,0,0,1,106.43,77.29Z"/></g></g></svg>