<svg xmlns="http://www.w3.org/2000/svg" viewBox="0 0 200 200"><defs><style>.cls-1{isolation:isolate;}.cls-2{fill:#13a4a8;}.cls-3,.cls-4,.cls-6{fill:#19b8bd;}.cls-4,.cls-5,.cls-6,.cls-7{mix-blend-mode:multiply;}.cls-4,.cls-5{opacity:0.5;}.cls-6{opacity:0.2;}.cls-7,.cls-8{fill:#f0d907;}.cls-9{fill:#fff;}.cls-10{fill:#e8e8e8;}.cls-11{fill:#6e2810;}.cls-12{fill:#f0b65e;}</style></defs><g class="cls-1"><g id="Layer_1" data-name="Layer 1"><path class="cls-2" d="M97.65,148.09a5,5,0,0,0,1.77-.88,1.08,1.08,0,0,0,0-1.56c-.73-.64-2-.46-2.87-.33a23.41,23.41,0,0,0-2.61,1.1,4.05,4.05,0,0,0-.7.07,7.38,7.38,0,0,1,.12-1.93c.44-2,1.81-2.84,2.67-4.47a.81.81,0,0,0-1-1.1,5.14,5.14,0,0,1-1.14.46.74.74,0,0,0-.43.33l0,0a10.11,10.11,0,0,1,.65-1,.8.8,0,0,0-1.21-1,6.61,6.61,0,0,0-1,1.4l-.31.54a.44.44,0,0,0-.68.22l0,.1a3.11,3.11,0,0,0-.35.3,1.69,1.69,0,0,0-.33-.73,2,2,0,0,0-.09-.22.43.43,0,0,0-.78,0,.37.37,0,0,0-.13.12l0,.05a1.41,1.41,0,0,0-.76-.68.49.49,0,0,0-.51.12,18.29,18.29,0,0,1-.9-8.73s0,0,0,0c-.49,2.71-.91,5.82,0,8.55a35.61,35.61,0,0,0,3.13,7.36c0,.06,0,.12,0,.18a8.92,8.92,0,0,0-5.46,1.34.76.76,0,0,0-.3.88c.94,2.25,5.39-.15,6.9-.15.24,0-.13.39-.14.87a10.84,10.84,0,0,0,0,2.73c.23,1.14.42,2.35,1.74,2.59a.79.79,0,0,0,.85-.42A3.51,3.51,0,0,0,94,152c-.09-.54-.53-2-.69-3.13l0-.05.21.06c.25.25.48.48.62.59a11.2,11.2,0,0,0,2.67,1.36c1.13.46,2.71,1.13,3.94.75a.82.82,0,0,0,.52-.8C101.4,149.09,99.36,148.47,97.65,148.09Z"/><path class="cls-2" d="M105.85,147.78a5,5,0,0,1-1.81-.7,1.1,1.1,0,0,1-.19-1.55c.65-.71,1.91-.66,2.75-.61a23.36,23.36,0,0,1,2.64.85,4,4,0,0,1,.69,0,7.38,7.38,0,0,0-.3-1.91c-.62-1.9-2-2.66-3-4.19-.36-.56.22-1.43.87-1.19a4.23,4.23,0,0,0,1.15.34.69.69,0,0,1,.44.3l0,0a10.47,10.47,0,0,0-.73-.89.79.79,0,0,1,1.07-1.15,6.31,6.31,0,0,1,1.06,1.3c.12.16.24.33.35.51a.43.43,0,0,1,.69.15.42.42,0,0,0,0,.1,2.53,2.53,0,0,1,.37.26,1.63,1.63,0,0,1,.25-.75,2.1,2.1,0,0,1,.06-.24.41.41,0,0,1,.75-.1.33.33,0,0,1,.15.11l0,.05a1.41,1.41,0,0,1,.68-.76.49.49,0,0,1,.51.07,18.58,18.58,0,0,0,0-8.77,0,0,0,0,1,.05,0c.74,2.65,1.45,5.7.85,8.5a35.68,35.68,0,0,1-2.31,7.63v.18a8.52,8.52,0,0,1,5.45.81.79.79,0,0,1,.38.85c-.69,2.32-5.26.36-6.73.51-.23,0,.16.37.23.85a11.32,11.32,0,0,1,.27,2.72c-.11,1.15-.18,2.37-1.43,2.74a.78.78,0,0,1-.88-.33,3.5,3.5,0,0,1-.46-2.13c0-.56.32-2.07.36-3.19l0,0-.2.07a8.38,8.38,0,0,1-.55.65,11.08,11.08,0,0,1-2.45,1.62c-1.06.56-2.53,1.38-3.76,1.12a.79.79,0,0,1-.58-.75C102.31,149.14,104.22,148.33,105.85,147.78Z"/><path class="cls-3" d="M127.28,121.28c0,15.76-11.51,20.35-25.71,20.35S75.85,137,75.85,121.28,51.39,85.79,101.57,84.52C148.61,83.33,127.28,105.51,127.28,121.28Z"/><path class="cls-3" d="M87.28,55.24a3.12,3.12,0,0,0-.15-.43s0,0,0-.05a.54.54,0,0,0,0-.11.2.2,0,0,0,0-.08c-1.1-2.44-3.17-2.55-5.67-2.44a3.92,3.92,0,0,0-.94.17c1.38-.88,3-.41,4.71-.47,1.36-.06,1.49-2.73.45-3.26a6.14,6.14,0,0,0-5.91.82A21.2,21.2,0,0,0,77.87,51,2.66,2.66,0,0,0,78,48.74a.74.74,0,0,0-1.09-.39,5.22,5.22,0,0,0-2.49,3.17c-.32.86.08,1.8-.14,2.66-.07.29-.13.59-.18.89-12,13.43-13.42,29-8.5,42.78,1.09,3,4.74,8.87,8.48,8.66a.24.24,0,0,0,.22-.29s0-.1,0-.15a.19.19,0,0,0-.36,0,3.74,3.74,0,0,1-.73-.56,5.27,5.27,0,0,0,.56.19c.07,0,.11,0,.06-.11-18.12-21.1,5-46.79,5.46-47.25,1.32.79.54,3,1.93,3.84s2.86-.45,3-1.89-1.36-3.8-2.65-4.58a4.26,4.26,0,0,0-1.78-.59c.49-.16,1.06-.29,1-.29,1.21-.25,2.08-.19,2.77,1a3.91,3.91,0,0,0,1.95,1.66c1.35.65,1.85-.56,1.84-1.67A1,1,0,0,0,87.28,55.24Z"/><path class="cls-3" d="M108.62,52.92a4.08,4.08,0,0,1,.19-.42l0,0,.07-.12,0-.08c1.37-2.44,3.93-2.55,7-2.43a5.24,5.24,0,0,1,1.16.16c-1.7-.88-3.77-.4-5.84-.47-1.69-.06-1.85-2.73-.56-3.26a9.14,9.14,0,0,1,7.33.82,26,26,0,0,1,2.22,1.64,2.19,2.19,0,0,1-.11-2.28,1,1,0,0,1,1.35-.4,5.59,5.59,0,0,1,3.1,3.18c.39.85-.1,1.79.17,2.65.09.3.16.6.23.9,14.85,13.42,16.65,29,10.53,42.78-1.34,3-5.87,8.87-10.51,8.65-.18,0-.32-.14-.27-.29s0-.09,0-.14.39-.2.45,0a4.43,4.43,0,0,0,.91-.56,5.56,5.56,0,0,1-.7.19c-.08,0-.14-.05-.08-.1,22.49-21.11-6.14-46.79-6.77-47.26-1.64.79-.67,3-2.39,3.85a2.55,2.55,0,0,1-3.71-1.9c-.17-1.55,1.68-3.8,3.28-4.57A6,6,0,0,1,118,52.8c-.6-.16-1.31-.29-1.29-.29-1.5-.25-2.58-.2-3.43,1a4.82,4.82,0,0,1-2.43,1.67c-1.66.65-2.29-.57-2.27-1.68A.87.87,0,0,1,108.62,52.92Z"/><path class="cls-3" d="M90.85,139.53a0,0,0,1,0,0,0A0,0,0,1,0,90.85,139.53Z"/><path class="cls-4" d="M101.24,131.38a51.11,51.11,0,0,1-25.15-6.45c1.68,12.83,12.44,16.7,25.48,16.7s24-3.95,25.53-17.11A51,51,0,0,1,101.24,131.38Z"/><g class="cls-5"><path class="cls-6" d="M127.25,122.48c0-.4,0-.79,0-1.2a26.67,26.67,0,0,1,.74-5.75A83,83,0,0,1,100,120.06a86.3,86.3,0,0,1-24.69-3.4,20.65,20.65,0,0,1,.58,4.62c0,.4,0,.79,0,1.18a85.2,85.2,0,0,0,25.71,3.72A85.15,85.15,0,0,0,127.25,122.48Z"/><path class="cls-6" d="M101.59,88.71a89.65,89.65,0,0,0,20.74-2.33c-4.66-1.39-11.34-2.1-20.76-1.86-8.51.22-14.87,1-19.56,2.13A90.64,90.64,0,0,0,101.59,88.71Z"/><path class="cls-6" d="M101.31,99c11.6,0,22.17-2,30.16-5.35a9.85,9.85,0,0,0-4.25-5.12,83.44,83.44,0,0,1-27.54,4.35,86.18,86.18,0,0,1-24.85-3.45,10.1,10.1,0,0,0-4,4.09C78.86,96.91,89.56,99,101.31,99Z"/><path class="cls-6" d="M101.16,109.84c11.46,0,21.92-2,29.87-5.23a27.64,27.64,0,0,0,1.07-7.32c-8.21,4-19.77,6.43-32.57,6.43-11.33,0-21.68-1.94-29.61-5.13a25.18,25.18,0,0,0,1.31,6C79.19,107.85,89.67,109.84,101.16,109.84Z"/><path class="cls-6" d="M128.67,112.92c.68-2.54,1.51-5.11,2.18-7.61C122.78,108.82,111.91,111,100,111a82.69,82.69,0,0,1-28.11-4.55c.75,2.09,1.58,4.23,2.3,6.37a83.53,83.53,0,0,0,27.44,4.3A84,84,0,0,0,128.67,112.92Z"/></g><path d="M109.12,71a2.29,2.29,0,0,1,.32-.08,3.58,3.58,0,0,1,.51,0,4.27,4.27,0,0,1,.56.07,5.72,5.72,0,0,1,1.31.43,9.16,9.16,0,0,1,1.35.77,5.85,5.85,0,0,1,1.14,1,4.34,4.34,0,0,1,.44.54,4.45,4.45,0,0,1,.33.52,4.63,4.63,0,0,1,.22.47,2,2,0,0,1,.14.38l.09.33s0,.08,0,.1a.09.09,0,0,1-.09,0h0l-.19-.27c-.07-.08-.13-.18-.23-.28a3.46,3.46,0,0,0-.33-.35,6,6,0,0,0-.92-.71,7,7,0,0,0-1.16-.59,7.29,7.29,0,0,0-2.3-.52,3.83,3.83,0,0,1-.41-.05.87.87,0,0,1-.25,0,1.5,1.5,0,0,1-.33,0h0a.84.84,0,0,1-.67-1A.86.86,0,0,1,109.12,71Z"/><path d="M90.2,72.06s-.13.06-.37.14l-.32.13-.48.18c-.36.14-.8.28-1.25.49a12.55,12.55,0,0,0-1.39.74,10.24,10.24,0,0,0-1.28.93,6.45,6.45,0,0,0-.53.5,6.08,6.08,0,0,0-.43.5,2.87,2.87,0,0,0-.33.46,2.26,2.26,0,0,0-.22.38c-.12.22-.18.35-.18.35h0a.11.11,0,0,1-.13,0,.12.12,0,0,1-.05-.09s0-.15.06-.41a2.41,2.41,0,0,1,.1-.46,3.33,3.33,0,0,1,.19-.59A6.72,6.72,0,0,1,84.34,74a9.17,9.17,0,0,1,1.16-1.37,9.87,9.87,0,0,1,1.38-1.16,8.37,8.37,0,0,1,.7-.46,5.66,5.66,0,0,1,.68-.36,3.65,3.65,0,0,1,.62-.23,4.52,4.52,0,0,1,.54-.13l.4,0a1,1,0,0,1,.9,1,.94.94,0,0,1-.51.8Z"/><path class="cls-7" d="M91.55,91.45a8.23,8.23,0,0,1-8.22-8.22,7.15,7.15,0,0,1,.13-1.31,8.21,8.21,0,1,1,8.09,9.53Z"/><path class="cls-8" d="M91.55,91.45a8.23,8.23,0,0,1-8.22-8.22,7.15,7.15,0,0,1,.13-1.31,8.21,8.21,0,1,1,8.09,9.53Z"/><path class="cls-9" d="M84.76,83.23a6.79,6.79,0,1,0,6.79-6.8A6.79,6.79,0,0,0,84.76,83.23Z"/><path class="cls-10" d="M85,81.49A6.76,6.76,0,0,0,98.3,82.82c0,.14,0,.27,0,.41a6.79,6.79,0,0,1-13.58,0A7.1,7.1,0,0,1,85,81.49Z"/><path d="M89,84.49a3.39,3.39,0,1,0-.28-4.78A3.39,3.39,0,0,0,89,84.49Z"/><path class="cls-9" d="M90.6,81.36a1.35,1.35,0,1,0,1.79-2,1.35,1.35,0,0,0-1.79,2Z"/><path class="cls-7" d="M109.22,91.45A8.23,8.23,0,0,1,101,83.23a7.15,7.15,0,0,1,.13-1.31,8.21,8.21,0,0,1,16.31,1.31A8.23,8.23,0,0,1,109.22,91.45Z"/><path class="cls-8" d="M109.22,91.45A8.23,8.23,0,0,1,101,83.23a7.15,7.15,0,0,1,.13-1.31,8.21,8.21,0,0,1,16.31,1.31A8.23,8.23,0,0,1,109.22,91.45Z"/><path class="cls-9" d="M102.43,83.23a6.79,6.79,0,1,0,6.79-6.8A6.79,6.79,0,0,0,102.43,83.23Z"/><path class="cls-10" d="M102.68,81.49A6.76,6.76,0,0,0,116,82.82c0,.14,0,.27,0,.41a6.79,6.79,0,1,1-13.58,0A6.65,6.65,0,0,1,102.68,81.49Z"/><path d="M106.69,84.49a3.39,3.39,0,1,0-.29-4.78A3.39,3.39,0,0,0,106.69,84.49Z"/><path class="cls-9" d="M108.27,81.36a1.35,1.35,0,1,0-.12-1.91A1.36,1.36,0,0,0,108.27,81.36Z"/><path class="cls-11" d="M109.35,98.29c0,2.28-3.74,5.57-8.35,5.57s-8.36-3.29-8.36-5.57S96.38,96.7,101,96.7,109.35,96,109.35,98.29Z"/><path class="cls-12" d="M101,103.25c-4.41,0-8-3-8.32-5.25a1.45,1.45,0,0,0,0,.29c0,2.28,3.74,5.57,8.36,5.57s8.35-3.29,8.35-5.57a1.43,1.43,0,0,0,0-.29C109,100.26,105.4,103.25,101,103.25Z"/><path class="cls-9" d="M101,96.7c-2,0-3.84-.13-5.27-.09h-.21s-1.71,2.94-.88,3.11c1.14.23,2.93.84,3.12,0l.91-1.91s-.42,1.87,0,2.27a3.86,3.86,0,0,0,2.49.58,3.91,3.91,0,0,0,2.5-.58c.41-.4,0-2.27,0-2.27l.9,1.91c.2.8,2,.19,3.12,0,.81-.17-.79-3-.87-3.1C105.31,96.53,103.26,96.7,101,96.7Z"/></g></g></svg>