<svg xmlns="http://www.w3.org/2000/svg" viewBox="0 0 200 200"><defs><style>.cls-1{isolation:isolate;}.cls-2{fill:#437e39;}.cls-3{fill:#ff3a5c;}.cls-4{fill:#5057b8;}.cls-5,.cls-6{fill:#f0d907;}.cls-5{mix-blend-mode:multiply;}.cls-7{fill:#fff;}.cls-8{fill:#e8e8e8;}.cls-9{fill:#64bd55;}.cls-10{fill:#a2a7e8;}.cls-11{fill:#3c37a1;}</style></defs><g class="cls-1"><g id="Layer_1" data-name="Layer 1"><path class="cls-2" d="M91.41,87.82a25.64,25.64,0,0,0-3.34-1.06,1,1,0,0,0,0-.3.71.71,0,0,0,.46-.45,1.63,1.63,0,0,1,.78.18c.18.12.46-.09.33-.3a1.71,1.71,0,0,0-1.21-.78.82.82,0,0,0-.24-.25,5.75,5.75,0,0,0-.63-.35c.47-.1.93-.2,1.34-.31s.26-.56-.05-.53c-1.17.11-2.4.15-3.62.23h0a.85.85,0,0,0-.49-.73c1.64-.2,3.27-.08,4.89-.71a.17.17,0,0,0,0-.32c-4.26-1.65-9.15-.12-12.2,3-3.73,3.82-5.53,10.73-6.53,15.84-1.26,6.47-3.32,12.53-5,18.88a92.67,92.67,0,0,1-2.84,9.59c-.44,1.15-1,2.29-1.5,3.45-1.36.16-2.73,1.07-4,1.31s-3.45.34-4.15,1.86c-.63,1.35,0,3,.41,4.36A24,24,0,0,0,57,147.15a1.31,1.31,0,0,0,1.57.36c2-1,2-3.32.72-4.84a9.4,9.4,0,0,1-1.83-4.19c-.07-.28.3-.55.84-.79v0a12.85,12.85,0,0,0,1.91,3.67,21.58,21.58,0,0,0,1.46,2.73,1.26,1.26,0,0,0,1.75.23c1-.82,1.62-3,.87-4.09a11.12,11.12,0,0,1-1.69-2.79c-.21-.65.23-.74.71-1.14l.12-.11a9.52,9.52,0,0,0,1.25,1.28c.77.69,1.31,2.06,2.45,2.23,1.3.2,1.84-1,2.37-1.9s-.5-1.9-1.2-2.45c-1.54-1.23-2.32-2.17-2.34-4.25a4.79,4.79,0,0,1,.11-1c.42-.93.86-1.86,1.37-2.76C70.19,122.6,71.27,117,73.19,112s3.12-10.76,5.11-16c.7-1.84,2.76-7.75,5.23-7.88,1.44-.08,2.92.13,4.36.12a25.51,25.51,0,0,1,3.47-.17C91.49,88.08,91.53,87.87,91.41,87.82Z"/><path class="cls-3" d="M69.32,116a.94.94,0,0,1,0-1.87A.94.94,0,0,1,69.32,116Zm2.24-5.3c-.84,0-1,1.32-.17,1.32S72.42,110.72,71.56,110.72Zm-1.51.55a.29.29,0,0,0,0,.58A.29.29,0,0,0,70.05,111.27Zm1-3.75c-.6,0-.55.93.06.93S71.7,107.52,71.09,107.52Zm2,0a.87.87,0,0,0-.45-.07.58.58,0,0,0,0,1.15.81.81,0,0,0,.44,0A.56.56,0,0,0,73.12,107.48Zm-.54-5.92c-1.14,0-1.2,1.77-.06,1.77S73.72,101.56,72.58,101.56Zm-1.14,2.54a1,1,0,0,0-1,1.06,1,1,0,1,0,1-1.06Zm2.3-.09a.58.58,0,0,0-.52.64.6.6,0,0,0,.64.52.58.58,0,0,0,.52-.64A.6.6,0,0,0,73.74,104Zm.78-2.6a.32.32,0,0,0,0,.64A.32.32,0,0,0,74.52,101.41Zm-1.8-1.7a.41.41,0,0,0,0,.82A.41.41,0,0,0,72.72,99.71Zm-.19-2a1,1,0,0,0,0,2A1,1,0,0,0,72.53,97.7Zm.64-3.85c-.37.45,0,.92.51,1s.53-.31.52-.64A.59.59,0,0,0,73.17,93.85Zm1.67,3.44c-.66,0-.58,1,.07,1S75.49,97.29,74.84,97.29ZM67.7,116.83c-.58,0-.54.9,0,.9S68.29,116.83,67.7,116.83ZM55.86,140.25a.58.58,0,0,0,.52-.61.25.25,0,0,0,0-.12.67.67,0,0,0-.59-.75.7.7,0,0,0-.76.59v.14a.6.6,0,0,0,.2.59A.75.75,0,0,0,55.86,140.25Zm2-3.35c.87,0,1-1.35.17-1.35S56.94,136.9,57.81,136.9Zm-3,0c-.54,0-.51.84,0,.84S55.38,136.88,54.84,136.88Zm5.67,0a.63.63,0,0,0-.55.69.65.65,0,0,0,.7.55.62.62,0,0,0,.54-.7A.63.63,0,0,0,60.51,136.87Zm-5.76-.82h0a.62.62,0,0,0,.26-.46.69.69,0,0,0-.06-.37h0a.51.51,0,0,0-.32-.35,2.61,2.61,0,0,0-1,.78.68.68,0,0,0,.8.51l0,0A.63.63,0,0,0,54.75,136.05Zm5.85.29c.62,0,.56-1-.05-1S60,136.34,60.6,136.34Zm-4.26.63c.73,0,.61-1.13-.11-1.13S55.62,137,56.34,137Zm2.15-2c.67,0,.63-.93.06-1.11a4.62,4.62,0,0,1-.6.19A.63.63,0,0,0,58.49,135Zm-3.32,6.16a0,0,0,0,0,0,.09h0c.08,0,.08-.13,0-.11Zm8.52-9.26c-1.1,0-1.18,1.72-.08,1.72S64.8,131.91,63.69,131.91Zm-1.16,3.55a.28.28,0,0,0,0,.55C62.86,136,62.88,135.46,62.53,135.46Zm1-4.83a.35.35,0,1,0,0-.69h0a.35.35,0,0,0,0,.67Zm1.85,3.76a.31.31,0,0,0,0-.61A.31.31,0,0,0,65.37,134.39Zm-8.92,7.38c.62,0,.56-1-.07-1S55.82,141.77,56.45,141.77Zm.33-4.22c-.72,0-.61,1.11.11,1.11S57.5,137.55,56.78,137.55Zm7.09-3.45a.36.36,0,0,0,0,.71A.36.36,0,0,0,63.87,134.1Zm-6.95,5.39c-.57,0-.53.89,0,.89S57.5,139.49,56.92,139.49ZM61.19,133a4.42,4.42,0,0,0-.52.14,1,1,0,1,0,.52-.14Z"/><path class="cls-2" d="M102.46,87.82a32.56,32.56,0,0,1,3.87-1.06.74.74,0,0,1,0-.3.77.77,0,0,1-.52-.45,2.13,2.13,0,0,0-.91.18c-.21.12-.54-.09-.39-.3a2.06,2.06,0,0,1,1.41-.78.84.84,0,0,1,.28-.25,6.88,6.88,0,0,1,.73-.35c-.55-.1-1.08-.2-1.56-.31a.27.27,0,0,1,.06-.53c1.35.11,2.78.15,4.2.23h0a.83.83,0,0,1,.57-.73c-1.9-.2-3.8-.08-5.67-.71a.17.17,0,0,1,0-.32,15,15,0,0,1,14.12,3c4.33,3.82,6.41,10.73,7.57,15.84,1.47,6.47,3.85,12.53,5.76,18.88a84.09,84.09,0,0,0,3.29,9.59c.52,1.15,1.2,2.29,1.74,3.45,1.57.16,3.17,1.07,4.66,1.31s4,.34,4.81,1.86c.73,1.35,0,3-.48,4.36a22.53,22.53,0,0,1-3.71,6.74,1.7,1.7,0,0,1-1.83.36c-2.34-1-2.3-3.32-.83-4.84a8.81,8.81,0,0,0,2.12-4.19c.08-.28-.35-.55-1-.79a0,0,0,0,1,0,0,12.47,12.47,0,0,1-2.22,3.67,20.68,20.68,0,0,1-1.69,2.73,1.62,1.62,0,0,1-2,.23c-1.12-.82-1.89-3-1-4.09a11.38,11.38,0,0,0,2-2.79c.23-.65-.27-.74-.83-1.14a.69.69,0,0,1-.13-.11,11.18,11.18,0,0,1-1.45,1.28c-.89.69-1.53,2.06-2.84,2.23-1.52.2-2.14-1-2.75-1.9s.58-1.9,1.38-2.45c1.79-1.23,2.7-2.17,2.72-4.25a3.76,3.76,0,0,0-.13-1c-.49-.93-1-1.86-1.58-2.76-3.14-4.77-4.4-10.33-6.62-15.41S120,101.2,117.65,96c-.81-1.84-3.21-7.75-6.06-7.88-1.67-.08-3.38.13-5.06.12a34,34,0,0,0-4-.17A.12.12,0,0,1,102.46,87.82Z"/><path class="cls-3" d="M128.06,116a.94.94,0,1,0,0-1.87A.94.94,0,1,0,128.06,116Zm-2.6-5.3c1,0,1.18,1.32.19,1.32S124.47,110.72,125.46,110.72Zm1.74.55a.29.29,0,1,1,0,.58A.29.29,0,1,1,127.2,111.27Zm-1.2-3.75c.7,0,.64.93-.06.93S125.3,107.52,126,107.52Zm-2.35,0a1.15,1.15,0,0,1,.52-.07.58.58,0,0,1,0,1.15,1.13,1.13,0,0,1-.52,0A.54.54,0,0,1,123.65,107.48Zm.63-5.92a.89.89,0,1,1,.06,1.77A.89.89,0,1,1,124.28,101.56Zm1.31,2.54a1.1,1.1,0,0,1,1.15,1.06,1.2,1.2,0,0,1-2.38-.07A1.15,1.15,0,0,1,125.59,104.1Zm-2.66-.09a.61.61,0,0,1,.6.64.67.67,0,0,1-.74.52.61.61,0,0,1-.6-.64A.68.68,0,0,1,122.93,104Zm-.9-2.6a.32.32,0,1,1,0,.64A.32.32,0,1,1,122,101.41Zm2.09-1.7a.41.41,0,1,1,0,.82A.41.41,0,1,1,124.12,99.71Zm.21-2a1,1,0,1,1,0,2A1,1,0,1,1,124.33,97.7Zm-.74-3.85c.43.45,0,.92-.59,1a.55.55,0,0,1-.6-.64C122.42,93.64,123.23,93.48,123.59,93.85Zm-1.93,3.44c.76,0,.67,1-.08,1S120.9,97.29,121.66,97.29Zm8.27,19.54c.68,0,.62.9-.05.9S129.25,116.83,129.93,116.83Zm13.71,23.42a.63.63,0,0,1-.6-.61s0-.07,0-.12a.7.7,0,0,1,.68-.75c.43,0,.82.19.88.59a.66.66,0,0,1,0,.14.53.53,0,0,1-.23.59A1,1,0,0,1,143.64,140.25Zm-2.25-3.35c-1,0-1.21-1.35-.19-1.35S142.4,136.9,141.39,136.9Zm3.44,0a.42.42,0,1,1,0,.84A.42.42,0,1,1,144.83,136.88Zm-6.56,0a.64.64,0,0,1,.62.69.72.72,0,0,1-.8.55.66.66,0,0,1-.63-.7C137.51,137,137.87,136.87,138.27,136.87Zm6.66-.82h0a.6.6,0,0,1-.3-.46.71.71,0,0,1,.08-.37h0a.54.54,0,0,1,.36-.35,2.94,2.94,0,0,1,1.15.78.8.8,0,0,1-.93.51l0,0A.89.89,0,0,1,144.93,136.05Zm-6.78.29c-.71,0-.64-1,.07-1S138.87,136.34,138.15,136.34Zm4.94.63c-.84,0-.71-1.13.13-1.13S143.93,137,143.09,137Zm-2.49-2c-.78,0-.72-.93-.07-1.11a6.06,6.06,0,0,0,.7.19A.63.63,0,0,1,140.6,135Zm3.86,6.16a0,0,0,0,1,0,.09h-.05c-.09,0-.09-.13,0-.11Zm-9.88-9.26a.87.87,0,1,1,.08,1.72A.87.87,0,1,1,134.58,131.91Zm1.34,3.55a.28.28,0,1,1,0,.55A.28.28,0,1,1,135.92,135.46Zm-1.15-4.83c-.66.1-.66-.79,0-.69h0a.34.34,0,0,1,0,.67Zm-2.14,3.76a.31.31,0,1,1,0-.61A.31.31,0,1,1,132.63,134.39ZM143,141.77c-.73,0-.65-1,.07-1S143.7,141.77,143,141.77Zm-.39-4.22c.84,0,.71,1.11-.12,1.11S141.75,137.55,142.58,137.55Zm-8.21-3.45a.36.36,0,1,1,0,.71A.36.36,0,1,1,134.37,134.1Zm8,5.39c.67,0,.62.89,0,.89S141.75,139.49,142.42,139.49ZM137.48,133c.2,0,.4.08.6.14a1,1,0,0,1-.58,1.77A1,1,0,1,1,137.48,133Z"/><path class="cls-4" d="M114.14,118.74c-1.35-9.47-3.27-18.7-3.31-28.28s.34-19.73-.16-29.34c-.42-8.33-6.86-13-13.86-13.07C90.38,48,84.34,52.79,84,61.12c-.45,9.61-.11,19.67-.14,29.34s-1.79,18.81-3,28.28c-.92,7.05-7.69,18.66-4.26,25.26S89,151,96.7,150.93c8.47,0,18.29-.23,22.11-6.93S115.15,125.79,114.14,118.74Z"/><path class="cls-5" d="M96.4,71.83a9.06,9.06,0,0,1-9.05-9,8.51,8.51,0,0,1,.14-1.43A9,9,0,1,1,96.4,71.83Z"/><path class="cls-6" d="M96.4,71.83a9.06,9.06,0,0,1-9.05-9,8.51,8.51,0,0,1,.14-1.43A9,9,0,1,1,96.4,71.83Z"/><path class="cls-7" d="M88.93,62.78a7.47,7.47,0,1,0,7.47-7.47A7.46,7.46,0,0,0,88.93,62.78Z"/><path class="cls-8" d="M89.21,60.87a7.44,7.44,0,0,0,14.62,1.46c0,.15,0,.3,0,.45a7.47,7.47,0,0,1-14.94,0A7.11,7.11,0,0,1,89.21,60.87Z"/><path d="M95.32,64.7a3.73,3.73,0,1,0-1.2-5.12A3.72,3.72,0,0,0,95.32,64.7Z"/><path class="cls-7" d="M96.45,61A1.49,1.49,0,1,0,96,59,1.49,1.49,0,0,0,96.45,61Z"/><path class="cls-9" d="M84.57,112.17a34.05,34.05,0,0,0,25.24.84c-4.21,5.51-2.51,18.91-14.09,17.92-9.24-.79-8-11.81-10.72-17.93Z"/><path class="cls-7" d="M97,125.06A9.62,9.62,0,0,0,96,122a9,9,0,0,0-1.11,3.78c-.16,1.65-.33,3.63-.44,5a10.25,10.25,0,0,0,1.31.21,11.88,11.88,0,0,0,2.32,0C97.61,128.4,97.22,126.1,97,125.06Z"/><path class="cls-7" d="M102.31,122.31a13.13,13.13,0,0,0,1.52-3.94,34.73,34.73,0,0,0,.46-3.91,33.63,33.63,0,0,1-3.84.5A32.84,32.84,0,0,0,102.31,122.31Z"/><path class="cls-7" d="M93.25,114.64a34,34,0,0,1-3.86-.81c.07.76.16,1.58.29,2.45.93,6,1.31,6,1.31,6a45.87,45.87,0,0,0,1.69-4.64A21.12,21.12,0,0,0,93.25,114.64Z"/><path class="cls-10" d="M95.57,129.31A8.73,8.73,0,0,1,88,124.22c1.19,3.5,3.2,6.32,7.71,6.71,6.5.55,8.82-3.42,10.34-8C104.33,126.86,101.55,129.82,95.57,129.31Z"/><path class="cls-2" d="M77.34,151.38c-1.08-1-2.23-1-3.63-1.21a.09.09,0,0,0,0,.17,7.26,7.26,0,0,1,2.71,2,26.49,26.49,0,0,0,1.6,2.41.45.45,0,0,0,.74-.22A3.79,3.79,0,0,0,77.34,151.38Z"/><path class="cls-2" d="M94.41,155.51c0-.07-.1-.08-.14,0a7.91,7.91,0,0,1-2.3,1.66.45.45,0,0,0,.14.81,2,2,0,0,0,1.74-.65,2.05,2.05,0,0,0,.55-.87A2.19,2.19,0,0,0,94.41,155.51Z"/><path class="cls-11" d="M93,147.94a.09.09,0,0,0-.09,0,3.29,3.29,0,0,0-2.07,2.24,5.87,5.87,0,0,0-1.65-2.48.17.17,0,0,0-.24,0c-.53,1.09.09,2.33.28,3.45a17.52,17.52,0,0,1,.06,5c-.1,0-.2.06-.31.11-1.31.53.08,2,1.39,1.41,0,0,0-.07,0-.08s.09,0,.2,0c1.13.32,2-.49,1.43-1.24s.09-3.45.28-4.7C92.39,150.8,93.66,148.79,93,147.94Z"/><path class="cls-11" d="M92,155.83a3.62,3.62,0,0,0-.26-.37,1.17,1.17,0,0,0-1.83-.12c-2.86-.06-5.91.33-8.77,0A2.24,2.24,0,0,0,79.72,154a2.07,2.07,0,0,0,0-.56A1.69,1.69,0,0,0,77.63,152a1.49,1.49,0,0,0-.91.74,1.26,1.26,0,0,0,.25,1.5l.06,0,0,.08-.13.06a1.59,1.59,0,0,0-.57,1.25,3.87,3.87,0,0,0,.54,2.42,3,3,0,0,0,1.92,1.42l.23,0c1.49.28,3.73-.3,4.84-.28a36.68,36.68,0,0,0,4.26-.14,13.07,13.07,0,0,0,3.73.13A1.37,1.37,0,0,0,93,158C93.21,157.07,92.53,156.5,92,155.83Z"/><path class="cls-2" d="M117.35,151.38c1.07-1,2.21-1,3.58-1.21a.09.09,0,0,1,0,.17,7.2,7.2,0,0,0-2.67,2,26.31,26.31,0,0,1-1.58,2.41.44.44,0,0,1-.73-.22A3.8,3.8,0,0,1,117.35,151.38Z"/><path class="cls-2" d="M100.5,155.51c0-.07.1-.08.14,0a7.77,7.77,0,0,0,2.27,1.66.45.45,0,0,1-.14.81,2,2,0,0,1-1.72-.65,2.13,2.13,0,0,1-.54-.87A2,2,0,0,1,100.5,155.51Z"/><path class="cls-11" d="M101.94,147.94a.09.09,0,0,1,.09,0,3.3,3.3,0,0,1,2,2.24,5.79,5.79,0,0,1,1.62-2.48.16.16,0,0,1,.23,0c.53,1.09-.08,2.33-.27,3.45a17.52,17.52,0,0,0,0,5c.1,0,.19.06.29.11,1.3.53-.07,2-1.36,1.41a.13.13,0,0,0,0-.08c0-.05-.09,0-.2,0-1.12.32-1.95-.49-1.42-1.24s-.09-3.45-.27-4.7C102.49,150.8,101.24,148.79,101.94,147.94Z"/><path class="cls-11" d="M102.88,155.83a3.62,3.62,0,0,1,.26-.37,1.14,1.14,0,0,1,1.8-.12c2.83-.06,5.84.33,8.66,0A2.23,2.23,0,0,1,115,154a2.57,2.57,0,0,1,0-.56,1.67,1.67,0,0,1,2-1.51,1.49,1.49,0,0,1,.91.74,1.29,1.29,0,0,1-.25,1.5l-.07,0,0,.08.12.06a1.59,1.59,0,0,1,.57,1.25,3.94,3.94,0,0,1-.54,2.42,2.93,2.93,0,0,1-1.89,1.42l-.23,0c-1.47.28-3.68-.3-4.77-.28a35.77,35.77,0,0,1-4.21-.14,12.74,12.74,0,0,1-3.68.13,1.37,1.37,0,0,1-1.1-1.19C101.68,157.07,102.35,156.5,102.88,155.83Z"/><path class="cls-2" d="M89.24,83.92c-.08.11-.18.07-.21.23s0,0,0,0l.16-.18C89.32,84,89.29,83.84,89.24,83.92Z"/><path class="cls-3" d="M91.58,79.59a.37.37,0,0,0,0,.74A.37.37,0,0,0,91.58,79.59Z"/><path class="cls-3" d="M98.32,78.82c-.54,0-.51.84,0,.84A.42.42,0,0,0,98.32,78.82Z"/><path class="cls-3" d="M100.92,82.23a1.12,1.12,0,0,0-1,1.18,1.13,1.13,0,0,0,1.18,1,1.12,1.12,0,0,0,1-1.18A1.13,1.13,0,0,0,100.92,82.23Z"/><path class="cls-3" d="M95.38,84.9a1.09,1.09,0,0,0-1,1.15,1.12,1.12,0,0,0,1.16,1,1.09,1.09,0,1,0-.13-2.18Z"/><path class="cls-3" d="M98.86,90.85a1,1,0,0,0-.76-.95,1,1,0,0,0-1.22.72,1.37,1.37,0,0,0,0,.19,1,1,0,0,0,.75,1.24,1,1,0,0,0,1.27-1A1,1,0,0,0,98.86,90.85Z"/><path class="cls-3" d="M99.27,85.73c-.65,0-.58,1,.07,1S99.91,85.73,99.27,85.73Z"/><path class="cls-3" d="M96.5,78.82c-.85,0-1,1.32-.17,1.32S97.35,78.82,96.5,78.82Z"/><path class="cls-3" d="M103.32,85.67a.94.94,0,0,0,0,1.88A.94.94,0,0,0,103.32,85.67Z"/><path class="cls-3" d="M102,88.67a.93.93,0,0,0,0,1.85A.93.93,0,0,0,102,88.67Z"/><path class="cls-3" d="M102.23,93.34c-1.32,0-1.26,2.06.07,2.06S103.56,93.34,102.23,93.34Z"/><path class="cls-3" d="M102.09,94.25l0,0-.1,0c-.22.09-.14.38,0,.45l0,0a.27.27,0,0,0,.34-.24.9.9,0,0,1,0-.16C102.49,94.19,102.19,94.05,102.09,94.25Z"/><path class="cls-3" d="M94.1,92.47l0,0c-.45-.15-.63.56-.19.71a.93.93,0,0,0,.23,0A.37.37,0,0,0,94.1,92.47Z"/><path class="cls-3" d="M93.51,96.74h0Z"/><path class="cls-3" d="M93.53,96.74h-.06c.25,0,0,1.21.39.74a.43.43,0,0,0,.12-.32A.45.45,0,0,0,93.53,96.74Z"/><path class="cls-3" d="M98.48,97.39l-.25,0a.68.68,0,0,0-.74.57v0a.66.66,0,0,0,.75.74.55.55,0,0,0,.17-.05h0A.62.62,0,0,0,98.48,97.39Z"/><path class="cls-3" d="M99.07,102.85c-.68-.68-1.38-1-1.93-.39h0l-.07.06a.75.75,0,0,0-.07.12l0,0-.06.1s0,0,0,0a1.2,1.2,0,0,0-.09.56,1.09,1.09,0,0,0,.36.72,1,1,0,0,0,.6.32,1,1,0,0,0,.3,0h0a1.15,1.15,0,0,0,1-1A1.09,1.09,0,0,0,99.07,102.85Z"/><path class="cls-3" d="M93.47,96.37a.68.68,0,0,0-.75.58.67.67,0,0,0,.58.75.69.69,0,0,0,.75-.58A.68.68,0,0,0,93.47,96.37Z"/><path class="cls-3" d="M96.84,94.6a.42.42,0,0,0,0,.83A.42.42,0,0,0,96.84,94.6Z"/><path class="cls-3" d="M100.75,80.58l0,0a.16.16,0,0,0,.25,0l0,0C101.32,80.22,100.45,80.2,100.75,80.58Z"/><path class="cls-3" d="M104.72,79.83a.88.88,0,1,0,.84.91A.88.88,0,0,0,104.72,79.83Z"/><path class="cls-3" d="M101.17,79.62c-.66,0-.58,1,.08,1S101.84,79.62,101.17,79.62Z"/><path class="cls-3" d="M103.14,75.51A.75.75,0,1,0,103,77a.76.76,0,0,0,.81-.68A.75.75,0,0,0,103.14,75.51Z"/><path class="cls-3" d="M98.89,75.59c-.76,0-.63,1.18.12,1.18S99.64,75.59,98.89,75.59Z"/><path class="cls-3" d="M93.67,74.1c-.59,0-.54.92,0,.92S94.27,74.1,93.67,74.1Z"/><path class="cls-3" d="M92.62,82c-1,0-1.14,1.58-.11,1.58S93.65,82,92.62,82Z"/><path class="cls-3" d="M91,85.43l-.08,0a1.18,1.18,0,0,0-1.64.85c-.15.8.73,1.71,1.55,1.29l.31-.16C92,86.94,91.7,85.81,91,85.43Z"/><path class="cls-3" d="M93.46,88.74a.62.62,0,1,0,.69.54A.63.63,0,0,0,93.46,88.74Z"/><path class="cls-3" d="M91.1,91.23a.55.55,0,0,0-.5.6.56.56,0,0,0,.6.5.55.55,0,0,0,.5-.6A.56.56,0,0,0,91.1,91.23Z"/><path class="cls-3" d="M101.3,99.25h0a.7.7,0,0,0-.2.83l0,0a.67.67,0,0,0,1.14.15l0-.07A.69.69,0,0,0,101.3,99.25Z"/><path class="cls-3" d="M100.74,97.08c-.25,0-.27.39,0,.39S101,97.08,100.74,97.08Z"/><path class="cls-3" d="M103.13,90h0c-.62-.09-.61.86-.09.78h0C103.44,90.66,103.61,90,103.13,90Z"/><path class="cls-3" d="M104.32,91.68a1.07,1.07,0,0,0-.21-.13c-.41-.14-.9.17-.72.65a.94.94,0,0,0,.12.22C104,93.09,104.94,92.14,104.32,91.68Z"/><path class="cls-3" d="M105.2,88.63a.35.35,0,0,0-.7,0v.08c0,.46.75.46.71,0C105.21,88.68,105.2,88.65,105.2,88.63Z"/><path class="cls-3" d="M106.52,83.73a.6.6,0,0,0-.09-.15h0a.4.4,0,0,0-.56,0,.47.47,0,0,0-.11.48c.07.41.73.37.8,0A.62.62,0,0,0,106.52,83.73Z"/><path class="cls-3" d="M104.72,96.72a.88.88,0,1,0,.85.91A.89.89,0,0,0,104.72,96.72Z"/><path class="cls-3" d="M102.6,103.86a1.11,1.11,0,0,0-1,1.17,1.13,1.13,0,0,0,1.17,1,1.1,1.1,0,0,0-.14-2.2Z"/><path class="cls-3" d="M103.56,72.62a.33.33,0,0,0,0,.65A.33.33,0,0,0,103.56,72.62Z"/><path class="cls-3" d="M105.63,76.59l-.07,0a.49.49,0,1,0,0,.84l.06,0A.45.45,0,0,0,105.63,76.59Z"/><path class="cls-3" d="M107,73.88a.62.62,0,0,0-.54.68.64.64,0,0,0,.69.54.61.61,0,1,0-.15-1.22Z"/><path class="cls-3" d="M90.41,75.14h0a.71.71,0,0,0-.44-.08.76.76,0,0,0-.6.85l.54.66C90.78,77,91.35,75.37,90.41,75.14Z"/><path class="cls-3" d="M88.71,79.16h0a.34.34,0,0,0-.35.35v0a.35.35,0,0,0,.69,0,.17.17,0,0,0,0-.07A.34.34,0,0,0,88.71,79.16Z"/><path class="cls-3" d="M87.72,70.82a.7.7,0,0,0-.76.59.68.68,0,0,0,.59.75.7.7,0,0,0,.76-.59A.68.68,0,0,0,87.72,70.82Z"/><path class="cls-3" d="M106.2,68.45c-.58,0-.53.91,0,.91S106.79,68.45,106.2,68.45Z"/><path class="cls-3" d="M99.57,106.27a0,0,0,0,0,0,0,.45.45,0,0,0,.86,0v0C100.67,105.53,99.32,105.5,99.57,106.27Z"/><path class="cls-3" d="M95.09,101.15a.57.57,0,0,0-.51.63.59.59,0,0,0,.63.52.58.58,0,0,0-.12-1.15Z"/><path class="cls-3" d="M95.79,106.51a.88.88,0,1,0,.84.9A.87.87,0,0,0,95.79,106.51Z"/><path class="cls-3" d="M98.41,109.25c-.72,0-.61,1.11.11,1.11S99.13,109.25,98.41,109.25Z"/><path class="cls-3" d="M100.55,108.88l0,0a.17.17,0,0,0,0,.19l0,0A.22.22,0,0,0,101,109,.22.22,0,0,0,100.55,108.88Z"/><path class="cls-3" d="M98.28,111.85c-1,0-1.13,1.57-.12,1.57S99.3,111.85,98.28,111.85Z"/><path class="cls-3" d="M100.05,112.65c-.61,0-.55.95.06.95S100.67,112.65,100.05,112.65Z"/><path class="cls-3" d="M92.82,41.07c-1.68-.72-5.63-.84-6.91.87.76-.13,2.07,0,2.06,1-2.45.08-5.65,1.86-6.28,4.41.63-.45,2.18-1,2.76-.34-.47.42-1.15.57-1.62,1a7.4,7.4,0,0,0-1.49,3.1,1.27,1.27,0,0,1,1.1-.41c.1,1.57-.72,3-.42,4.66a9.32,9.32,0,0,0,1.65,3.32,6.5,6.5,0,0,1,2.83-5.14c.07.47.25,1,.69,1.19,0-1.09,1.71-2.07,2.5-2.66.42,2.17,3-.09,3.69-.83A6.92,6.92,0,0,0,95,47.15c.55.32.56,1.11.67,1.68C97.82,46,95.76,42.34,92.82,41.07Z"/><path d="M95.51,49.57a3.9,3.9,0,0,1,.46-.12,6.89,6.89,0,0,1,.72,0,6.6,6.6,0,0,1,.82.09,8.69,8.69,0,0,1,1.86.63,9.8,9.8,0,0,1,1,.49c.33.18.64.38,1,.59a8.51,8.51,0,0,1,.87.69,7.79,7.79,0,0,1,.76.76,7.33,7.33,0,0,1,.63.77,5.74,5.74,0,0,1,.47.75c.14.23.22.47.32.67a3.48,3.48,0,0,1,.19.53l.14.47a.12.12,0,0,1-.08.14.11.11,0,0,1-.13,0h0l-.28-.38a4.23,4.23,0,0,0-.33-.41,6.6,6.6,0,0,0-.46-.49c-.19-.16-.37-.35-.6-.51a6.39,6.39,0,0,0-.71-.5,6.94,6.94,0,0,0-.8-.46c-.29-.13-.57-.27-.86-.39a9.37,9.37,0,0,0-.89-.31c-.29-.1-.59-.15-.87-.22a13.14,13.14,0,0,0-1.53-.21c-.22,0-.41,0-.58-.07a1.84,1.84,0,0,1-.36-.05,3.71,3.71,0,0,1-.47,0h0a1.22,1.22,0,0,1-1-1.42A1.24,1.24,0,0,1,95.51,49.57Z"/></g></g></svg>