<svg xmlns="http://www.w3.org/2000/svg" viewBox="0 0 200 200"><defs><style>.cls-1{isolation:isolate;}.cls-2{fill:#5a62cf;}.cls-3{fill:#5057b8;}.cls-3,.cls-8{opacity:0.4;}.cls-4{fill:#7077db;}.cls-5{fill:#437e39;}.cls-6,.cls-9{mix-blend-mode:multiply;}.cls-6{opacity:0.3;}.cls-7{fill:#64bd55;}.cls-8{mix-blend-mode:screen;}.cls-10,.cls-9{fill:#f0d907;}.cls-11{fill:#fff;}.cls-12{fill:#e8e8e8;}.cls-13{fill:#f2df2c;}</style></defs><g class="cls-1"><g id="Layer_1" data-name="Layer 1"><path class="cls-2" d="M88.37,121.08a83.23,83.23,0,0,0,3.56,16.84c2.74,8,2.44,5.78,2.64,8.54l.2,2.76a1.81,1.81,0,0,1,1.43,0c.71.35,1.12-.69.81-2.67s.46-4.4,1-8.13a33.44,33.44,0,0,0,0-14.23C96.88,118.73,88.37,121.08,88.37,121.08Z"/><path class="cls-3" d="M94.81,130.59a5.29,5.29,0,0,0,.22,1.24l1.13-.24a42.22,42.22,0,0,1,.26,8.41c-.08,1.15-.27,2.28-.41,3.42a19.48,19.48,0,0,0,.16,3.66c0,.48-.07,1.34,0,2.12l.07,0c.71.35,1.12-.69.81-2.67s.46-4.4,1-8.13a33.86,33.86,0,0,0,.4-11.87A4.51,4.51,0,0,0,94.81,130.59Z"/><path class="cls-4" d="M88.9,148.93c-1.71.15-2.71-.84-4.29-.74-2,.12-1.63,1.74-.16,2.22s3.34,0,4.8-.1c1.93-.16,3.84-.4,5.78-.53-.43,1.1-2.24,1.37-3,2.28s-.49,1.72,1.07,1.54,1.06-.86,1.31-1.63,1.35-1.31,1.82-2c.71-1,1.6-2.08-.83-1.91C93.19,148.23,91.07,148.73,88.9,148.93Z"/><path class="cls-2" d="M109.92,121.08a84,84,0,0,1-3.54,16.84c-2.73,8-2.43,5.78-2.63,8.54l-.2,2.76a1.78,1.78,0,0,0-1.42,0c-.71.35-1.12-.69-.81-2.67s-.46-4.4-1-8.13a33.61,33.61,0,0,1,0-14.23C101.45,118.73,109.92,121.08,109.92,121.08Z"/><path class="cls-3" d="M103.51,130.59a5.29,5.29,0,0,1-.22,1.24l-1.13-.24a43,43,0,0,0-.26,8.41c.09,1.15.28,2.28.41,3.42a19.47,19.47,0,0,1-.15,3.66c0,.48.07,1.34,0,2.12l-.06,0c-.71.35-1.12-.69-.81-2.67s-.46-4.4-1-8.13a34.11,34.11,0,0,1-.39-11.87A4.5,4.5,0,0,1,103.51,130.59Z"/><path class="cls-4" d="M109.39,148.93c1.7.15,2.7-.84,4.27-.74,2,.12,1.63,1.74.16,2.22s-3.32,0-4.78-.1c-1.92-.16-3.82-.4-5.75-.53.43,1.1,2.23,1.37,3,2.28s.49,1.72-1.06,1.54-1-.86-1.3-1.63-1.34-1.31-1.81-2c-.71-1-1.6-2.08.82-1.91C105.12,148.23,107.23,148.73,109.39,148.93Z"/><ellipse class="cls-5" cx="99.31" cy="84.35" rx="12.99" ry="17.84"/><path class="cls-5" d="M143.22,106.21c-1.2-11.83-5.62-16.44-17-19.9a38.06,38.06,0,0,1,7.49-.6c-5.81-4.73-13.36-3.83-20.56-4.16,1.07-4.6,11-5.68,15.11-7-2.35-2-5.82-1.77-8.8-2.17,1.56-2,4.52-2.78,6.23-4.44a15.7,15.7,0,0,0-8.82,1.23,21.89,21.89,0,0,1,5.2-8.75c-6.5,1.53-15,8.53-14,15.38L98.31,95.67,89.25,75.78c.92-6.85-6.88-13.85-12.9-15.38a22.21,22.21,0,0,1,4.81,8.75A13.51,13.51,0,0,0,73,67.92c1.58,1.66,4.31,2.39,5.76,4.44-2.76.4-6,.21-8.14,2.17,3.77,1.34,13,2.42,14,7C78,81.88,71,81,65.59,85.71a32.67,32.67,0,0,1,6.93.6C62,89.77,57.89,94.38,56.78,106.21c2.11-4.26,5.71-8.33,11.13-8.65-1,2.18-3.65,3.12-5.14,5.16-2.16,3-2,5.84-1.82,9.34.24-.46.88-1.26,1.19-1.93-2,5.56.75,11,2,14.53.18-3.76.1-8.79,2.5-9.6a19.92,19.92,0,0,0,2.47,16.52c.19-3.21-.38-6.57,1.15-9.53-1.39,5.25,3.56,10.83,7.52,13.79-1.64-1.22-.66-5.12.18-6.48C79,132,80.37,135,82.6,137c-1-2.56.1-5,2.73-5.64-1.2,3.87,2.69,10.6,5.09,13.26-.19-2.72.24-5.64,2.38-7.26a12.31,12.31,0,0,1,1.87,3.07l.15-.13a8.16,8.16,0,0,1,.26.88c.17-.52.33-1.07.49-1.63a10.83,10.83,0,0,0,2.13-5.64,7,7,0,0,1,.61-.82c.19.22.38.44.55.67a13.56,13.56,0,0,0,2.94,7.42c-.29-1.26,2-3.07,1.88-4.17,2.83,1.51,3.38,4.67,3.16,7.61,2.59-2.66,6.8-9.39,5.51-13.26a3.91,3.91,0,0,1,2.94,5.64c2.42-2,3.9-5,5-7.63.91,1.36,2,5.26.19,6.48,4.29-3,9.65-8.54,8.14-13.79,1.65,3,1,6.32,1.24,9.53a18.68,18.68,0,0,0,2.68-16.52,38.46,38.46,0,0,1,4,9.2c3-6.43,2.05-9.71.86-14.13.33.67,1.71,2.08,2,2.54.23-3.5,0-8.16-2.34-11.11-1.62-2-4.82-1.82-5.87-4C137,97.88,140.94,102,143.22,106.21Z"/><path class="cls-5" d="M143.22,106.21c-1.2-11.83-5.62-16.44-17-19.9a38.06,38.06,0,0,1,7.49-.6c-5.81-4.73-13.36-3.83-20.56-4.16,1.07-4.6,11-5.68,15.11-7-2.35-2-5.82-1.77-8.8-2.17,1.56-2,4.52-2.78,6.23-4.44a15.7,15.7,0,0,0-8.82,1.23,21.89,21.89,0,0,1,5.2-8.75c-6.5,1.53-15,8.53-14,15.38L98.31,95.67,89.25,75.78c.92-6.85-6.88-13.85-12.9-15.38a22.21,22.21,0,0,1,4.81,8.75A13.51,13.51,0,0,0,73,67.92c1.58,1.66,4.31,2.39,5.76,4.44-2.76.4-6,.21-8.14,2.17,3.77,1.34,13,2.42,14,7C78,81.88,71,81,65.59,85.71a32.67,32.67,0,0,1,6.93.6C62,89.77,57.89,94.38,56.78,106.21c2.11-4.26,5.71-8.33,11.13-8.65-1,2.18-3.65,3.12-5.14,5.16-2.16,3-2,5.84-1.82,9.34.24-.46.88-1.26,1.19-1.93-2,5.56.75,11,2,14.53.18-3.76.1-8.79,2.5-9.6a19.92,19.92,0,0,0,2.47,16.52c.19-3.21-.38-6.57,1.15-9.53-1.39,5.25,3.56,10.83,7.52,13.79-1.64-1.22-.66-5.12.18-6.48C79,132,80.37,135,82.6,137c-1-2.56.1-5,2.73-5.64-1.2,3.87,2.69,10.6,5.09,13.26-.19-2.72.24-5.64,2.38-7.26a12.31,12.31,0,0,1,1.87,3.07l.15-.13a8.16,8.16,0,0,1,.26.88c.17-.52.33-1.07.49-1.63a10.83,10.83,0,0,0,2.13-5.64c.18-.29.58,1.75.8,1.49.19.22.19-1.87.36-1.64a13.56,13.56,0,0,0,2.94,7.42c-.29-1.26,2-3.07,1.88-4.17,2.83,1.51,3.38,4.67,3.16,7.61,2.59-2.66,6.8-9.39,5.51-13.26a3.91,3.91,0,0,1,2.94,5.64c2.42-2,3.9-5,5-7.63.91,1.36,2,5.26.19,6.48,4.29-3,9.65-8.54,8.14-13.79,1.65,3,1,6.32,1.24,9.53a18.68,18.68,0,0,0,2.68-16.52,38.46,38.46,0,0,1,4,9.2c3-6.43,2.05-9.71.86-14.13.33.67,1.71,2.08,2,2.54.23-3.5,0-8.16-2.34-11.11-1.62-2-4.82-1.82-5.87-4C137,97.88,140.94,102,143.22,106.21Z"/><g class="cls-6"><path class="cls-5" d="M78.32,61.07a13.9,13.9,0,0,0-2-.67A25.4,25.4,0,0,1,78,62.48c.52,0,1-.1,1.54-.17A5.83,5.83,0,0,0,78.32,61.07Z"/><path class="cls-5" d="M113.87,71.5c2.06.09,4.15.09,6.22.14,1.64-1.53,4.09-2.27,5.58-3.72a15.7,15.7,0,0,0-8.82,1.23A10.42,10.42,0,0,1,117.2,68C115.49,68.9,114.22,70,113.87,71.5Z"/><path class="cls-5" d="M120.18,62.31l.23,0c.33-.42.67-.83,1-1.22A6.41,6.41,0,0,0,120.18,62.31Z"/><path class="cls-5" d="M138.18,100.14l0,0,0-.08Z"/><path class="cls-5" d="M80.54,67.19a15.78,15.78,0,0,1,.62,2A13.51,13.51,0,0,0,73,67.92c1.39,1.46,3.69,2.21,5.21,3.78,2.36-.12,4.76-.08,7.13-.2C84.92,69.5,82.94,68.17,80.54,67.19Z"/><path class="cls-5" d="M63.51,92.67c1.41-1.93,3.9-2.88,5-4.83C60.9,91.2,57.74,96,56.78,106.21A17.85,17.85,0,0,1,61.6,100C61.53,97.37,61.78,95,63.51,92.67Z"/><path class="cls-5" d="M138.41,111.45a13.83,13.83,0,0,1,1,1.22,27.09,27.09,0,0,0-.13-5.21A16.56,16.56,0,0,1,138.41,111.45Z"/><path class="cls-5" d="M140.17,101.92a19.65,19.65,0,0,1,3.05,4.29c-.56-5.49-1.81-9.43-4.13-12.42A20.15,20.15,0,0,1,140.17,101.92Z"/><path class="cls-5" d="M130.6,121.53c-.2-3.21.41-6.57-1.24-9.53,1.51,5.25-3.84,10.83-8.13,13.79,1.77-1.22.71-5.12-.19-6.48-1.11,2.65-2.59,5.62-5,7.63a3.92,3.92,0,0,0-3-5.64c1.29,3.87-2.92,10.59-5.51,13.26.22-2.94-.33-6.1-3.16-7.61.11,1.1-2.17,2.91-1.88,4.17a13.63,13.63,0,0,1-2.94-7.42c-.17-.23-.17,1.86-.36,1.64-.22.26-.61-1.78-.8-1.49a10.83,10.83,0,0,1-2.13,5.64c-.16.56-.32,1.1-.48,1.63-.08-.3-.17-.6-.26-.89l-.15.13a13.07,13.07,0,0,0-1.87-3.06c-2.15,1.62-2.57,4.54-2.39,7.26-2.39-2.67-6.28-9.39-5.09-13.26-2.63.64-3.72,3.08-2.73,5.64-2.23-2-3.6-5-4.62-7.63-.83,1.36-1.82,5.26-.17,6.48-4-3-8.92-8.54-7.53-13.79-1.53,3-1,6.32-1.15,9.53A19.92,19.92,0,0,1,67.4,105c-2.4.81-2.32,5.84-2.5,9.6-1-2.76-2.92-6.72-2.72-11-1.53,2.64-1.41,5.29-1.23,8.43.24-.46.88-1.26,1.19-1.93-2,5.56.75,11,2,14.53.18-3.76.1-8.79,2.5-9.6a19.92,19.92,0,0,0,2.47,16.52c.19-3.21-.38-6.57,1.15-9.53-1.39,5.25,3.56,10.83,7.52,13.79-1.64-1.22-.66-5.12.18-6.48C79,132,80.37,135,82.6,137c-1-2.56.1-5,2.73-5.64-1.2,3.87,2.69,10.6,5.09,13.26-.19-2.72.24-5.64,2.38-7.26a12.31,12.31,0,0,1,1.87,3.07l.15-.13a8.16,8.16,0,0,1,.26.88c.17-.52.33-1.07.49-1.63a10.83,10.83,0,0,0,2.13-5.64c.18-.29.58,1.75.8,1.49.19.22.19-1.87.36-1.64a13.56,13.56,0,0,0,2.94,7.42c-.29-1.26,2-3.07,1.88-4.17,2.83,1.51,3.38,4.67,3.16,7.61,2.59-2.66,6.8-9.39,5.51-13.26a3.91,3.91,0,0,1,2.94,5.64c2.42-2,3.9-5,5-7.63.91,1.36,2,5.26.19,6.48,4.29-3,9.65-8.54,8.14-13.79,1.65,3,1,6.32,1.24,9.53A18.56,18.56,0,0,0,133,117,19.05,19.05,0,0,1,130.6,121.53Z"/><path class="cls-5" d="M137.3,114.21a38.46,38.46,0,0,0-4-9.2,18.85,18.85,0,0,1,0,11.25,40.41,40.41,0,0,1,3.31,8c2.44-5.24,2.26-8.4,1.47-11.78C137.82,113,137.58,113.6,137.3,114.21Z"/></g><path class="cls-7" d="M129.62,105c-.82-8.11-3.85-11.26-11.67-13.64a25.91,25.91,0,0,1,5.14-.4,11.89,11.89,0,0,0-5.78-2.44c-5.63,3.4-10.46,7.94-17.6,7.49l-.87,1.77-.89-2-.38-.07a.52.52,0,0,1-.58.43,26.82,26.82,0,0,1-9.87-3,19.64,19.64,0,0,1-4.34-2.43,23.62,23.62,0,0,0-4.7-1A9.46,9.46,0,0,0,76.42,91a22.2,22.2,0,0,1,4.75.4c-7.23,2.38-10,5.53-10.79,13.64,1.44-2.92,3.91-5.71,7.63-5.92-.67,1.49-2.51,2.13-3.53,3.53-1.47,2-1.38,4-1.24,6.4.16-.31.6-.86.81-1.32-1.4,3.81.52,7.55,1.39,10,.12-2.58.06-6,1.71-6.58a13.62,13.62,0,0,0,1.69,11.32c.13-2.2-.26-4.5.79-6.53-1,3.6,2.44,7.42,5.16,9.45-1.13-.84-.46-3.51.12-4.44a13.35,13.35,0,0,0,3.17,5.23,2.72,2.72,0,0,1,1.86-3.87c-.81,2.66,1.85,7.27,3.49,9.09-.12-1.86.17-3.86,1.64-5a8.5,8.5,0,0,1,1.28,2.1l.1-.09q.1.3.18.6c.12-.35.22-.73.33-1.11A7.34,7.34,0,0,0,98.42,124c.13-.19.4,1.2.55,1,.13.14.13-1.29.25-1.13a9.3,9.3,0,0,0,2,5.08c-.19-.86,1.37-2.1,1.29-2.85,1.94,1,2.32,3.2,2.17,5.21,1.77-1.82,4.66-6.43,3.77-9.09a2.69,2.69,0,0,1,2,3.87,13.3,13.3,0,0,0,3.43-5.23c.62.93,1.35,3.6.13,4.44,2.94-2,6.61-5.85,5.58-9.45,1.13,2,.7,4.33.85,6.53a12.79,12.79,0,0,0,1.83-11.32,26.33,26.33,0,0,1,2.75,6.31c2.06-4.41,1.41-6.66.6-9.69.23.46,1.17,1.43,1.35,1.74.15-2.4,0-5.59-1.61-7.62-1.1-1.39-3.3-1.24-4-2.73C125.39,99.33,128.06,102.12,129.62,105Z"/><g class="cls-8"><path class="cls-7" d="M77.15,103.65c-1.65.56-1.59,4-1.71,6.58a25.66,25.66,0,0,1-1.82-6,11.38,11.38,0,0,0-.38,4.81c.16-.31.6-.86.81-1.32-1.4,3.81.52,7.55,1.39,10,.12-2.55.07-6,1.66-6.56A13.88,13.88,0,0,1,77.15,103.65Z"/><path class="cls-7" d="M74.48,95.19a8.21,8.21,0,0,1,1.64-1.53c-3.57,2.27-5.19,5.53-5.74,11.38a12.71,12.71,0,0,1,2.83-3.86C73.09,99,73.09,97.1,74.48,95.19Z"/><path class="cls-7" d="M125.65,100.27c0,.1,0,.2.08.3l.22.15A3.16,3.16,0,0,1,125.65,100.27Z"/><path class="cls-7" d="M73.83,100.67l.12-.08c0-.11.06-.21.1-.32A4,4,0,0,1,73.83,100.67Z"/><path class="cls-7" d="M120.47,115c-.15-2.2.28-4.5-.85-6.53,1,3.6-2.64,7.43-5.58,9.46,1.22-.85.49-3.52-.13-4.45a13.3,13.3,0,0,1-3.43,5.23,2.69,2.69,0,0,0-2-3.87c.89,2.66-2,7.27-3.77,9.09.15-2-.23-4.17-2.17-5.21.08.75-1.48,2-1.29,2.85a9.3,9.3,0,0,1-2-5.08c-.12-.16-.12,1.27-.25,1.13-.15.17-.42-1.22-.55-1A7.34,7.34,0,0,1,97,120.43c-.11.38-.21.76-.33,1.11q-.07-.3-.18-.6l-.1.09a8.5,8.5,0,0,0-1.28-2.1c-1.47,1.11-1.76,3.11-1.64,5-1.64-1.82-4.3-6.43-3.49-9.09a2.72,2.72,0,0,0-1.86,3.87,13.35,13.35,0,0,1-3.17-5.23c-.58.93-1.25,3.6-.12,4.45-2.72-2-6.12-5.86-5.16-9.46-1,2-.66,4.33-.79,6.53a13.56,13.56,0,0,1-1.72-3.76,13.63,13.63,0,0,0,1.72,11.22c.13-2.2-.26-4.5.79-6.53-1,3.6,2.44,7.42,5.16,9.45-1.13-.84-.46-3.51.12-4.44a13.35,13.35,0,0,0,3.17,5.23,2.72,2.72,0,0,1,1.86-3.87c-.81,2.66,1.85,7.27,3.49,9.09-.12-1.86.17-3.86,1.64-5a8.5,8.5,0,0,1,1.28,2.1l.1-.09q.1.3.18.6c.12-.35.22-.73.33-1.11A7.34,7.34,0,0,0,98.42,124c.13-.19.4,1.2.55,1,.13.14.13-1.29.25-1.13a9.3,9.3,0,0,0,2,5.08c-.19-.86,1.37-2.1,1.29-2.85,1.94,1,2.32,3.2,2.17,5.21,1.77-1.82,4.66-6.43,3.77-9.09a2.69,2.69,0,0,1,2,3.87,13.3,13.3,0,0,0,3.43-5.23c.62.93,1.35,3.6.13,4.44,2.94-2,6.61-5.85,5.58-9.45,1.13,2,.7,4.33.85,6.53a12.79,12.79,0,0,0,1.86-11.22A13.19,13.19,0,0,1,120.47,115Z"/><path class="cls-7" d="M125.83,108c.36.49,1,1.19,1.17,1.45a14.87,14.87,0,0,0-.62-5.79A10.3,10.3,0,0,1,125.83,108Z"/><path class="cls-7" d="M125.05,110a26.51,26.51,0,0,0-2.75-6.31,12.93,12.93,0,0,1,0,7.52,26.27,26.27,0,0,1,2.71,6.25,11.37,11.37,0,0,0,.72-9.23A17.87,17.87,0,0,1,125.05,110Z"/><path class="cls-7" d="M127,101.59a13.22,13.22,0,0,1,2.6,3.45c-.42-4.16-1.43-7-3.37-9.14A13.79,13.79,0,0,1,127,101.59Z"/></g><path class="cls-9" d="M106.77,78.91a9.41,9.41,0,0,1-9.39-9.39A8.26,8.26,0,0,1,97.53,68a9.38,9.38,0,0,1,18.64,1.49A9.41,9.41,0,0,1,106.77,78.91Z"/><path class="cls-10" d="M106.77,78.91a9.41,9.41,0,0,1-9.39-9.39A8.26,8.26,0,0,1,97.53,68a9.38,9.38,0,0,1,18.64,1.49A9.41,9.41,0,0,1,106.77,78.91Z"/><path class="cls-11" d="M99,69.52a7.76,7.76,0,1,0,7.75-7.76A7.75,7.75,0,0,0,99,69.52Z"/><path class="cls-12" d="M99.31,67.53a7.72,7.72,0,0,0,15.18,1.52c0,.16,0,.31,0,.47a7.76,7.76,0,1,1-15.22-2Z"/><path d="M100.74,67.53a3.87,3.87,0,1,0,3.87-3.87A3.87,3.87,0,0,0,100.74,67.53Z"/><path class="cls-11" d="M104.61,66.51A1.55,1.55,0,1,0,106.15,65,1.54,1.54,0,0,0,104.61,66.51Z"/><path class="cls-9" d="M88.62,78.91A9.4,9.4,0,0,0,98,69.52,8.26,8.26,0,0,0,97.86,68a9.31,9.31,0,0,0-9.24-7.91,9.4,9.4,0,0,0,0,18.79Z"/><path class="cls-10" d="M88.62,78.91A9.4,9.4,0,0,0,98,69.52,8.26,8.26,0,0,0,97.86,68a9.31,9.31,0,0,0-9.24-7.91,9.4,9.4,0,0,0,0,18.79Z"/><path class="cls-11" d="M96.38,69.52a7.76,7.76,0,1,1-7.76-7.76A7.76,7.76,0,0,1,96.38,69.52Z"/><path class="cls-12" d="M96.09,67.53a7.72,7.72,0,0,1-15.18,1.52c0,.16,0,.31,0,.47a7.76,7.76,0,0,0,15.52,0A7.65,7.65,0,0,0,96.09,67.53Z"/><path d="M94.65,67.53a3.87,3.87,0,1,1-3.86-3.87A3.86,3.86,0,0,1,94.65,67.53Z"/><path class="cls-11" d="M90.79,66.51A1.55,1.55,0,1,1,89.24,65,1.55,1.55,0,0,1,90.79,66.51Z"/><path class="cls-10" d="M96.79,67.09a27.82,27.82,0,0,1-.74-5.89c0-.64,0-1.31,0-2,0-3.06,0-6.53-1.58-8.92a3.05,3.05,0,0,0-2.73-1.72c-1.59.1-3.5,1.75-4.53,3.92l-1.7-.81c1.13-2.36,3.45-4.82,6.11-5,1.21-.08,3,.31,4.43,2.58,1.84,2.85,1.86,6.61,1.88,9.93q0,1,0,2a25.57,25.57,0,0,0,.68,5.5Z"/><path class="cls-10" d="M82.47,52.16c-.34,1.48.45.26.89.06a6.55,6.55,0,0,1,2.54-1,8.62,8.62,0,0,0-1.84,2.94,4.57,4.57,0,0,0,.88-.77c-.34,1.77-1.57,4.64-1,6.26.76-1.54,1-4.09,2.25-5.08-.21,1.48-.72,3.17-.21,4.47.55-1.46.69-3.41,1.63-4.69a21.3,21.3,0,0,0,.51,2.55c.3-.78.62-3.63,1.33-3.67.49,0,1,2.19,1.42,2.61C94,49.9,83.79,46.22,82.47,52.16Z"/><path class="cls-11" d="M85.12,92.56c.11-.55.27-5.58,1.5-7.7s.75-1.31.75-1.31,1.72,1.57,2.31,6.12l.59,4.54Z"/><path class="cls-4" d="M116.9,88.55s-.41.55-1.18,1.47a8.05,8.05,0,0,1-.65.76l-.85.82c-.32.29-.64.62-1,.94l-1.2.91a21.64,21.64,0,0,1-2.88,1.83c-.53.29-1.12.52-1.7.79l-.9.38c-.3.12-.62.21-.94.31-.64.19-1.29.42-2,.57l-2.06.37a6.24,6.24,0,0,1-1,.11l-1.07.07-.54,0h-.57l-1,0c-.33,0-.7,0-1.07-.07s-.73-.06-1.08-.12c-.71-.11-1.41-.22-2.1-.39A22.11,22.11,0,0,1,89.16,96l-.91-.4-.86-.45c-.58-.28-1.1-.63-1.62-.94a21.9,21.9,0,0,1-2.74-2,23.13,23.13,0,0,1-2-2c-.28-.31-.55-.61-.78-.89l-.62-.79c-.38-.46-.62-.89-.81-1.14L78.5,87l0,0,.38.32c.25.2.59.52,1.06.88l.77.62.92.69c.65.48,1.42,1,2.26,1.52s1.8,1,2.8,1.53A28.58,28.58,0,0,0,90,93.85a25.8,25.8,0,0,0,3.61.94c.62.13,1.25.2,1.89.28.32.05.62.06.93.09a9.71,9.71,0,0,0,1,.06l1,0,.92,0,1,0a7.45,7.45,0,0,0,1-.07l1.86-.26c.62-.1,1.21-.28,1.8-.41.29-.07.59-.12.88-.2l.84-.29c.55-.19,1.11-.33,1.63-.55l1.51-.64a11.14,11.14,0,0,0,1.39-.66l1.27-.66c.39-.22.75-.46,1.1-.67a18.47,18.47,0,0,0,1.78-1.16c1-.7,1.55-1.07,1.55-1.07Z"/><path class="cls-13" d="M87.2,100.52s0,0,.06,0c.24,0,.61.07.49.63,0,0,0,.06,0,.07a3.28,3.28,0,0,0-.48.43,4,4,0,0,0-.42.5,2.8,2.8,0,0,0-.3.46,5.79,5.79,0,0,0-.31.67l-.08.18a3,3,0,0,0-.19.48c0,.2-.15.43-.19.66s-.1.45-.16.7c-.14,1.53-.35,1-.47,0a6.09,6.09,0,0,1,0-1.17,5.8,5.8,0,0,1,.17-.85c.07-.23.11-.38.11-.38.08-.23.22-.44.32-.66a3.25,3.25,0,0,1,.36-.55,3.07,3.07,0,0,1,.49-.59A3.59,3.59,0,0,1,87.2,100.52Z"/><path class="cls-13" d="M90.43,104.51a.09.09,0,0,1,0-.05c.18-.15.55-.29.77.25,0,0,0,.06,0,.08a12.39,12.39,0,0,0-.38,1.32,15.51,15.51,0,0,0-.27,1.66c0,.25,0,.51,0,.76l0,.21a3.89,3.89,0,0,0,0,.53,11.21,11.21,0,0,0,0,1.42c.23,1.5-.11,1-.47.07a6.43,6.43,0,0,1-.24-1.14,9.65,9.65,0,0,1-.09-1.23c0-.24,0-.47,0-.7a15.15,15.15,0,0,1,.28-1.77C90.15,105.45,90.27,105,90.43,104.51Z"/><path class="cls-13" d="M94.44,107.22a.06.06,0,0,1,0,0c.12-.2.42-.47.81,0,0,0,0,0,0,.07,0,.46,0,.93.07,1.39l.09.85c0,.26.05.52.09.78,0,0,0,.29.06.76s0,.88.08,1.45c.09,1.57-.2,1-.47.06a8.53,8.53,0,0,1-.28-1.09l-.26-1.18-.07-.69-.1-.86C94.48,108.19,94.47,107.71,94.44,107.22Z"/><path class="cls-13" d="M101.34,103.8s0,0,0,0a1.4,1.4,0,0,1,.12-.34c.07-.12.2-.26.54-.11l.08,0a5.1,5.1,0,0,1,.49,1.49,9,9,0,0,1,.17,1c0,.27.06.54.07.81,0,0,0,.34,0,.79a9.59,9.59,0,0,1-.21,1.48c-.18.78-.35,1-.4.89a3.29,3.29,0,0,1-.07-1s0-.52,0-1.1-.11-1.15-.11-1.15l-.06-.66c0-.33-.09-.65-.16-1A4.3,4.3,0,0,0,101.34,103.8Z"/><path class="cls-13" d="M104.23,102.53s0,0,0,0c0-.19-.09-.66.51-.62a.16.16,0,0,1,.08,0,2.92,2.92,0,0,1,.54.57l.24.32.18.35v0a4.22,4.22,0,0,1,.31.81,1.45,1.45,0,0,1,0,.23c0,.14,0,.34.07.58a7.52,7.52,0,0,1,0,1.5c-.16,1.57-.35.94-.47,0,0,0-.06-.52-.17-1.08,0-.28-.14-.55-.18-.75a2.76,2.76,0,0,0-.12-.33,3.09,3.09,0,0,0-.23-.57h0l-.14-.28-.19-.25A2.35,2.35,0,0,0,104.23,102.53Z"/><path class="cls-13" d="M112.11,104.24s0,0,0,0c0-.23.16-.62.7-.4a.11.11,0,0,1,.06,0c.23.42.46.84.68,1.26l.43.87c.11.25.25.48.34.74l.23.75.21.71c0,.23.07.48.11.75.22,1.57-.13,1-.47.09a1.33,1.33,0,0,1-.11-.29,4.29,4.29,0,0,0-.3-.72l-.5-1c-.08-.21-.19-.41-.29-.61l-.41-.84C112.57,105.07,112.33,104.66,112.11,104.24Z"/><path class="cls-13" d="M109.4,108.06a.07.07,0,0,1,0-.06c.09-.22.36-.51.79-.12l.05.06a10.75,10.75,0,0,0,.27,1.35l.13.52.21.76.13.77a9.21,9.21,0,0,1,.11,1.5c-.08,1.6-.3.93-.48,0,0,0-.09-.5-.27-1s-.35-1.12-.35-1.12l-.18-.66-.14-.53C109.58,109,109.47,108.55,109.4,108.06Z"/><path class="cls-13" d="M111.8,96.64a.07.07,0,0,1,0,0c-.09-.2-.21-.63.37-.72h.08c.22.13.44.25.65.39l.59.47a6.84,6.84,0,0,1,1.15,1.31,4.82,4.82,0,0,1,.43.73l.09.21a3,3,0,0,1,.18.55,6.93,6.93,0,0,1,.26,1.5c0,1.6-.25,1-.47,0,0,.05-.15-.49-.36-1-.12-.26-.22-.52-.33-.7l-.18-.3a3.34,3.34,0,0,0-.33-.55,6.06,6.06,0,0,0-1-1.14l-.52-.41C112.19,96.86,112,96.76,111.8,96.64Z"/><path class="cls-13" d="M117,98.77s0,0,0-.06c0-.21,0-.64.56-.58l.07,0c.35.34.67.71,1,1.08s.55.7.77,1.08.29.47.41.73l.08.21a3.8,3.8,0,0,1,.19.55,6.5,6.5,0,0,1,.18.73c0,.26.07.52.09.76,0,1.61-.25,1-.48.06,0,0-.13-.5-.36-1a4.58,4.58,0,0,0-.34-.7l-.17-.31a6.32,6.32,0,0,0-.33-.56,9.91,9.91,0,0,0-.71-1A12.77,12.77,0,0,0,117,98.77Z"/><path class="cls-13" d="M82.79,97.29s0,0,.06,0c.23,0,.62.13.43.68a.17.17,0,0,1,0,.06c-.4.24-.77.52-1.14.79a10.3,10.3,0,0,0-.94.81,6.76,6.76,0,0,0-.52.55l-.14.15a2.88,2.88,0,0,0-.36.39,12.69,12.69,0,0,0-.86,1.12c-.73,1.34-.71.75-.41-.23a7.58,7.58,0,0,1,.5-1,8.06,8.06,0,0,1,.7-1,5.9,5.9,0,0,1,.49-.51,11.77,11.77,0,0,1,1-.88C82,97.83,82.37,97.54,82.79,97.29Z"/><path class="cls-13" d="M82,104.4s0,0,0,0c.21-.11.59-.17.69.42a.2.2,0,0,1,0,.07c-.21.4-.47.79-.65,1.2l-.13.33-.28.71a1.87,1.87,0,0,0-.09.19l-.16.51a8.24,8.24,0,0,0-.39,1.36c-.3,1.51-.45.93-.47-.08a9.21,9.21,0,0,1,.34-2.36l.26-.66.14-.36C81.47,105.24,81.74,104.83,82,104.4Z"/><path class="cls-13" d="M86.16,111.09l0,0a.73.73,0,0,1,.79.16l0,0s-.06.25-.11.6a9.17,9.17,0,0,0,0,2.56l.1.57a2.62,2.62,0,0,0,0,.35c0,.21,0,.48.05.7.09.75-.18.57-.45.15a5.34,5.34,0,0,1-.48-1.08,8.9,8.9,0,0,1-.18-2,10.28,10.28,0,0,1,.12-1.38C86.11,111.36,86.16,111.11,86.16,111.09Z"/><path class="cls-13" d="M78.92,93.84a.08.08,0,0,1,.07,0c.23,0,.56.26.26.76,0,0,0,.05,0,.06a7.56,7.56,0,0,0-1.25.53c-.21.12-.43.22-.64.36s-.43.27-.63.42l-.61.41-.56.43-.55.46c-1.06,1.1-.88.53-.34-.32a5.46,5.46,0,0,1,.74-.89,6.53,6.53,0,0,1,.61-.59l.3-.26.59-.39c.22-.15.46-.26.69-.4A10.22,10.22,0,0,1,78.92,93.84Z"/><path class="cls-13" d="M103.36,112.52s0,0,0,0a.73.73,0,0,1,.73-.33l.05,0s.09.25.23.6c.07.17.14.37.23.59s.13.46.19.69.13.48.2.7.07.44.1.62l.1.6a2.13,2.13,0,0,1,0,.38c0,.22-.07.49-.12.71-.14.75-.35.44-.48,0,0,0-.2-1-.24-1s0-.22-.09-.56c0-.16,0-.36-.1-.57s-.12-.42-.18-.64-.12-.44-.18-.64-.16-.39-.22-.55C103.45,112.75,103.36,112.53,103.36,112.52Z"/><path class="cls-13" d="M92,116.12a.13.13,0,0,1,0-.05c.17-.17.53-.31.78.22,0,0,0,.06,0,.07l-.16.66a2.54,2.54,0,0,0-.11.67v.08l-.08.76,0,.21c0,.12,0,.3,0,.53a13.43,13.43,0,0,0,0,1.43c0,1.54-.23,1-.48,0a11.52,11.52,0,0,1-.26-2.36l.07-.71v-.08a3,3,0,0,1,.13-.73Z"/><path class="cls-13" d="M98.18,111.4s0,0,0,0a1,1,0,0,1,.8-.12l0,0s.1.75.19,1.47a8,8,0,0,1,.1,1l0,.46a4.15,4.15,0,0,1-.17.81c-.15.57-.35.34-.47,0a7.73,7.73,0,0,1-.21-.8s0-.17,0-.43,0-.61-.09-1C98.28,112.13,98.18,111.42,98.18,111.4Z"/><path class="cls-13" d="M107.69,99.69s0,0,0,0a.8.8,0,0,1,.45-.67h0s.23.16.52.42l.43.47c.14.19.28.4.41.6a6.14,6.14,0,0,1,.71,1.8v.11a1.2,1.2,0,0,1,0,.27,2.5,2.5,0,0,1-.11.71c-.21.72-.38.37-.47,0a6.44,6.44,0,0,0-.28-.93,5.52,5.52,0,0,0-.6-1.52l-.35-.49-.35-.39C107.86,99.82,107.69,99.7,107.69,99.69Z"/><path class="cls-13" d="M94,99s0,0,.06,0c.23-.08.61,0,.6.53a.19.19,0,0,1,0,.07,4.08,4.08,0,0,0-.72,1.08l-.09.18a4.3,4.3,0,0,0-.23.69,1.3,1.3,0,0,0-.06.2c0,.12-.08.29-.13.5-.09.42-.18,1-.25,1.41-.19,1.55-.38.94-.47,0a7.45,7.45,0,0,1,0-1.14c0-.3,0-.62.07-.86a2.55,2.55,0,0,1,.08-.39,3.58,3.58,0,0,1,.23-.7l.1-.22A4.87,4.87,0,0,1,94,99Z"/><path class="cls-13" d="M98.25,100.17a.16.16,0,0,1,.06,0c.1-.08.33-.14.43-.06s.17.27.26.47c0,0,0,0,0,.06a3.71,3.71,0,0,0-.29,1.22c0,.16,0,.32,0,.48s0,.52,0,.78c0,0,0,.28-.06.75s-.07.88-.11,1.45c-.07,1.55-.3,1-.47,0a8.79,8.79,0,0,1-.14-1.13c-.06-.59-.07-1.21-.07-1.21,0-.23,0-.46,0-.7s0-.34,0-.52A4.48,4.48,0,0,1,98.25,100.17Z"/><path class="cls-13" d="M116.55,108.25s0,0,0,0a.75.75,0,0,1,.77-.23l0,0,.17.6.17.6c0,.22.1.46.15.7l.15.7c0,.23,0,.44.07.62,0,.37.06.62.06.62a4.09,4.09,0,0,1-.24,1.08c-.21.73-.38.39-.47-.05,0,0-.1-1-.15-1s0-.22-.06-.55c0-.17,0-.37-.06-.57s-.1-.43-.14-.66c-.09-.44-.21-.89-.31-1.23S116.55,108.27,116.55,108.25Z"/><path class="cls-10" d="M94.81,81.13c-.79,0-.64,1.22.15,1.22S95.6,81.13,94.81,81.13Z"/><path class="cls-10" d="M97.51,78.12c-1.56,0-1.27,2.41.28,2.41S99.06,78.12,97.51,78.12Z"/><path class="cls-10" d="M98.07,81.37c-.92,0-1.08,1.43-.15,1.43S99,81.37,98.07,81.37Z"/><path class="cls-10" d="M95.71,84.51c-.66,0-.58,1,.08,1S96.37,84.51,95.71,84.51Z"/><path class="cls-10" d="M100.62,83.64c-1.56,0-1.27,2.42.27,2.42S102.17,83.64,100.62,83.64Z"/><path class="cls-10" d="M103.09,80.58a.65.65,0,0,0-.56.73.67.67,0,0,0,.73.55.64.64,0,0,0,.56-.72A.67.67,0,0,0,103.09,80.58Z"/><path class="cls-10" d="M107,82.17a2.64,2.64,0,0,0,.07.3.59.59,0,0,0,.77.34h0a.57.57,0,0,0,.35-.46h0l0-.17C108.46,81.25,106.87,81.26,107,82.17Z"/><path class="cls-10" d="M105.78,83.59a.92.92,0,0,0,0,1.83A.92.92,0,0,0,105.78,83.59Z"/><path class="cls-10" d="M91.76,80.29a1,1,0,0,0-1-.23l-.34.15a1,1,0,0,0,0,1.68l.14.07a1,1,0,0,0,1.19-1.67Z"/><path class="cls-10" d="M91.29,84.54a.51.51,0,0,0-.21-.29.33.33,0,0,0-.4,0l-.15.25C90.36,85.17,91.47,85.18,91.29,84.54Z"/><path class="cls-10" d="M83.81,83.56c-.55,0-.52.86,0,.86S84.36,83.56,83.81,83.56Z"/><path class="cls-10" d="M87.06,81.19c-.71,0-.61,1.1.1,1.1S87.77,81.19,87.06,81.19Z"/><path class="cls-10" d="M87.19,81.23c-.88,0-1,1.37-.16,1.37S88.08,81.23,87.19,81.23Z"/><path class="cls-10" d="M95.64,87.43v0C95.63,87.59,95.62,87.66,95.64,87.43Z"/><path class="cls-10" d="M95.65,87.17a1,1,0,0,0-.19-.4,1,1,0,0,0-.7-.31.81.81,0,0,0-.86.76.77.77,0,0,0,.55.79.79.79,0,0,0,1.19-.55A1.59,1.59,0,0,0,95.65,87.17Z"/><path class="cls-10" d="M104.52,86.88a1,1,0,0,0-.6-.25.81.81,0,1,0,.11,1.6.84.84,0,0,0,.52-.24A.71.71,0,0,0,104.52,86.88Z"/><path class="cls-10" d="M108.82,86c-.72,0-.61,1.11.11,1.11S109.54,86,108.82,86Z"/><path class="cls-10" d="M112.84,84.6v0a.58.58,0,0,0-.13-.3l0,0,0,0a.55.55,0,0,0-.42-.22v0a.68.68,0,0,0-.64.25.71.71,0,0,0,.13,1,.7.7,0,0,0,.52.13l.13,0,.07,0c.12-.05.25-.12.25-.2l0,0a.66.66,0,0,0,.16-.35A.43.43,0,0,0,112.84,84.6Z"/><path class="cls-10" d="M110.6,83.29a.43.43,0,0,0-.24-.1c-.71-.1-.71,1-.08.91a.55.55,0,0,0,.47-.26A.4.4,0,0,0,110.6,83.29Z"/><path class="cls-10" d="M111.08,80c-.7,0-.61,1.08.09,1.08S111.77,80,111.08,80Z"/><path d="M104.29,54.57a3.9,3.9,0,0,1,.46-.12l.72,0c.25,0,.53,0,.82.09a9.36,9.36,0,0,1,1.87.63c.32.16.65.3,1,.49a10.61,10.61,0,0,1,.94.6,8.26,8.26,0,0,1,.88.68c.26.26.53.49.75.76a7.11,7.11,0,0,1,.63.77,5.74,5.74,0,0,1,.47.75,5,5,0,0,1,.32.67,3.48,3.48,0,0,1,.19.53l.14.47a.12.12,0,0,1-.08.15.13.13,0,0,1-.13,0h0l-.28-.37a2.69,2.69,0,0,0-.33-.41,5.08,5.08,0,0,0-.46-.49c-.19-.16-.37-.35-.6-.52a6.39,6.39,0,0,0-.71-.5,8.8,8.8,0,0,0-.8-.46c-.29-.13-.57-.27-.86-.38s-.59-.23-.88-.32-.6-.15-.87-.22a15.49,15.49,0,0,0-1.54-.21c-.21,0-.4,0-.58-.06a1.7,1.7,0,0,1-.35-.06,3.77,3.77,0,0,1-.48,0h0a1.22,1.22,0,0,1-.19-2.33Z"/></g></g></svg>