<svg xmlns="http://www.w3.org/2000/svg" viewBox="0 0 200 200"><defs><style>.cls-1{isolation:isolate;}.cls-2{fill:#f0be07;}.cls-3,.cls-4{fill:#5057b8;}.cls-4{mix-blend-mode:screen;opacity:0.2;}.cls-5,.cls-6{fill:#f0d907;}.cls-5{mix-blend-mode:multiply;}.cls-7{fill:#fff;}.cls-8{fill:#e8e8e8;}.cls-9{fill:#315400;}.cls-10{fill:#89c23a;}.cls-11{fill:#f2c82c;}</style></defs><g class="cls-1"><g id="Layer_1" data-name="Layer 1"><path class="cls-2" d="M76.45,143.71a23.79,23.79,0,0,0,.24-6.73.13.13,0,0,0-.22,0c-1.06,1.95-1.08,4.31-1.45,6.48l-.65-.3a6.83,6.83,0,0,0-1.45-.38s-.08,0-.14-.05c-.27-.06-.54-.11-.82-.15a.93.93,0,0,0-1,.35h0l-.09.15a.08.08,0,0,0,0,0,1,1,0,0,0,.67,1.56l.82.14a1.09,1.09,0,0,0,.55-.06,3.08,3.08,0,0,1,1.26.29,3.45,3.45,0,0,0,1.72.37.77.77,0,0,0,.82-.71A1.34,1.34,0,0,0,76.45,143.71Z"/><path class="cls-2" d="M85.6,145.52a24,24,0,0,0-.48-6.72c0-.09-.18-.1-.22,0-.85,2.05-.61,4.4-.76,6.6l-.67-.23a6.94,6.94,0,0,0-1.48-.22l-.15-.05-.83,0a.92.92,0,0,0-1,.46h0a1.11,1.11,0,0,0-.07.16l0,0a1,1,0,0,0,.83,1.47l.83.05a1.09,1.09,0,0,0,.55-.11,3.09,3.09,0,0,1,1.28.15,3.27,3.27,0,0,0,1.75.19.78.78,0,0,0,.74-.79A1.38,1.38,0,0,0,85.6,145.52Z"/><path class="cls-2" d="M94.75,145.88a24,24,0,0,0-1.43-6.58.12.12,0,0,0-.22,0c-.55,2.15,0,4.45.19,6.64l-.7-.13a6.81,6.81,0,0,0-1.5,0l-.15,0-.83.06a.94.94,0,0,0-.93.6h0a1.09,1.09,0,0,0,0,.17.07.07,0,0,0,0,.05,1,1,0,0,0,1,1.34L91,148a1.12,1.12,0,0,0,.53-.19,2.83,2.83,0,0,1,1.29,0,3.5,3.5,0,0,0,1.76-.06.79.79,0,0,0,.61-.9A1.43,1.43,0,0,0,94.75,145.88Z"/><path class="cls-2" d="M104.11,145.83a24.09,24.09,0,0,0-1.55-6.55.12.12,0,0,0-.22,0c-.51,2.16.1,4.44.3,6.63l-.69-.12a7.56,7.56,0,0,0-1.5,0l-.15,0-.84.08a1,1,0,0,0-.92.61h0a1.09,1.09,0,0,0-.05.17.09.09,0,0,0,0,0,1,1,0,0,0,1,1.32l.83-.08a1.05,1.05,0,0,0,.52-.2,3,3,0,0,1,1.29-.05,3.5,3.5,0,0,0,1.76-.09.78.78,0,0,0,.6-.91A1.41,1.41,0,0,0,104.11,145.83Z"/><path class="cls-2" d="M113.31,143.18a24,24,0,0,0-3.18-5.94.12.12,0,0,0-.21.08c.06,2.22,1.24,4.27,2,6.33l-.71.07a6.61,6.61,0,0,0-1.44.4.68.68,0,0,0-.15,0l-.79.29a.94.94,0,0,0-.73.83h0a1.09,1.09,0,0,0,0,.18v0a1,1,0,0,0,1.36,1l.79-.29a1.2,1.2,0,0,0,.45-.33,3,3,0,0,1,1.23-.38,3.44,3.44,0,0,0,1.68-.54.79.79,0,0,0,.34-1A1.35,1.35,0,0,0,113.31,143.18Z"/><path class="cls-2" d="M121.63,139.39a24.15,24.15,0,0,0-4.14-5.31.12.12,0,0,0-.19.11c.44,2.18,1.94,4,3,5.9l-.69.19a6.59,6.59,0,0,0-1.35.64l-.15,0-.72.42a.93.93,0,0,0-.58.94h0a1.1,1.1,0,0,0,0,.18s0,0,0,0a1,1,0,0,0,1.51.77l.72-.42a1.06,1.06,0,0,0,.39-.4,3.15,3.15,0,0,1,1.15-.59,3.39,3.39,0,0,0,1.56-.81.77.77,0,0,0,.17-1.07A1.42,1.42,0,0,0,121.63,139.39Z"/><path class="cls-3" d="M88,93c-1.06-10.9-2.89-17.65-3.8-18.33a.44.44,0,0,0,.26,0L84.28,73c.94-.09,2,.59,3.29,6.13a109,109,0,0,1,2.1,13.68Z"/><path class="cls-3" d="M95.66,91.21H94A127.1,127.1,0,0,1,94.56,78c.57-5.17,1.27-6.18,2.29-6.18v1.7a.5.5,0,0,0,.38-.14C96.57,74.18,95.66,80.82,95.66,91.21Z"/><path class="cls-3" d="M102.23,93.34h-1.7c0-9.94,5.27-18,11.75-18V77C106.74,77,102.23,84.34,102.23,93.34Z"/><path class="cls-3" d="M143.14,93.24l-.58-.28c-.19-.09-.42-.2-.69-.3s-.58-.24-1-.34a15,15,0,0,0-2.66-.58,13.28,13.28,0,0,0-3.48.09,9.5,9.5,0,0,0-3.72,1.44,8.12,8.12,0,0,0-1.61,1.39c-.25.26-.45.58-.68.86l0,.06c.06-.1,0,0,0,0v0l0,0-.07.13-.16.27-.32.55-.15.27-.11.25-.21.52a6.64,6.64,0,0,0-.37,1.09l-.18.57-.12.6a12.23,12.23,0,0,0-.21,1.21,36.15,36.15,0,0,0-.24,5.15c0,1.77.07,3.58,0,5.42a24.5,24.5,0,0,1-.78,5.53l-.47,1.35-.06.16-.09.21-.12.28-.25.56c-.19.39-.45.84-.67,1.25s-.5.76-.76,1.13a11.79,11.79,0,0,1-3.91,3.46,11.53,11.53,0,0,1-4.35,1.33,14.18,14.18,0,0,1-3.42-.12,14.54,14.54,0,0,1-2.09-.48l-.72-.21,1.8-4.77.5.19a11.09,11.09,0,0,0,1.42.45,8.91,8.91,0,0,0,2.2.26,6.93,6.93,0,0,0,2.67-.58,7.72,7.72,0,0,0,2.7-2l.6-.77c.18-.28.35-.5.54-.82l.29-.54.14-.27,0-.07,0,0v0s0-.07,0,0l0-.12c.14-.33.28-.66.43-1a20.46,20.46,0,0,0,1-4.63c.2-1.68.29-3.45.41-5.26a38.32,38.32,0,0,1,.69-5.49,12.87,12.87,0,0,1,.34-1.36l.2-.67.25-.66a11.08,11.08,0,0,1,.56-1.3l.34-.64.17-.31.17-.26.36-.52.18-.26.09-.12.08-.12,0-.06c.31-.34.59-.7.92-1a10.08,10.08,0,0,1,2.08-1.54,11,11,0,0,1,4.43-1.33,14.15,14.15,0,0,1,3.82.19,16.41,16.41,0,0,1,2.8.83,10.56,10.56,0,0,1,1,.45,6.14,6.14,0,0,1,.7.37l.55.32Z"/><path class="cls-3" d="M124.94,128.26c0,20.67-60.6,20.67-60.6,0S79.24,90.9,94.09,90.9,124.94,107.6,124.94,128.26Z"/><path class="cls-4" d="M94.86,96.69c12.84,0,26.53,12.49,30,29.23-1.15-19.57-16.49-35-30.77-35-14.85,0-29.75,16.7-29.75,37.36a9.82,9.82,0,0,0,.81,3.92C66,112.39,80.46,96.69,94.86,96.69Z"/><path class="cls-3" d="M81.93,102.13h-1.7c0-10.25-5.43-18.58-12.1-18.58V81.84C75.74,81.84,81.93,91,81.93,102.13Z"/><path class="cls-3" d="M81.93,102.13h-1.7c0-10.25-5.43-18.58-12.1-18.58V81.84C75.74,81.84,81.93,91,81.93,102.13Z"/><path class="cls-3" d="M107.68,101.71H106c0-9.58,7.14-17.37,15.91-17.37V86C114.06,86,107.68,93.07,107.68,101.71Z"/><path class="cls-5" d="M66.77,88.17a7.72,7.72,0,0,1-7.71-7.71,7.06,7.06,0,0,1,.12-1.22,7.7,7.7,0,1,1,7.59,8.93Z"/><path class="cls-6" d="M66.77,88.17a7.72,7.72,0,0,1-7.71-7.71,7.06,7.06,0,0,1,.12-1.22,7.7,7.7,0,1,1,7.59,8.93Z"/><path class="cls-7" d="M60.4,80.46a6.37,6.37,0,1,0,6.37-6.37A6.37,6.37,0,0,0,60.4,80.46Z"/><path class="cls-8" d="M60.64,78.84A6.34,6.34,0,0,0,73.1,80.08c0,.13,0,.25,0,.38a6.37,6.37,0,0,1-12.74,0A6.22,6.22,0,0,1,60.64,78.84Z"/><path d="M64.39,81.65a3.18,3.18,0,1,0-.26-4.49A3.19,3.19,0,0,0,64.39,81.65Z"/><path class="cls-7" d="M65.87,78.72a1.27,1.27,0,1,0-.1-1.8A1.28,1.28,0,0,0,65.87,78.72Z"/><path class="cls-5" d="M95.75,79.18a7.54,7.54,0,0,1-7.54-7.53,6.76,6.76,0,0,1,.12-1.2,7.52,7.52,0,1,1,7.42,8.73Z"/><path class="cls-6" d="M95.75,79.18a7.54,7.54,0,0,1-7.54-7.53,6.76,6.76,0,0,1,.12-1.2,7.52,7.52,0,1,1,7.42,8.73Z"/><path class="cls-7" d="M89.52,71.65a6.23,6.23,0,1,0,6.23-6.23A6.22,6.22,0,0,0,89.52,71.65Z"/><path class="cls-8" d="M89.75,70.06a6.2,6.2,0,0,0,12.19,1.21c0,.13,0,.25,0,.38a6.23,6.23,0,0,1-12.45,0A6.36,6.36,0,0,1,89.75,70.06Z"/><path d="M93.43,72.8a3.1,3.1,0,1,0-.26-4.38A3.1,3.1,0,0,0,93.43,72.8Z"/><path class="cls-7" d="M94.87,69.94a1.24,1.24,0,1,0-.1-1.75A1.26,1.26,0,0,0,94.87,69.94Z"/><path class="cls-5" d="M121.88,91.23a7.55,7.55,0,0,1-7.54-7.54,6.57,6.57,0,0,1,.12-1.19,7.53,7.53,0,1,1,7.42,8.73Z"/><path class="cls-6" d="M121.88,91.23a7.55,7.55,0,0,1-7.54-7.54,6.57,6.57,0,0,1,.12-1.19,7.53,7.53,0,1,1,7.42,8.73Z"/><path class="cls-7" d="M115.65,83.69a6.23,6.23,0,1,0,6.23-6.23A6.23,6.23,0,0,0,115.65,83.69Z"/><path class="cls-8" d="M115.89,82.1a6.2,6.2,0,0,0,12.18,1.22c0,.12,0,.24,0,.37a6.23,6.23,0,0,1-12.46,0A6,6,0,0,1,115.89,82.1Z"/><path d="M119.56,84.85a3.11,3.11,0,1,0-.26-4.39A3.1,3.1,0,0,0,119.56,84.85Z"/><path class="cls-7" d="M121,82a1.25,1.25,0,0,0,1.76-.11A1.24,1.24,0,1,0,121,82Z"/><path class="cls-5" d="M83.33,84.26a9.53,9.53,0,0,1-9.51-9.51A8.47,8.47,0,0,1,74,73.24a9.43,9.43,0,0,1,9.36-8,9.52,9.52,0,1,1,0,19Z"/><path class="cls-6" d="M83.33,84.26a9.53,9.53,0,0,1-9.51-9.51A8.47,8.47,0,0,1,74,73.24a9.43,9.43,0,0,1,9.36-8,9.52,9.52,0,1,1,0,19Z"/><path class="cls-7" d="M75.47,74.75a7.87,7.87,0,1,0,7.86-7.87A7.86,7.86,0,0,0,75.47,74.75Z"/><path class="cls-8" d="M75.77,72.74a7.82,7.82,0,0,0,15.38,1.53c0,.16,0,.31,0,.48a7.87,7.87,0,0,1-15.73,0A7.4,7.4,0,0,1,75.77,72.74Z"/><path d="M80.41,76.2a3.92,3.92,0,1,0-.33-5.53A3.92,3.92,0,0,0,80.41,76.2Z"/><path class="cls-7" d="M82.23,72.59a1.57,1.57,0,1,0-.13-2.21A1.57,1.57,0,0,0,82.23,72.59Z"/><path class="cls-5" d="M109,84.89a9.64,9.64,0,0,1-9.62-9.62,8.77,8.77,0,0,1,.15-1.53A9.61,9.61,0,1,1,109,84.89Z"/><path class="cls-6" d="M109,84.89a9.64,9.64,0,0,1-9.62-9.62,8.77,8.77,0,0,1,.15-1.53A9.61,9.61,0,1,1,109,84.89Z"/><path class="cls-7" d="M101,75.27a8,8,0,1,0,7.95-8A7.94,7.94,0,0,0,101,75.27Z"/><path class="cls-8" d="M101.34,73.24a7.91,7.91,0,0,0,15.55,1.55c0,.16,0,.31,0,.48a8,8,0,1,1-15.6-2Z"/><path d="M106,76.74a4,4,0,1,0-.33-5.59A3.95,3.95,0,0,0,106,76.74Z"/><path class="cls-7" d="M107.87,73.09a1.59,1.59,0,1,0-.13-2.24A1.59,1.59,0,0,0,107.87,73.09Z"/><path class="cls-9" d="M95.13,112.41A16.65,16.65,0,0,1,88.24,111s0,.07,0,.1c0,4.61,3.25,8.34,7.26,8.34s7.26-3.73,7.26-8.34c0-.15,0-.3,0-.46A16.18,16.18,0,0,1,95.13,112.41Z"/><path class="cls-10" d="M102.71,110.64c-.33,4.25-3.43,7.59-7.22,7.59s-6.71-3.14-7.18-7.21l-.07,0s0,.07,0,.11c0,4.6,3.25,8.33,7.26,8.33s7.26-3.73,7.26-8.33c0-.16,0-.31,0-.47Z"/><path class="cls-7" d="M93.23,112.31a16.71,16.71,0,0,1-1.92-.32c.32,1,.66,1.93.81,2.5C92.38,115.56,92.87,113.47,93.23,112.31Z"/><path class="cls-7" d="M97.41,112.26c.36,1.18.83,3.12,1.08,2.08.14-.56.47-1.5.78-2.42A18,18,0,0,1,97.41,112.26Z"/><path class="cls-7" d="M96.4,112.36c-.42,0-.84,0-1.27,0l-.72,0c.2.48.47,1,.71,1.63C95.66,115.35,96,113.59,96.4,112.36Z"/><path class="cls-3" d="M111.86,118.47s0,.07,0,.07S111.9,118.47,111.86,118.47Z"/><path class="cls-6" d="M137.26,91.21c2.55,1,1,5.8,1.61,8,.71-.51,1.13-1.35,1.85-1.71a6.68,6.68,0,0,0,6.29,6.76c-.53-1.59-2.09-3.2-2-5,1.32-.17,2.57,1.59,3.62,2.22-1.24-1.41-.28-3.15.23-4.68a4.14,4.14,0,0,0,1.51,1.71c.26-2.14,1-4.78-.39-6.67-1.58-2.17-5-2.5-7.38-1.85.66,0,1.54-.44,2.43-.52-.21-.41-.65-.41-1.07-.32.55-.4.7-.8,1.36-1C142,86.41,137.26,91.21,137.26,91.21Z"/><path class="cls-6" d="M88.59,102.48c-1,0-1.16,1.64-.1,1.64S89.65,102.48,88.59,102.48Z"/><path class="cls-6" d="M92.84,104.77c-.55,0-.52.86,0,.86S93.4,104.77,92.84,104.77Z"/><path class="cls-6" d="M93,107.69c-.57,0-.53.89,0,.89S93.59,107.69,93,107.69Z"/><path class="cls-6" d="M90.73,106.54c-.72,0-.61,1.12.11,1.12S91.45,106.54,90.73,106.54Z"/><path class="cls-6" d="M86.07,108.29c-1.36,0-1.26,2.12.1,2.12S87.44,108.29,86.07,108.29Z"/><path class="cls-6" d="M91.73,109a.74.74,0,0,0-.79.64.71.71,0,0,0,.63.78.73.73,0,0,0,.79-.63A.71.71,0,0,0,91.73,109Z"/><path class="cls-6" d="M96.14,108.56a1,1,0,0,0,0,1.92A1,1,0,0,0,96.14,108.56Z"/><path class="cls-6" d="M96.33,107.24c-.26,0-.29.41,0,.41S96.59,107.24,96.33,107.24Z"/><path class="cls-6" d="M96,104c-1.08,0-1.17,1.69-.08,1.69S97.1,104,96,104Z"/><path class="cls-6" d="M99.15,106.38c-.48,0-1.06.55-.73,1a1.37,1.37,0,0,0,.13.2.68.68,0,0,0,1.15-.15c0,.11-.07.13,0,.08A.73.73,0,0,0,99.15,106.38Z"/><path class="cls-6" d="M99.06,109.58c-.59,0-.54.91,0,.91S99.64,109.58,99.06,109.58Z"/><path class="cls-6" d="M101.5,109.35a.34.34,0,0,0,0,.68A.34.34,0,0,0,101.5,109.35Z"/><path class="cls-6" d="M100.8,107.23a.39.39,0,0,0,0,.78A.39.39,0,0,0,100.8,107.23Z"/><path class="cls-6" d="M92.82,101.57c-.68,0-.59,1.05.08,1.05S93.49,101.57,92.82,101.57Z"/><path class="cls-6" d="M99.4,103.88c-.6,0-.55.92,0,.92S100,103.88,99.4,103.88Z"/><path class="cls-6" d="M103.63,104.41c-1,0-1.14,1.58-.12,1.58S104.65,104.41,103.63,104.41Z"/><path class="cls-6" d="M104.14,108.86c-1.52,0-1.27,2.35.24,2.35S105.66,108.86,104.14,108.86Z"/><path class="cls-6" d="M99.87,102.74h0a.62.62,0,1,0,0,1.15l.06,0C100.45,103.72,100.49,102.8,99.87,102.74Z"/><path class="cls-6" d="M102.44,102.25c-.91,0-1.07,1.41-.15,1.41S103.36,102.25,102.44,102.25Z"/><path class="cls-6" d="M97.35,99.91a1,1,0,1,0,0,1.94,1,1,0,0,0,0-1.94Z"/><path class="cls-6" d="M85,104.68c-.67,0-.59,1,.09,1S85.72,104.68,85,104.68Z"/><path class="cls-6" d="M88.33,106.1c-.13-.52-.87-.38-1,.07a.72.72,0,0,0,0,.25c0,.67,1,.59,1-.08A1,1,0,0,0,88.33,106.1Z"/><path class="cls-6" d="M82.15,108.66a.77.77,0,0,0-1.12.63.78.78,0,0,0,.71.83A.77.77,0,0,0,82.15,108.66Z"/><path class="cls-6" d="M84.22,113l-.09-.22a.64.64,0,1,0-.84.83l.18.07A.55.55,0,0,0,84.22,113Z"/><path class="cls-6" d="M87.28,113.28a.1.1,0,0,0,0,0,.48.48,0,0,0-.69.45.47.47,0,0,0,.73.37l0,0A.45.45,0,0,0,87.28,113.28Z"/><path class="cls-6" d="M83.38,102.89a.58.58,0,0,0-.51.64.59.59,0,0,0,.64.52.58.58,0,0,0,.51-.64A.59.59,0,0,0,83.38,102.89Z"/><path class="cls-6" d="M106.87,106.56l0-.08c-.16-.56-.92-.38-1,.09l0,.09a.57.57,0,0,0,.61.66A.58.58,0,0,0,106.87,106.56Z"/><path class="cls-6" d="M91.55,98.1c-.9,0-1.07,1.42-.15,1.42S92.47,98.1,91.55,98.1Z"/><path class="cls-6" d="M86.7,98.36c-1,0-1.14,1.59-.12,1.59S87.72,98.36,86.7,98.36Z"/><path class="cls-6" d="M95.11,98.57c-.08,0-.1.13,0,.13S95.2,98.57,95.11,98.57Z"/><path class="cls-6" d="M94.87,96.91a1.41,1.41,0,0,0-1.49,1.27,1.39,1.39,0,0,0,1.27,1.49,1.41,1.41,0,0,0,1.49-1.27A1.39,1.39,0,0,0,94.87,96.91Z"/><path class="cls-6" d="M99.75,102.58h-.58a1.25,1.25,0,0,0,0,2.47,1.22,1.22,0,0,0,1.16-.47,1.75,1.75,0,0,0,.29-.69A1.14,1.14,0,0,0,99.75,102.58Z"/><path class="cls-6" d="M100.92,98.93a.57.57,0,0,0-.51.63.58.58,0,0,0,.63.51.57.57,0,0,0,.51-.63A.59.59,0,0,0,100.92,98.93Z"/><path class="cls-6" d="M104.82,104.86a1.29,1.29,0,0,0-1.41-1.08,1.25,1.25,0,0,0-1.08,1.41,1.27,1.27,0,0,0,1.4,1.08A1.26,1.26,0,0,0,104.82,104.86Z"/><path class="cls-6" d="M105.87,101.25c-1.54,0-1.28,2.37.24,2.37S107.39,101.25,105.87,101.25Z"/><path class="cls-6" d="M81.27,105.9v0a.61.61,0,0,0-1.09.26c-.09.57.72,1,1.07.48h0A.62.62,0,0,0,81.27,105.9Z"/><path class="cls-6" d="M81.07,105.94a.94.94,0,0,0-.86-.76,1.07,1.07,0,0,0-1,.57A1,1,0,0,0,80.65,107h0s0,0,.08-.06l0,0,0,0A.93.93,0,0,0,81.07,105.94Z"/><path class="cls-6" d="M108.06,108.74a1,1,0,0,0,0,1.91A1,1,0,0,0,108.06,108.74Z"/><path class="cls-6" d="M107.79,112.57a1.13,1.13,0,0,0-.26,0c-.42.06-.58.74-.08.82a1,1,0,0,0,.25,0C108.13,113.33,108.29,112.64,107.79,112.57Z"/><path class="cls-6" d="M109.76,106.44c-.63,0-.56,1,.06,1S110.38,106.44,109.76,106.44Z"/><path class="cls-2" d="M148,91.71a4.86,4.86,0,0,0-4-1.64,10.36,10.36,0,0,1-1.46-.13,1,1,0,0,1,.06-.44,2,2,0,0,1,1.08-1,3.14,3.14,0,0,0-2.09.84l-.66.57a4.23,4.23,0,0,0-2.51,1.1c.93.74,1.47,3.25,1.59,4.16a8.84,8.84,0,0,1,.05,1.7,2.32,2.32,0,0,1,.63-.54c0,2.79,1.58,6.12,4.5,6.22a17.09,17.09,0,0,1-1.09-4.88c1-.16,2.07,1.23,2.92,1.71-1-1.1-.27-2.5.12-3.73.33.49.68,1.12,1.22,1.34C148.57,95.31,149.09,93.19,148,91.71Z"/><path class="cls-11" d="M80.91,51.31a.35.35,0,0,1,.13,0,1.07,1.07,0,0,0,.51-.18s-.14,0,.26.43l.11.13s.17.27.41.63a6.19,6.19,0,0,1,.39.63c.12.22.32.49.45.75A13,13,0,0,1,84,55.34a10,10,0,0,1,.54,1.72,7.28,7.28,0,0,1,.19,1.62A7.16,7.16,0,0,1,84.65,60a9.57,9.57,0,0,1-.21,1l-.11.37-.2.27c-.12.18-.33.44-.51.73a9.19,9.19,0,0,0-.6,1l-.26.6a3.06,3.06,0,0,0-.14.56,2.24,2.24,0,0,0,.06,1.19c.07.19.14.2.09.17a1.21,1.21,0,0,0-.47-.18,8.07,8.07,0,0,1-1.1-.34,2.49,2.49,0,0,1-.6-.23,5.66,5.66,0,0,1-.64-.33,8.12,8.12,0,0,1-.74-.45,13.52,13.52,0,0,1-1.3-1l-.56-.51a5.35,5.35,0,0,1-.3-.52,8.55,8.55,0,0,1-.9-3.47,8.7,8.7,0,0,1,.24-2.3,8.2,8.2,0,0,1,.92-2.2,7.91,7.91,0,0,1,1.42-1.73,6.84,6.84,0,0,1,.77-.61,5.25,5.25,0,0,1,.68-.42A4.33,4.33,0,0,1,80.91,51.31Z"/><path class="cls-11" d="M67.7,59.51l.1-.1c.2-.17.34-.35.33-.39s-.14,0,.44.18l.17,0s.3.11.68.26a6.92,6.92,0,0,1,.66.26c.22.1.51.19.76.31a14.48,14.48,0,0,1,1.53.75,7.76,7.76,0,0,1,1.3.88,5.68,5.68,0,0,1,.94,1,3,3,0,0,1,.33.49,3.1,3.1,0,0,1,.26.47,7.32,7.32,0,0,1,.31.78,2.69,2.69,0,0,1,.1.33s0,.47,0,1.16c0,.16,0,.38,0,.56s0,.39.08.6A4.75,4.75,0,0,0,76,68.2a2.32,2.32,0,0,0,.65.91c.15.12.2.09.15.09a1,1,0,0,0-.45.12c-.24.09-.6.27-1,.4a2.66,2.66,0,0,1-.55.19c-.2.06-.42.11-.66.16s-.53.1-.81.13a7.59,7.59,0,0,1-.81.07,6.26,6.26,0,0,1-.74,0l-.72,0a4.68,4.68,0,0,1-.53-.2,8.31,8.31,0,0,1-1.27-.73A7.33,7.33,0,0,1,67.85,68a10.35,10.35,0,0,1-.62-.91,8.81,8.81,0,0,1-.48-1,8.43,8.43,0,0,1-.31-1.09,7.49,7.49,0,0,1-.12-1.13,6.78,6.78,0,0,1,.27-2.11,5.84,5.84,0,0,1,.34-.87,4.63,4.63,0,0,1,.34-.67A6.83,6.83,0,0,1,67.7,59.51Z"/><path class="cls-11" d="M94.47,53l.11-.09a1.15,1.15,0,0,0,.34-.37s-.14.05.43.16l.17,0a6.42,6.42,0,0,1,.67.26,4.53,4.53,0,0,1,.64.3c.21.12.5.24.74.4A7,7,0,0,1,99,54.82a6,6,0,0,1,1.09,1.62,6.52,6.52,0,0,1,.52,1.92,7.14,7.14,0,0,1-.07,1.87,6.74,6.74,0,0,1-.4,1.35c-.14.32-.24.5-.24.5l-.3.28a8.93,8.93,0,0,1-.82.68,12.42,12.42,0,0,1-1.14.73c-.39.23-.85.4-1.16.57a5.6,5.6,0,0,0-1,.56c-.13.11-.12.16-.1.12A2.58,2.58,0,0,0,95,63.71s-.09-.15-.26-.43-.19-.29-.31-.45L94,62.34a10.05,10.05,0,0,0-.79-.8,3.76,3.76,0,0,0-.38-.32L92.67,61a6.7,6.7,0,0,1-.33-.66c0-.14-.1-.29-.14-.45a2.77,2.77,0,0,1-.1-.53,5.12,5.12,0,0,1,0-1.3,7.32,7.32,0,0,1,.36-1.59,9.71,9.71,0,0,1,.71-1.62c.13-.25.31-.51.44-.72a3.73,3.73,0,0,1,.41-.58A5.44,5.44,0,0,1,94.47,53Z"/><path class="cls-11" d="M104,55.34l.11-.08a1.1,1.1,0,0,0,.36-.36s-.14,0,.42.18l.17.05a3.79,3.79,0,0,1,.67.35,4.21,4.21,0,0,1,.59.45,5.2,5.2,0,0,1,.67.66,6.07,6.07,0,0,1,1.06,1.83,6.38,6.38,0,0,1,.39,2.15,6.66,6.66,0,0,1-.3,2,6.83,6.83,0,0,1-.76,1.58,5.74,5.74,0,0,1-1.17,1.3l-.35.15c-.21.09-.56.19-.93.31s-.81.23-1.26.33-.88.18-1.22.28a4.75,4.75,0,0,0-1,.38c-.14.09-.14.14-.12.1a3.09,3.09,0,0,0-.21-1.39,4.89,4.89,0,0,1-.16-.48c-.11-.32-.26-.75-.41-1.16s-.34-.83-.48-1.13-.22-.49-.22-.49,0-.13,0-.35a8.15,8.15,0,0,1,0-.88,4.58,4.58,0,0,1,.2-1.1,4.2,4.2,0,0,1,.51-1.13,5.75,5.75,0,0,1,.87-1.1c.35-.35.72-.71,1.11-1.06.19-.17.42-.34.58-.5a5.12,5.12,0,0,1,.49-.45Z"/><path class="cls-11" d="M118,54.07l.13-.06c.25-.1.45-.22.45-.27s-.14,0,.34.37l.14.11s.23.23.53.52.34.32.52.51.42.37.62.6a7.31,7.31,0,0,1,1.19,1.65,6.33,6.33,0,0,1,.67,2.56,6.86,6.86,0,0,1-.07,1.51,11.94,11.94,0,0,1-.29,1.27,8.28,8.28,0,0,1-.77,1.81,8.83,8.83,0,0,1-.88,1.26c-.25.29-.41.45-.41.45l-.39.21a8.86,8.86,0,0,1-1,.5,14,14,0,0,1-1.43.49,13,13,0,0,1-1.43.32A7.92,7.92,0,0,1,115,68a2.88,2.88,0,0,0-.45.09c-.19.07-.22.13-.18.09a1.1,1.1,0,0,0,.2-.47,4.47,4.47,0,0,0,.09-.45,3.74,3.74,0,0,0,0-.58,3.14,3.14,0,0,1-.06-.52,9,9,0,0,0-.27-1.23c-.13-.44-.29-.88-.4-1.18s-.22-.53-.22-.53,0-.15,0-.39a7.17,7.17,0,0,1,0-1c0-.22,0-.44.09-.68s.11-.55.19-.83c0-.11.06-.22.1-.34a1.22,1.22,0,0,1,.1-.24c.11-.16.13-.32.25-.49s.18-.42.31-.64.25-.54.39-.81a16.89,16.89,0,0,1,1-1.86,8.82,8.82,0,0,1,.61-.8,3.56,3.56,0,0,1,.56-.59A5.12,5.12,0,0,1,118,54.07Z"/><path class="cls-11" d="M125.27,66.57l.14,0a1,1,0,0,0,.5-.16s-.16,0,.37.3l.16.11a3.29,3.29,0,0,1,.54.57,3.13,3.13,0,0,1,.4.68,4.28,4.28,0,0,1,.36.93,5.31,5.31,0,0,1,0,2.25c0,.2-.09.39-.14.58a4.3,4.3,0,0,1-.2.54,4.88,4.88,0,0,1-.52,1,4.94,4.94,0,0,1-.66.81,4.63,4.63,0,0,1-.73.63,4.84,4.84,0,0,1-1.44.72,4.76,4.76,0,0,1-1.11.2,3.66,3.66,0,0,1-.44,0l-.36-.14c-.21-.07-.53-.23-.88-.39s-.75-.37-1.15-.58-.79-.44-1.11-.57a3.41,3.41,0,0,0-1-.33c-.16,0-.18,0-.15,0a3.37,3.37,0,0,0,.39-1.35,2.76,2.76,0,0,1,.08-.52c.05-.34.12-.8.18-1.26s.12-.91.15-1.25,0-.55,0-.55l.14-.31a7.23,7.23,0,0,1,.41-.69,2.81,2.81,0,0,1,.63-.66,1.78,1.78,0,0,1,.39-.24,2.25,2.25,0,0,1,.44-.14,2.12,2.12,0,0,1,.5,0,5.63,5.63,0,0,1,.58,0c.42,0,.87.07,1.37.09a8.32,8.32,0,0,0,1.39-.1C125,66.65,125.22,66.57,125.27,66.57Z"/><path class="cls-11" d="M53.38,67.48l.12-.06a1.28,1.28,0,0,0,.42-.25s-.15,0,.38.26l.16.07s.25.15.58.31a4.57,4.57,0,0,0,1.25.36,6.2,6.2,0,0,0,1.22,0,3,3,0,0,1,1,.06,2.69,2.69,0,0,1,.93.46,4.88,4.88,0,0,1,.83.74,7,7,0,0,1,.8,1.08l.27,1.22c.08.36.17.77.26,1.21s.17.85.27,1.19a4.68,4.68,0,0,0,.39,1c.1.14.15.14.11.12a3,3,0,0,0-1.35.28,2.53,2.53,0,0,1-.47.18l-1.17.43c-.44.17-.87.32-1.2.42l-.57.17-.42,0a6.58,6.58,0,0,1-1.1-.23,5,5,0,0,1-.71-.28,6.14,6.14,0,0,1-.78-.44,6.57,6.57,0,0,1-1.56-1.49A6.09,6.09,0,0,1,52,72a6.59,6.59,0,0,1-.16-1.28A4.87,4.87,0,0,1,52,69.55a3.33,3.33,0,0,1,.4-.94A2.2,2.2,0,0,1,52.8,68,3.58,3.58,0,0,1,53.38,67.48Z"/><path class="cls-11" d="M48.84,82.12a.53.53,0,0,1,0-.14,1.11,1.11,0,0,0-.08-.47c0-.05,0,.14.37-.27a.68.68,0,0,1,.12-.12s.23-.19.55-.43c.16-.13.34-.25.52-.38l.3-.22a3.43,3.43,0,0,1,.33-.24,11.12,11.12,0,0,1,1.36-.79,5,5,0,0,1,1.38-.46A3.5,3.5,0,0,1,55,78.54a3.94,3.94,0,0,1,1.1.27,6.53,6.53,0,0,1,.78.37,3.44,3.44,0,0,1,.31.2l.71.93c.21.28.46.59.72.9l.4.46a4.43,4.43,0,0,0,.39.37,2.78,2.78,0,0,0,.88.55c.15,0,.19,0,.15,0s-.41.41-.86,1.07c0,0-.09.15-.3.43s-.49.63-.81,1a6.11,6.11,0,0,1-.47.53c-.15.17-.3.34-.42.45l-.43.42-.4.17a4.84,4.84,0,0,1-1.06.32,6,6,0,0,1-1.5.08,6.31,6.31,0,0,1-1.7-.42,6.15,6.15,0,0,1-1.58-1,6.38,6.38,0,0,1-1.2-1.43,5,5,0,0,1-.39-.76A4.28,4.28,0,0,1,49,82.8,5.79,5.79,0,0,1,48.84,82.12Z"/><path class="cls-11" d="M134.67,72.63l.12,0a1.14,1.14,0,0,0,.44-.24s-.15,0,.36.27l.15.09a3.64,3.64,0,0,1,.55.48,3.26,3.26,0,0,1,.48.55,5.58,5.58,0,0,1,.51.76,7.07,7.07,0,0,1,.4.92,7,7,0,0,1,.24,1,8.59,8.59,0,0,1,0,1.14,6.49,6.49,0,0,1-.2,1.14,6.34,6.34,0,0,1-1,2,6.85,6.85,0,0,1-.69.8c-.25.23-.5.44-.74.62a6.5,6.5,0,0,1-1.27.68,3.48,3.48,0,0,1-.53.17h-.41a8.6,8.6,0,0,1-1-.13,9.61,9.61,0,0,1-1.3-.34c-.42-.11-.86-.33-1.19-.43a5.64,5.64,0,0,0-1.06-.32c-.17,0-.2,0-.16,0a2.52,2.52,0,0,0,.6-1.23s.05-.17.12-.48a8,8,0,0,0,.18-1.15,10.5,10.5,0,0,0,0-1.11c0-.29-.05-.49-.05-.49s0-.11.06-.27a3.88,3.88,0,0,1,.16-.63,2.17,2.17,0,0,1,.15-.35,1.51,1.51,0,0,1,.2-.35,1.81,1.81,0,0,1,.29-.34,2,2,0,0,1,.37-.34,7.49,7.49,0,0,1,1-.69,6.35,6.35,0,0,1,.64-.37c.21-.13.44-.26.67-.38l.67-.37.58-.32C134.41,72.77,134.63,72.64,134.67,72.63Z"/><path class="cls-2" d="M115.26,118.42c2-.14,3.49,1.14,5.11,1.8a6.71,6.71,0,0,0-2-3.71c-.86-.79-2.3-.82-3.06-1.55-1.67-1.6,2.74-.86,3.65-.86-.7-1-3.36-2.2-5.25-2.38-2.18,5.69-18.52,12.37-18.52,12.37S77.52,117,76.11,111.23c-1.88.27-4.61,1.76-5.24,2.9.92-.09,5.23-1.24,3.72.51-.69.8-2.12,1-2.9,1.83a6.62,6.62,0,0,0-1.62,3.88c1.55-.81,3-2.23,4.92-2.27-.57,1.37-1.83,1.82-2.06,3.59-.18,1.27-.17,4.89,1.25,5.47.09-1.82,1.64-5.23,3.92-4.92-.09.91-.76,1.44-.8,2.49a11.63,11.63,0,0,0,1.28,5.06c0-.68,1.18-3,2.07-2.62.39.14.49,2.58.92,3.14a4.39,4.39,0,0,1,2.05-2.4,7.72,7.72,0,0,0,.92,4,9.26,9.26,0,0,1,1.29-4.23,5.94,5.94,0,0,0,.77,3.16,1.78,1.78,0,0,1,.31-1.56,4.65,4.65,0,0,0,1.3,3.87,4.67,4.67,0,0,1,.77-2.37,9,9,0,0,0,1.86,3.64c-.43-1.42,1.86-2.68,2.21-4.11a9.7,9.7,0,0,0,.33,2.38c1.27-1,2.64-1.89,2.77-3.61-.19,1.34.52,1.73,1.18.61a4.08,4.08,0,0,0,.3-.69,5,5,0,0,0,2,3.71,3.93,3.93,0,0,1,.39-2.5c.76.24,1.18,1.18,1.38,1.9.72-.78,1.73-2,1.7-3.14a6.09,6.09,0,0,1,.25.83,8,8,0,0,1,.11.84l0,0a23.23,23.23,0,0,1,.07,3.23c1-.94,2.19-1.37,3-2.53a10.23,10.23,0,0,1,.45,1.77,7.8,7.8,0,0,0,.54-4,4.39,4.39,0,0,1,2.26,2.19c.38-.59.26-3,.62-3.2.86-.42,2.24,1.74,2.31,2.42a11.69,11.69,0,0,0,.8-5.16c-.14-1-.85-1.51-1-2.4,2.23-.53,4.1,2.73,4.35,4.53,1.36-.71,1-4.31.74-5.57C117.25,120.06,116,119.73,115.26,118.42Z"/></g></g></svg>