<svg xmlns="http://www.w3.org/2000/svg" viewBox="0 0 200 200"><defs><style>.cls-1{isolation:isolate;}.cls-2{fill:#6e2810;}.cls-3{fill:#ff5c23;}.cls-4{fill:#f0b65e;}.cls-5{fill:#f2b93d;}.cls-6{fill:#361308;}.cls-7{fill:#f0d907;mix-blend-mode:multiply;}.cls-8{fill:#fff;}.cls-9{fill:#e8e8e8;}</style></defs><g class="cls-1"><g id="Layer_1" data-name="Layer 1"><path class="cls-2" d="M91.82,138.49c.15-2.76-.26-5.89.76-8.53,1-2.45,4-4,4.88-6.27,2.15-5.41-10.55-6.59-13.47-4.85-5.43,3.25-4,15.09-.64,19.39-1,.68-1.76.94-1.51,2.27.43,2.33,13.7,6.54,15.86,1.94C98.88,139.92,94.16,138.45,91.82,138.49Z"/><path class="cls-2" d="M115.58,138.94c-.16-2.76.27-5.89-.78-8.53-1-2.46-4.07-4-5-6.27-2.2-5.41,10.8-6.59,13.78-4.85,5.56,3.24,4.08,15.09.66,19.39,1,.68,1.8.94,1.55,2.27-.45,2.33-14,6.54-16.24,1.94C108.36,140.37,113.18,138.9,115.58,138.94Z"/><path class="cls-3" d="M135.26,109.07C128,90,130.93,66.21,103.78,66.51H102.3C74.89,66.21,77.85,90,70.53,109.07c-3.68,9.61-2.67,17.55,8.11,21.52,5,1.83,16.54,4.75,24.4,4.71s19.27-2.88,24.18-4.71C137.9,126.62,138.9,118.68,135.26,109.07Z"/><path class="cls-4" d="M113.56,108a16.11,16.11,0,0,0-.24-2.41c-4.86-2.36-12.37-2.4-17.28-.36a24.65,24.65,0,0,0-.21,2.77c0,4.51,4,6,8.86,6S113.56,112.53,113.56,108Z"/><path class="cls-2" d="M113.56,108c0,4.51-4,6-8.87,6s-8.86-1.49-8.86-6S99.06,85.6,104,85.6,113.56,103.52,113.56,108Z"/><path class="cls-5" d="M104.75,111.47c-4.61,0-8.39-1.32-8.82-5.24-.06.72-.1,1.33-.1,1.79,0,4.51,4,6,8.86,6s8.87-1.49,8.87-6a12.15,12.15,0,0,0-.08-1.22C112.76,110.28,109.13,111.47,104.75,111.47Z"/><path class="cls-2" d="M67.56,102.48c-2.87,2.19-5.74.48-8.12-2.52S56.09,93.8,59,91.62s15.82-8.9,18.2-5.9S70.42,100.3,67.56,102.48Z"/><path class="cls-6" d="M63.9,103.35a2.39,2.39,0,0,0,.93-.55c1.66-1.55-1.35-2.75-3.14-4.93-1.4-1.68-1.68-4.31-3.17-4.06a1.42,1.42,0,0,0-1.31.93c-.06,1.64.84,3.45,2.23,5.22A9,9,0,0,0,63.9,103.35Z"/><path class="cls-2" d="M139.29,103c3.1,2,5.84.06,8-3.12s2.81-6.42-.29-8.41-16.83-7.78-18.94-4.6S136.19,101,139.29,103Z"/><path class="cls-6" d="M143.06,103.55a2.46,2.46,0,0,1-1-.48c-1.82-1.44,1.1-2.86,2.71-5.17,1.25-1.79,1.28-4.45,2.81-4.3a1.45,1.45,0,0,1,1.42.83c.22,1.64-.53,3.53-1.77,5.4A8.7,8.7,0,0,1,143.06,103.55Z"/><path class="cls-7" d="M102.88,81.37a10.12,10.12,0,0,1-10.19-10,8.64,8.64,0,0,1,.16-1.59,10.16,10.16,0,1,1,10,11.6Z"/><path class="cls-2" d="M102.88,81.37a10.12,10.12,0,0,1-10.19-10,8.64,8.64,0,0,1,.16-1.59,10.16,10.16,0,1,1,10,11.6Z"/><path class="cls-8" d="M94.46,71.36a8.42,8.42,0,1,0,8.42-8.27A8.35,8.35,0,0,0,94.46,71.36Z"/><path class="cls-9" d="M94.78,69.24a8.4,8.4,0,0,0,16.47,1.62c0,.17,0,.33,0,.5a8.42,8.42,0,0,1-16.84,0A7.82,7.82,0,0,1,94.78,69.24Z"/><path d="M100.31,76.71a4.25,4.25,0,0,0,5.92-.35,4.07,4.07,0,0,0-.35-5.82,4.26,4.26,0,0,0-5.93.35A4.08,4.08,0,0,0,100.31,76.71Z"/><path class="cls-8" d="M102.27,75.67a1.69,1.69,0,0,0,2.36-.14,1.62,1.62,0,0,0-.14-2.33,1.69,1.69,0,0,0-2.36.14A1.62,1.62,0,0,0,102.27,75.67Z"/><path class="cls-4" d="M102.81,57A12.26,12.26,0,0,0,90.44,69.13c0,.29,0,.57,0,.85a38.3,38.3,0,0,0,12.68,2,38.84,38.84,0,0,0,12-1.8,10,10,0,0,0,.06-1.1A12.27,12.27,0,0,0,102.81,57Z"/><path d="M92.81,85.61l-.5.71c-.15.21-.31.47-.5.74a9.09,9.09,0,0,0-.52.87c-.66,1.23-1.2,2.51-1.2,2.51h0s.55-1.27,1-2.59c.1-.34.25-.66.37-1s.22-.6.32-.85c.17-.5.29-.83.29-.83a.42.42,0,0,1,.57-.29.43.43,0,0,1,.2.61S92.82,85.58,92.81,85.61Z"/><path d="M89.2,96.47l-.25.68a5.49,5.49,0,0,0-.19.73,5.43,5.43,0,0,0-.17.84l-.06.86a3,3,0,0,0,0,.75l.1.72h0l-.12-.72a3.29,3.29,0,0,1-.11-.75c0-.28,0-.57-.07-.87s0-.6,0-.88,0-.55,0-.77c0-.46,0-.76,0-.76a.37.37,0,0,1,.45-.36.4.4,0,0,1,.38.46A.25.25,0,0,1,89.2,96.47Z"/><path d="M93.14,92.49a.63.63,0,0,0-.09.13l-.18.36a4.75,4.75,0,0,0-.31,1.25,10.58,10.58,0,0,0-.07,1.31v.6h0l0-.6c0-.36-.07-.83-.11-1.31s-.07-1-.07-1.37c0-.2,0-.36,0-.47a1.09,1.09,0,0,1,0-.19.32.32,0,0,1,.49-.2c.23.1.37.31.31.45A.08.08,0,0,1,93.14,92.49Z"/><path d="M96.29,90.68l-.15.71c-.1.43-.22,1-.3,1.53a8.11,8.11,0,0,0-.08.82c0,.27,0,.51,0,.72s.07.39.08.51,0,.19,0,.19h0s0-.07,0-.19-.07-.29-.1-.5-.06-.46-.07-.72,0-.55-.05-.84c0-.56,0-1.13-.08-1.55s-.09-.7-.08-.7c0-.21.13-.39.38-.42a.39.39,0,0,1,.45.37A.15.15,0,0,1,96.29,90.68Z"/><path d="M85.28,87.12l-.15.13-.38.37a7,7,0,0,0-1,1.35,9.59,9.59,0,0,0-.9,2.26h0s.29-1.19.71-2.35a17,17,0,0,1,.67-1.59l.28-.52.12-.19a.38.38,0,0,1,.59-.1.43.43,0,0,1,.08.6Z"/><path d="M83.18,83.34l-.16.07-.39.24a1.8,1.8,0,0,0-.24.19c-.08.08-.18.15-.26.24a5,5,0,0,0-.51.6,14.21,14.21,0,0,0-.81,1.24l-.33.59h0l.32-.6.64-1.34c.11-.25.26-.49.38-.72s.14-.22.2-.33.12-.21.19-.29l.34-.42.15-.14a.35.35,0,0,1,.56.07c.13.21.12.48,0,.57Z"/><path d="M81.56,96.6l-.15.17-.34.5a6.33,6.33,0,0,0-.41.75,4.69,4.69,0,0,0-.18.45,2.64,2.64,0,0,0-.17.47,7.74,7.74,0,0,0-.27,1.85c0,.26,0,.47,0,.62s0,.23,0,.23h0s0-.08,0-.23,0-.36,0-.62,0-.56,0-.88a7.1,7.1,0,0,1,.08-1c0-.17,0-.34.08-.51s.06-.34.1-.5c.09-.31.15-.62.25-.87s.15-.47.21-.62l.1-.22a.43.43,0,0,1,.59-.26.44.44,0,0,1,.17.61Z"/><path d="M84.52,96.48s-.14.2-.34.54l-.24.62-.12.35a2.36,2.36,0,0,0-.1.38c0,.26-.1.52-.14.76a6.28,6.28,0,0,0-.07.68c0,.39,0,.65,0,.65h0s0-.26,0-.66c0-.19,0-.43,0-.67s0-.52,0-.79a2.67,2.67,0,0,1,0-.4c0-.13,0-.26,0-.38s0-.5.05-.71l.13-.69a.33.33,0,0,1,.49-.23.42.42,0,0,1,.3.5Z"/><path d="M84.55,105.44l-.09.23c0,.16-.12.38-.19.64s-.13.59-.21.93S84,108,84,108.33a7.88,7.88,0,0,0,0,1.1c0,.35.12.67.17.95s.16.49.2.65l.09.24h0l-.09-.24c0-.16-.15-.37-.22-.65s-.18-.59-.23-.94a9.05,9.05,0,0,1-.17-1.1c-.06-.38-.06-.76-.09-1.12s0-.7,0-1,0-.54,0-.71,0-.27,0-.27c0-.3.25-.52.5-.47a.45.45,0,0,1,.34.57Z"/><path d="M88.48,105.6s-.26,1.08-.4,2.15-.2,2.15-.2,2.15h0s.05-1.08,0-2.16-.22-2.15-.22-2.15a.38.38,0,0,1,.39-.41.38.38,0,0,1,.45.35S88.48,105.57,88.48,105.6Z"/><path d="M91.92,104.55s0,.23-.08.58c0,.18,0,.39-.07.61s0,.46,0,.7a18.66,18.66,0,0,0,.15,1.89h0a17.33,17.33,0,0,0-.36-1.87c-.06-.23-.09-.47-.14-.69l-.14-.61c-.09-.35-.16-.59-.16-.59,0-.19.1-.35.36-.37s.47.12.47.29S91.92,104.53,91.92,104.55Z"/><path d="M95.24,102.32a2.52,2.52,0,0,0-.06.28c0,.18-.05.44-.08.75,0,.63,0,1.49,0,2.36,0,.43,0,.86,0,1.26s-.08.78-.11,1.1c0,.16-.07.3-.09.43a3,3,0,0,0-.08.32c-.05.19-.07.29-.07.29h0l.06-.29.08-.33a3.34,3.34,0,0,0,.08-.43c0-.32.07-.69,0-1.09a10.87,10.87,0,0,0-.1-1.25c-.11-.85-.26-1.7-.35-2.35,0-.33-.07-.61-.09-.8s0-.31,0-.31c0-.35.19-.64.44-.62a.49.49,0,0,1,.4.59S95.24,102.29,95.24,102.32Z"/><path d="M79.88,109.39l-.06.06a1.81,1.81,0,0,0-.17.19l-.55.74a4.68,4.68,0,0,0-.3.55c-.11.19-.23.4-.33.62s-.18.46-.27.7A4.69,4.69,0,0,0,78,113l-.21.75c0,.26-.09.51-.13.75a12.35,12.35,0,0,0-.15,1.35c0,.39,0,.73,0,1s0,.36,0,.36h0s0-.13,0-.36,0-.57,0-1,0-.86.08-1.36c0-.24.06-.5.08-.76s.1-.52.14-.78a4.91,4.91,0,0,1,.17-.78c.06-.26.13-.51.19-.75s.16-.47.24-.69a6.25,6.25,0,0,1,.23-.62c.18-.38.34-.68.44-.9a1.28,1.28,0,0,1,.15-.24l.06-.09c.25-.36.62-.54.82-.38s.16.52-.08.8Z"/><path d="M76.86,105.47s-.27.25-.64.63A9.1,9.1,0,0,0,75,107.61a5.48,5.48,0,0,0-.48.93,8,8,0,0,0-.29.87c-.1.52-.14.88-.14.88h0s.05-.35.12-.89c.08-.26.12-.57.23-.89a8.84,8.84,0,0,1,.38-1,18.56,18.56,0,0,1,1-1.77c.27-.47.46-.78.46-.78a.45.45,0,0,1,.63-.19.42.42,0,0,1,.08.64Z"/><path d="M81.93,113.25l-.35.75c-.09.23-.18.5-.27.79a5.82,5.82,0,0,0-.26.93c0,.33-.11.65-.15,1a5,5,0,0,0,0,.84c0,.5,0,.83,0,.83h0s0-.33,0-.83a7.5,7.5,0,0,1,0-.85c0-.31,0-.64,0-1a7.93,7.93,0,0,1,.08-1c0-.31,0-.61.08-.86l.13-.84a.41.41,0,0,1,.5-.37.43.43,0,0,1,.32.54Z"/><path d="M84.8,115.28l-.25.56c-.06.17-.11.38-.17.6a5.62,5.62,0,0,0-.16.71,12.83,12.83,0,0,0-.13,1.36c0,.38,0,.63,0,.63h0s0-.25,0-.63,0-.87,0-1.37c0-.25,0-.5,0-.74s0-.47,0-.66l0-.66c0-.2.19-.33.44-.28s.42.25.38.42C84.81,115.24,84.81,115.26,84.8,115.28Z"/><path d="M88.1,115.77s0,.49-.11,1.24c0,.37,0,.81,0,1.27a11.91,11.91,0,0,0,0,1.46c0,.5.09,1,.14,1.46a10.9,10.9,0,0,0,.26,1.25c.19.72.31,1.21.31,1.21h0s-.13-.49-.33-1.21c-.08-.36-.25-.77-.32-1.24s-.18-.95-.27-1.44-.13-1-.2-1.47-.12-.9-.16-1.28c-.07-.75-.13-1.25-.13-1.25,0-.38.12-.73.37-.76s.47.25.47.63A.57.57,0,0,1,88.1,115.77Z"/><path d="M93.82,114.83l-.25.86c0,.13,0,.27-.08.42s0,.31-.07.48a8.63,8.63,0,0,0-.12,1c0,.36,0,.72,0,1.06a6.18,6.18,0,0,0,.08.92c.07.53.12.89.12.89h0l-.14-.89a7.17,7.17,0,0,1-.14-.92c0-.34-.07-.7-.11-1.06s0-.72-.07-1.07c0-.17,0-.34,0-.49s0-.31,0-.45c0-.56,0-.93,0-.93a.43.43,0,0,1,.45-.48.45.45,0,0,1,.39.53A.31.31,0,0,0,93.82,114.83Z"/><path d="M97.87,116.87s-.06.28-.16.71c0,.21-.1.46-.15.73s-.11.56-.14.85c-.12,1.16-.13,2.33-.13,2.33h0s0-1.16-.08-2.33c0-.3,0-.59,0-.87s0-.53,0-.76c0-.44-.07-.74-.07-.74a.37.37,0,0,1,.4-.41.41.41,0,0,1,.43.42A.17.17,0,0,1,97.87,116.87Z"/><path d="M103.23,118.85s0,.14,0,.37,0,.55,0,.94c0,.2,0,.41,0,.63s0,.46,0,.7c-.06.48-.08,1-.17,1.49-.12,1-.32,2-.46,2.77L102.3,127h0s.1-.5.23-1.25c.06-.38.14-.82.17-1.29a14.3,14.3,0,0,0,.11-1.49c0-.51,0-1,0-1.49l-.06-.68c0-.21,0-.42-.07-.6l-.17-.89-.08-.33a.65.65,0,0,1,.24-.82c.24-.09.49.16.56.57A.49.49,0,0,1,103.23,118.85Z"/><path d="M80.59,124.21s0,.07-.07.2-.09.32-.16.55a7.7,7.7,0,0,0-.21,1.72,5.59,5.59,0,0,0,.06.93,5,5,0,0,0,.18.8,3.3,3.3,0,0,0,.2.55,1.6,1.6,0,0,0,.09.2h0a1.6,1.6,0,0,1-.09-.2,5.81,5.81,0,0,1-.22-.54,7.58,7.58,0,0,1-.24-.79,8.49,8.49,0,0,1-.19-.93,14.05,14.05,0,0,1-.16-1.8c0-.25,0-.46,0-.61s0-.23,0-.23a.4.4,0,0,1,.46-.41.42.42,0,0,1,.37.49A.19.19,0,0,1,80.59,124.21Z"/><path d="M73.56,122l-.2.16-.45.52a2.27,2.27,0,0,0-.25.38c-.08.15-.17.3-.25.46s-.13.35-.2.53a2.65,2.65,0,0,0-.15.57c0,.19-.07.39-.11.58s0,.39,0,.57a2.38,2.38,0,0,0,0,.54c0,.17,0,.34.06.48a1.83,1.83,0,0,0,.09.4c0,.12.06.22.08.31l.08.26h0l-.08-.26a3.08,3.08,0,0,0-.09-.3,2.12,2.12,0,0,1-.1-.4q0-.22-.09-.48a2.35,2.35,0,0,1-.06-.54l0-.59,0-.6a3.09,3.09,0,0,1,.08-.61c0-.2.07-.4.11-.59l.18-.53a3,3,0,0,1,.18-.48l.36-.69.18-.24c.2-.28.52-.37.7-.2a.49.49,0,0,1,0,.68A.46.46,0,0,1,73.56,122Z"/><path d="M70.15,121.56l-.15.17c-.09.12-.2.29-.34.5a7.19,7.19,0,0,0-.42.75,7.83,7.83,0,0,0-.37.93,6.87,6.87,0,0,0-.24,1,7.83,7.83,0,0,0-.12.87c0,.25,0,.47,0,.62v.24h0v-.24c0-.15,0-.37,0-.62s0-.56.05-.88.07-.67.13-1,.13-.68.2-1,.16-.62.25-.87.16-.47.22-.62l.1-.22a.43.43,0,0,1,.59-.26.44.44,0,0,1,.17.62Z"/><path d="M74.39,126.08l-.27,1c-.07.29-.12.62-.19,1a8.24,8.24,0,0,0-.16,1.14c0,.39,0,.79,0,1.15a9.87,9.87,0,0,0,0,1l.1,1h0s-.05-.39-.12-1c0-.29-.11-.63-.12-1s0-.77-.06-1.17a11.5,11.5,0,0,1,0-1.17c0-.37,0-.72,0-1,0-.61,0-1,0-1,0-.31.21-.55.46-.53a.46.46,0,0,1,.38.57S74.4,126.06,74.39,126.08Z"/><path d="M76.6,127.53l-.24.71a6.1,6.1,0,0,0-.18.76,7.65,7.65,0,0,0-.16.88,19.75,19.75,0,0,0-.15,2.42h0v-.76c0-.45,0-1.06-.06-1.68,0-.3,0-.61,0-.9s0-.56,0-.8c0-.47,0-.78,0-.78a.37.37,0,0,1,.44-.39.42.42,0,0,1,.39.47A.64.64,0,0,1,76.6,127.53Z"/><path d="M85.35,129a2.19,2.19,0,0,0-.09.22c-.05.15-.11.36-.19.61a10.13,10.13,0,0,0-.28,1.95,18.13,18.13,0,0,0,0,2c0,.54.07.9.07.9h0s0-.36-.09-.9-.15-1.25-.21-2-.09-1.46-.09-2c0-.29,0-.52,0-.69s0-.26,0-.26a.43.43,0,1,1,.83.11A.19.19,0,0,1,85.35,129Z"/><path d="M87.71,130.92l-.1.65c0,.19,0,.42,0,.66s0,.51,0,.77,0,.52.06.76a4.92,4.92,0,0,0,.12.66l.14.64h0s-.06-.26-.16-.64c0-.19-.13-.4-.18-.64s-.12-.5-.19-.75-.11-.52-.17-.76-.12-.47-.16-.67c-.08-.39-.14-.66-.14-.66a.34.34,0,0,1,.36-.4c.26,0,.47.13.47.32Z"/><path d="M90.52,131.58l-.08.74c0,.23,0,.5,0,.78s0,.59,0,.9c.08,1.22.24,2.43.24,2.43h0a22.6,22.6,0,0,0-.45-2.4c-.07-.3-.14-.6-.2-.88s-.14-.54-.19-.77c-.09-.47-.16-.78-.16-.78a.38.38,0,0,1,.36-.47.41.41,0,0,1,.47.37A.22.22,0,0,1,90.52,131.58Z"/><path d="M93.57,131.35v.85c0,.25,0,.54-.06.85s0,.64-.07,1c-.14,1.31-.15,2.61-.15,2.61h0s0-1.31-.06-2.61a9.17,9.17,0,0,0-.11-1c-.05-.3-.08-.58-.13-.82l-.24-.76a.44.44,0,0,1,.3-.55.38.38,0,0,1,.51.33A.19.19,0,0,1,93.57,131.35Z"/><path d="M96.3,131.73s-.21,1.08-.31,2.16-.1,2.15-.1,2.15h0s0-1.08-.1-2.15-.31-2.16-.31-2.16c0-.21.12-.39.37-.41a.4.4,0,0,1,.46.35A.13.13,0,0,1,96.3,131.73Z"/><path d="M98.57,132.51s0,.23,0,.58c0,.17,0,.37,0,.58s0,.43,0,.65,0,.43-.07.64-.06.39-.08.55c-.05.32-.08.53-.08.53h0s0-.22.06-.54a4.86,4.86,0,0,0,0-.55c0-.2,0-.41,0-.63a3.87,3.87,0,0,0-.13-.61,3.8,3.8,0,0,0-.17-.51l-.24-.47c-.08-.13,0-.31.29-.41s.46,0,.5.14A.07.07,0,0,1,98.57,132.51Z"/><path d="M100.73,132.63s0,.25-.06.64-.06.88-.1,1.38c-.09,1-.08,2-.08,2h0a18.81,18.81,0,0,0-.12-2,13,13,0,0,0-.29-1.33l-.17-.59c0-.18.1-.36.35-.42s.46.06.48.26A.13.13,0,0,1,100.73,132.63Z"/><path d="M110.8,126.6s0,.43,0,1.09c0,.32,0,.7,0,1.11s0,.83,0,1.27,0,.85-.07,1.26-.09.77-.11,1.09c-.08.64-.13,1.06-.13,1.06h0l.1-1.06a7.36,7.36,0,0,0,.06-1.1c0-.4,0-.82-.06-1.25a12,12,0,0,0-.16-1.24c-.07-.4-.12-.77-.19-1.08l-.27-1a.56.56,0,0,1,.28-.7c.25-.07.49.14.53.47A.45.45,0,0,1,110.8,126.6Z"/><path d="M113.44,120.93s.07.28.17.71a4.77,4.77,0,0,1,.1.73c0,.27.09.55.09.83V124a5,5,0,0,1,0,.71l-.05.69h0s0-.27,0-.69a3.37,3.37,0,0,0,0-.7c0-.26-.09-.53-.13-.8a4.51,4.51,0,0,0-.25-.76,4.36,4.36,0,0,0-.28-.64l-.37-.56a.38.38,0,0,1,.18-.54.35.35,0,0,1,.55.13A.19.19,0,0,1,113.44,120.93Z"/><path d="M116.1,120.32s.09.38.21,1,.25,1.33.33,2.09c0,.39.07.77.09,1.12s0,.69,0,1,0,.52,0,.69,0,.26,0,.26h0s0-.1,0-.26,0-.41,0-.69a8.93,8.93,0,0,0-.3-2.06,11.85,11.85,0,0,0-.68-2c-.24-.51-.42-.84-.42-.84a.47.47,0,0,1,.14-.67.43.43,0,0,1,.6.29A.16.16,0,0,1,116.1,120.32Z"/><path d="M118.87,113.07l0,.25c0,.16.09.39.15.67.13.54.35,1.27.57,2,.12.36.22.73.31,1.07s.15.67.22,1a6.46,6.46,0,0,1,.1.67c0,.17,0,.26,0,.26h0s0-.09,0-.26,0-.4-.12-.67a9.25,9.25,0,0,0-.28-.92c-.12-.34-.26-.69-.42-1-.31-.68-.67-1.35-.93-1.87-.14-.25-.24-.47-.32-.62l-.11-.24a.47.47,0,0,1,.18-.67.45.45,0,0,1,.58.32A.29.29,0,0,1,118.87,113.07Z"/><path d="M121.82,110.48s0,.31.09.79.18,1.12.28,1.76c0,.32.09.64.12.94s0,.59,0,.83a3.11,3.11,0,0,1,0,.32c0,.1,0,.19,0,.26a2,2,0,0,1,0,.22h0a2,2,0,0,0,0-.22c0-.07,0-.16,0-.26s0-.2,0-.32a5.31,5.31,0,0,0-.11-.82,5.23,5.23,0,0,0-.24-.9c-.19-.61-.45-1.2-.64-1.65s-.32-.76-.32-.76a.41.41,0,0,1,.25-.57.42.42,0,0,1,.54.3A.19.19,0,0,1,121.82,110.48Z"/><path d="M123.09,108.3l.2.89c.07.27.11.59.18.92s.15.69.18,1,.1.72.14,1a6.26,6.26,0,0,1,.07.92l0,.9h0s0-.36-.07-.9a5.27,5.27,0,0,0-.13-.9c-.08-.33-.17-.68-.26-1a8.84,8.84,0,0,0-.36-1c-.13-.31-.23-.6-.36-.84-.25-.47-.41-.79-.41-.79a.45.45,0,0,1,.16-.64.41.41,0,0,1,.58.26Z"/><path d="M123.24,103.26l.13.3c.08.2.2.49.33.83.27.68.61,1.59.88,2.52.07.23.13.46.2.69s.11.46.16.68c.12.44.16.86.23,1.21s.08.66.11.87,0,.32,0,.32h0s0-.12,0-.32,0-.51-.13-.87a10.17,10.17,0,0,0-.29-1.19q-.1-.31-.21-.66l-.27-.66a16.65,16.65,0,0,0-1.2-2.33l-.47-.72-.2-.27c-.21-.3-.23-.66,0-.81s.52,0,.7.3Z"/><path d="M124.55,99.41l.07.07a.84.84,0,0,1,.17.19l.54.73c.11.16.18.34.29.52s.21.38.3.59.17.43.26.65a4.91,4.91,0,0,1,.22.68l.21.68.15.67c.12.43.15.84.22,1.19s.07.65.1.85,0,.33,0,.33h0s0-.12,0-.33,0-.5-.12-.85-.14-.75-.28-1.17c-.07-.21-.13-.43-.2-.65s-.18-.44-.27-.65a4.55,4.55,0,0,0-.3-.63c-.11-.2-.23-.4-.33-.59s-.26-.34-.37-.5-.23-.31-.35-.43l-.6-.55a.78.78,0,0,0-.18-.13l-.07,0a.6.6,0,0,1-.31-.72c.1-.24.44-.24.76,0Z"/><path d="M129.07,109.41s.07.32.16.79c0,.24.08.52.14.81s.09.62.1.94l0,.47c0,.16,0,.31,0,.46a5.52,5.52,0,0,1-.11.8,3.25,3.25,0,0,1-.19.54l-.07.2h0l.07-.2a2.89,2.89,0,0,0,.17-.54,3.43,3.43,0,0,0,0-.8c0-.15,0-.3,0-.45s-.07-.3-.1-.45c-.06-.3-.19-.59-.27-.87l-.33-.72c-.21-.42-.37-.69-.37-.69a.39.39,0,0,1,.18-.57.4.4,0,0,1,.57.21A.19.19,0,0,1,129.07,109.41Z"/><path d="M130.85,109.77s.05.3.13.75c0,.22,0,.47.05.75s0,.28,0,.42a3.09,3.09,0,0,1,0,.43c0,.29,0,.58,0,.85s0,.52,0,.73c0,.43,0,.72,0,.72h0s0-.29,0-.72A7,7,0,0,0,131,113c0-.27-.09-.55-.14-.83s0-.28-.1-.41-.09-.27-.13-.39-.16-.49-.24-.68c-.2-.37-.34-.61-.34-.61a.41.41,0,0,1,.21-.54.37.37,0,0,1,.55.18A.19.19,0,0,1,130.85,109.77Z"/><path d="M132.73,109.82s.12.36.27.9a15.05,15.05,0,0,1,.42,2,10.12,10.12,0,0,1,.12,1.06c0,.34,0,.66,0,.93s0,.5,0,.66,0,.25,0,.25h0v-.25a6.14,6.14,0,0,0,0-.66,8.61,8.61,0,0,0-.09-.92,6.92,6.92,0,0,0-.24-1,8.76,8.76,0,0,0-.77-1.8c-.26-.47-.46-.76-.46-.76a.45.45,0,0,1,.1-.66.43.43,0,0,1,.61.22A.41.41,0,0,1,132.73,109.82Z"/><path d="M123.79,122.05s0,.31,0,.77c0,.23,0,.49-.06.77s0,.58-.08.87c-.13,1.17-.15,2.34-.15,2.34h0s0-1.17-.05-2.34c0-.29-.07-.58-.11-.85s-.08-.52-.14-.73l-.23-.67a.4.4,0,0,1,.3-.51.37.37,0,0,1,.51.28Z"/><path d="M127.23,122.16s0,.28.08.71a5.55,5.55,0,0,1,0,.73c0,.26,0,.54,0,.81,0,.55,0,1.1,0,1.51v.69h0s0-.28,0-.69a11.19,11.19,0,0,0-.15-1.49,5.78,5.78,0,0,0-.19-.77,4.11,4.11,0,0,0-.22-.65l-.3-.6c-.1-.17,0-.4.24-.51a.36.36,0,0,1,.53.19A.19.19,0,0,1,127.23,122.16Z"/><path d="M130.4,122.44s0,.21,0,.51,0,.71,0,1.11,0,.78,0,1.08,0,.48,0,.48h0l0-.48a5.34,5.34,0,0,0-.22-1,6.74,6.74,0,0,0-.41-1l-.25-.42c-.08-.13,0-.3.27-.4s.47-.05.51.1A.11.11,0,0,1,130.4,122.44Z"/><path d="M133.16,122.54s0,.23-.06.56c0,.17,0,.36,0,.57s0,.42-.05.63a16.85,16.85,0,0,0-.08,1.71h0a13.89,13.89,0,0,0-.12-1.7,4.26,4.26,0,0,0-.13-.62c-.06-.19-.11-.37-.16-.52l-.17-.51c-.05-.15.1-.31.34-.37s.47,0,.48.2A0,0,0,0,1,133.16,122.54Z"/><path d="M135.4,118.3l.11.33c.05.22.13.52.22.89s.15.81.25,1.27.15,1,.16,1.47c0,.24,0,.49.05.74v.72c0,.46-.06.9-.07,1.27s-.11.67-.14.88l-.06.34h0l.06-.34c0-.21.1-.51.12-.89a10.42,10.42,0,0,0,0-1.26c0-.23,0-.47-.05-.71l-.12-.73a13.66,13.66,0,0,0-.34-1.4c-.15-.43-.28-.84-.43-1.18l-.37-.8-.16-.29a.62.62,0,0,1,.05-.83c.22-.14.52,0,.67.4A.56.56,0,0,1,135.4,118.3Z"/><path d="M127.69,116.67a1.16,1.16,0,0,1,.09.18c0,.11.1.28.18.48a9,9,0,0,1,.31,1.47c.08.53.12,1.06.17,1.45s.08.65.08.65h0l-.1-.65a8.91,8.91,0,0,0-.35-1.4,4.7,4.7,0,0,0-.64-1.25l-.29-.35-.12-.11c-.15-.12-.11-.35.07-.53a.36.36,0,0,1,.57,0A.33.33,0,0,1,127.69,116.67Z"/><path d="M132.25,117.59l.07.15c0,.1.07.24.13.41a5,5,0,0,1,.18,1.23,4.55,4.55,0,0,1,0,.64c0,.21,0,.39,0,.55,0,.32-.07.53-.07.53h0s0-.21,0-.53c0-.16,0-.35,0-.55a3.35,3.35,0,0,0-.12-.6,2.92,2.92,0,0,0-.51-1l-.24-.27-.11-.09c-.12-.09-.06-.3.12-.47s.43-.2.53,0S132.25,117.58,132.25,117.59Z"/><path d="M117.11,98.22s.09.43.25,1.08.41,1.51.62,2.37a13,13,0,0,1,.29,1.28c.1.41.12.8.17,1.12a6.78,6.78,0,0,1,0,.81c0,.19,0,.3,0,.3h0s0-.11,0-.3a7.22,7.22,0,0,0-.07-.8,9.18,9.18,0,0,0-.23-1.11,11.11,11.11,0,0,0-.4-1.24c-.31-.82-.69-1.63-1-2.23l-.48-1c-.15-.31-.09-.65.14-.75s.51.07.62.39A.36.36,0,0,1,117.11,98.22Z"/><path d="M119.33,90.48s.12.33.33.8.5,1.12.73,1.77c.12.33.22.66.3,1s.11.62.16.87a2.36,2.36,0,0,1,0,.35c0,.11,0,.2,0,.27s0,.24,0,.24h0s0-.09,0-.24,0-.16,0-.27a2.5,2.5,0,0,0,0-.35,5.85,5.85,0,0,0-.22-.84,5.66,5.66,0,0,0-.41-.91,11.09,11.09,0,0,0-1-1.56l-.54-.68a.43.43,0,0,1,.07-.64.42.42,0,0,1,.61.15A.25.25,0,0,1,119.33,90.48Z"/><path d="M126.1,89.37s.09.33.22.84a14.2,14.2,0,0,1,.37,1.86c0,.17,0,.34,0,.51s0,.33,0,.49a7.28,7.28,0,0,1-.06.87,3,3,0,0,1-.06.34l-.06.26a1.63,1.63,0,0,0,0,.22h0a1.63,1.63,0,0,1,0-.22c0-.08,0-.16.05-.26a1.27,1.27,0,0,0,0-.34,5,5,0,0,0,0-.87q0-.22-.06-.48l-.12-.48a7.66,7.66,0,0,0-.72-1.69c-.24-.44-.42-.72-.42-.72a.42.42,0,0,1,.13-.62.43.43,0,0,1,.6.21A.19.19,0,0,1,126.1,89.37Z"/><path d="M129.67,98.57s.05.29.14.73q.08.33.15.75c0,.28.1.57.11.87,0,.15,0,.3,0,.44s0,.29,0,.43a3.69,3.69,0,0,1-.12.74,1.54,1.54,0,0,1-.09.28c0,.09-.06.16-.09.22l-.07.19h0s0-.07.07-.19l.08-.22a1,1,0,0,0,.08-.28,2.91,2.91,0,0,0,.05-.74c0-.14,0-.27,0-.42s-.07-.27-.1-.41a6.27,6.27,0,0,0-.28-.8c-.12-.24-.22-.47-.33-.66-.21-.38-.37-.64-.37-.64a.37.37,0,0,1,.19-.54.4.4,0,0,1,.57.18A.19.19,0,0,0,129.67,98.57Z"/><path d="M117.18,107.72s0,.18,0,.46,0,.66,0,1c0,.19,0,.37,0,.54s0,.34,0,.48,0,.45,0,.45h0l0-.45a4.3,4.3,0,0,0-.07-.46c0-.17-.11-.34-.17-.51a8.4,8.4,0,0,0-.42-.93l-.23-.43c-.08-.13,0-.29.3-.35s.47,0,.5.13A.06.06,0,0,1,117.18,107.72Z"/><path d="M114.18,91.69l.28.41c.07.13.14.29.23.44a3.85,3.85,0,0,1,.24.5c.07.17.15.33.22.49s.12.3.18.43l.18.41h0l-.2-.4a3.37,3.37,0,0,0-.23-.4l-.32-.42a2.64,2.64,0,0,0-.38-.37c-.13-.1-.24-.21-.35-.28l-.39-.18c-.12,0-.1-.26,0-.47s.35-.31.46-.2Z"/><path d="M121.41,99.67s0,.22.06.56c0,.17,0,.37,0,.58s0,.42,0,.65,0,.44,0,.65,0,.4,0,.56c0,.33,0,.55,0,.55h0s0-.22,0-.55a2.68,2.68,0,0,0,0-.55c0-.2-.09-.42-.14-.62a3.07,3.07,0,0,0-.22-.6,4.73,4.73,0,0,0-.24-.5l-.28-.47c-.09-.15,0-.34.25-.44s.48,0,.53.12S121.41,99.65,121.41,99.67Z"/><path d="M124.59,91.27l.08.44c0,.13,0,.28.06.44s.06.33.07.5,0,.34.06.49a3.34,3.34,0,0,1,0,.43c0,.24,0,.41,0,.41h0l0-.41a2.35,2.35,0,0,0-.09-.41,4.22,4.22,0,0,0-.18-.45,2.13,2.13,0,0,0-.23-.42l-.24-.35-.28-.31c-.09-.09,0-.26.23-.39s.45-.13.5,0A.08.08,0,0,1,124.59,91.27Z"/><path d="M121.49,80.56l.42.56a11.59,11.59,0,0,1,.81,1.26,7.61,7.61,0,0,1,.35.7c.11.23.17.45.25.63s.11.35.14.46l.05.18h0l-.05-.18c0-.11-.08-.27-.16-.45a6.7,6.7,0,0,0-.3-.6,4.44,4.44,0,0,0-.45-.62,5.46,5.46,0,0,0-1.06-1,5.9,5.9,0,0,0-.55-.34.42.42,0,0,1,.5-.67Z"/><path d="M118.48,82.35l.12.15c.06.11.16.25.27.43s.2.4.32.62.21.48.28.73.15.51.21.74.09.47.13.65l.1.64h0s0-.25-.12-.63a4.87,4.87,0,0,0-.19-.63,4.66,4.66,0,0,0-.32-.68,5.91,5.91,0,0,0-.42-.61,5,5,0,0,0-.45-.46l-.35-.27-.15-.08c-.16-.09-.17-.33,0-.54a.36.36,0,0,1,.55-.11A.1.1,0,0,1,118.48,82.35Z"/><path d="M114.82,84.76s.08.21.21.52a4.54,4.54,0,0,1,.15.54,5.43,5.43,0,0,1,.16.61l.09.61a2.5,2.5,0,0,1,0,.53c0,.31,0,.51,0,.51h0l-.06-.51a1.76,1.76,0,0,0-.1-.52c-.06-.18-.13-.37-.21-.56a2.89,2.89,0,0,0-.31-.51,2.75,2.75,0,0,0-.31-.41l-.37-.33c-.12-.09-.06-.3.13-.47s.42-.21.51-.06Z"/><path d="M85.27,76.23l-.83.56c-.25.19-.51.43-.8.68a9.44,9.44,0,0,0-.87.82l-.81.89c-.26.28-.47.57-.66.81-.38.49-.62.82-.62.82h0l.6-.83c.18-.25.37-.55.61-.85l.72-1c.23-.34.51-.64.75-1s.46-.6.67-.83l.71-.78a.51.51,0,0,1,.72-.12.5.5,0,0,1-.11.7Z"/><path d="M86.67,77.47l-.57.41a8.25,8.25,0,0,0-1.13,1,6,6,0,0,0-.51.64,5.66,5.66,0,0,0-.34.62,2.73,2.73,0,0,0-.18.48l-.06.18h0l.06-.18c0-.12.08-.29.16-.48s.16-.43.29-.66.26-.48.41-.72c.3-.48.63-1,.88-1.3l.41-.59a.36.36,0,0,1,.56,0,.39.39,0,0,1,.07.58Z"/><path d="M95.36,60.79s-.25-.32-.68-.76a8.49,8.49,0,0,0-1.79-1.39,5.83,5.83,0,0,0-1.12-.5,4,4,0,0,0-1-.22A2.83,2.83,0,0,0,90,58l-.28,0h0L90,58a3.88,3.88,0,0,1,.76-.05,5,5,0,0,1,1.07.16,7.08,7.08,0,0,1,1.18.39,14,14,0,0,1,3,1.75.52.52,0,0,1,.18.73.48.48,0,0,1-.7-.06Z"/><path d="M96.51,58.77s-.09-.3-.23-.74c-.08-.22-.17-.46-.28-.73s-.21-.56-.35-.82l-.43-.79a3.51,3.51,0,0,0-.45-.63l-.48-.59h0l.5.58a4,4,0,0,1,.5.6l.54.72c.19.25.34.51.51.75s.33.45.46.65l.45.62a.38.38,0,0,1-.13.58.39.39,0,0,1-.58-.13Z"/><path d="M99.55,57.31a1.42,1.42,0,0,1,0-.22c0-.13,0-.33,0-.57,0-.46,0-1.06.07-1.66l.11-1.62c0-.44,0-.73,0-.73h0v.73c0,.45,0,1,.08,1.62a8.28,8.28,0,0,0,.3,1.57l.19.48a1.78,1.78,0,0,0,.08.16.39.39,0,0,1-.21.53.37.37,0,0,1-.56-.21S99.56,57.34,99.55,57.31Z"/><path d="M103.48,59.82l.38-.58.36-.6c.14-.22.26-.46.41-.69.59-.93,1.07-1.9,1.07-1.9h0s-.49,1-.88,2a7.41,7.41,0,0,0-.24.76c-.07.25-.13.48-.18.68l-.16.67a.36.36,0,0,1-.51.23.38.38,0,0,1-.28-.5Z"/><path d="M107.27,60.42a2.58,2.58,0,0,0,.18-.21l.49-.55c.2-.22.45-.47.71-.74a11.19,11.19,0,0,1,.89-.77c.16-.13.31-.26.47-.37l.49-.31c.31-.2.63-.33.89-.47l.66-.27.25-.1h0l-.25.1-.65.28a8.79,8.79,0,0,0-.86.53l-.44.35a5.4,5.4,0,0,0-.42.41,7.32,7.32,0,0,0-.73.87q-.32.46-.54.84c-.13.26-.25.47-.33.62l-.11.24a.49.49,0,0,1-.64.3.44.44,0,0,1-.11-.67Z"/><path d="M111.27,61.33,112,61a15.85,15.85,0,0,1,1.65-.61c.3-.09.6-.17.89-.23a7,7,0,0,1,.79-.14c.23,0,.43,0,.56,0h0a5.41,5.41,0,0,0-.56.06,5.88,5.88,0,0,0-.77.2,5.36,5.36,0,0,0-.84.35,7.93,7.93,0,0,0-1.42.92c-.35.29-.58.5-.58.5a.42.42,0,1,1-.52-.65Z"/><path d="M102.1,57.65l.05-.24c0-.16.1-.38.16-.64s.09-.27.14-.42.09-.3.16-.46a8,8,0,0,1,.43-1c.09-.15.15-.32.25-.46s.19-.29.28-.42a2.88,2.88,0,0,1,.28-.38l.26-.34.59-.64h0s-.24.26-.58.66l-.23.34a3.89,3.89,0,0,0-.25.4c-.07.14-.15.29-.22.45a3.85,3.85,0,0,0-.19.47,6.13,6.13,0,0,0-.25,1,3.64,3.64,0,0,0,0,.45,2,2,0,0,0,0,.41c0,.25,0,.46,0,.61s0,.23,0,.23a.43.43,0,0,1-.4.5.41.41,0,0,1-.44-.46S102.1,57.68,102.1,57.65Z"/><path d="M106.45,57.89s0-.1.1-.28.22-.4.37-.69a3,3,0,0,1,.27-.43l.31-.47c.26-.3.49-.64.78-.93l.42-.45.43-.41c.27-.27.56-.49.78-.69s.44-.35.57-.47l.22-.17h0l-.21.18a6.82,6.82,0,0,0-.57.47c-.21.22-.49.45-.73.74l-.39.44-.35.49a9.67,9.67,0,0,0-.62,1l-.21.5a3,3,0,0,0-.16.44c-.08.28-.14.52-.19.69s0,.26,0,.26a.52.52,0,0,1-.51.5c-.26,0-.41-.29-.32-.62A.38.38,0,0,1,106.45,57.89Z"/><path d="M92.24,63.88a1.12,1.12,0,0,0-.21-.13l-.55-.28c-.24-.1-.52-.22-.83-.32a6.36,6.36,0,0,0-1-.25l-.51-.08h-.51a4.16,4.16,0,0,0-.9.07,4.9,4.9,0,0,0-.62.16l-.23.08h0l.23-.08a4.08,4.08,0,0,1,.62-.18,6.67,6.67,0,0,1,.89-.14l.52,0h.53c.37,0,.72,0,1.06.07s.65.09.92.14l.66.14.24.06a.44.44,0,0,1,.35.56.43.43,0,0,1-.59.24Z"/><path d="M108.45,63.39a1.43,1.43,0,0,1,.1-.16c.07-.1.17-.24.3-.4a11.37,11.37,0,0,1,1-1.06c.36-.36.74-.7,1-1l.45-.44h0l-.44.45A8.85,8.85,0,0,0,110,61.9a5.28,5.28,0,0,0-.63,1.22l-.12.42a.91.91,0,0,0,0,.16c0,.17-.23.27-.48.22s-.4-.26-.32-.47Z"/><path d="M111.31,65.25l.22-.08.59-.2a13.46,13.46,0,0,1,1.79-.39c.32,0,.65-.08,1-.1s.6,0,.84,0,.44,0,.58,0l.23,0h0l-.23,0c-.14,0-.34,0-.58,0a7,7,0,0,0-.83.09,6.45,6.45,0,0,0-.92.22,6.74,6.74,0,0,0-1.59.73l-.47.32-.16.14a.41.41,0,0,1-.6-.07.39.39,0,0,1,.11-.61Z"/><path d="M93.86,125.26s-.07.24-.18.59c-.05.18-.08.39-.12.62a5.66,5.66,0,0,0-.08.72c0,.25,0,.5,0,.73a3,3,0,0,0,.08.63c.07.37.12.61.12.61h0s-.06-.24-.14-.61a6.3,6.3,0,0,1-.15-.62c0-.23-.08-.48-.12-.73a6.7,6.7,0,0,1-.1-.73c0-.24-.07-.47-.09-.66l0-.65c0-.2.16-.35.41-.33s.44.19.42.37A.13.13,0,0,1,93.86,125.26Z"/><path d="M97.86,124.79l-.17.45a2.43,2.43,0,0,0-.13.47,4.46,4.46,0,0,0-.11.55,5.37,5.37,0,0,0,0,1c0,.28.06.47.06.47h0s0-.19-.08-.47-.1-.66-.17-1c0-.19,0-.39-.07-.57s-.06-.36-.07-.51l0-.51c0-.15.15-.26.4-.23s.45.17.43.31S97.87,124.78,97.86,124.79Z"/><path d="M104.77,130.38s0,.43,0,1.1,0,1.55,0,2.44c0,.45,0,.89-.07,1.3s-.12.8-.16,1.12a3.64,3.64,0,0,1-.1.44c0,.13-.07.25-.09.34s-.07.29-.07.29h0s0-.1.07-.29l.08-.34a2.43,2.43,0,0,0,.09-.44,9.08,9.08,0,0,0,.09-1.12,9.46,9.46,0,0,0,0-1.29,22.32,22.32,0,0,0-.39-2.38c-.15-.66-.24-1.09-.24-1.09-.08-.34.06-.66.31-.71s.48.19.51.52Z"/><path d="M107.17,133.16v.64a5.26,5.26,0,0,1-.07.63c0,.23,0,.47-.08.71L106.7,137h0l.08-.59a9,9,0,0,0,0-1.3c0-.23-.06-.47-.09-.68a2.74,2.74,0,0,0-.14-.58l-.22-.53c-.07-.16.06-.34.3-.43s.47,0,.5.19A.13.13,0,0,1,107.17,133.16Z"/><path d="M113.8,131.63a1.57,1.57,0,0,1,0,.2c0,.12,0,.3,0,.51a9,9,0,0,1-.23,1.48,11.72,11.72,0,0,1-.41,1.41c-.06.19-.13.33-.17.44a1.78,1.78,0,0,1-.07.17h0a1.78,1.78,0,0,0,.07-.17c0-.11.1-.26.16-.45a6.23,6.23,0,0,0,.22-1.42,5.3,5.3,0,0,0-.15-1.41c-.06-.18-.11-.33-.14-.44a1.15,1.15,0,0,0-.07-.15c-.08-.17,0-.37.28-.47a.37.37,0,0,1,.52.23A.17.17,0,0,1,113.8,131.63Z"/><path d="M117.16,130.76s0,.2,0,.5-.05.7-.08,1.1a5.21,5.21,0,0,1-.08.57,4.67,4.67,0,0,1-.1.49c0,.14-.09.25-.11.33a.93.93,0,0,0,0,.13h0a.93.93,0,0,1,0-.13,2.26,2.26,0,0,0,.09-.34,2.43,2.43,0,0,0,0-.49,3.64,3.64,0,0,0,0-.56,5,5,0,0,0-.29-1l-.19-.45c-.07-.14.07-.29.32-.35s.47,0,.49.17A0,0,0,0,1,117.16,130.76Z"/><path d="M120.45,130.32l-.06.22c0,.15-.06.36-.1.61a17.86,17.86,0,0,0-.08,1.91c0,.35,0,.7,0,1s-.07.64-.08.9a1.8,1.8,0,0,1-.08.35q0,.15-.06.27c0,.15,0,.23,0,.23h0s0-.08,0-.23,0-.17.06-.27a1.84,1.84,0,0,0,0-.36,6.23,6.23,0,0,0,0-.89c0-.32,0-.67-.1-1-.1-.69-.23-1.38-.3-1.92,0-.27,0-.5-.07-.66v-.26c0-.29.19-.52.44-.49a.45.45,0,0,1,.4.5A.19.19,0,0,1,120.45,130.32Z"/><path d="M119.53,124.34s0,.19-.11.47-.06.31-.1.49a5,5,0,0,0-.07.56,13.38,13.38,0,0,0,.06,1.53h0a11.48,11.48,0,0,0-.26-1.52c-.06-.19-.07-.38-.11-.56s-.08-.34-.11-.49-.13-.48-.13-.48c0-.15.12-.28.37-.29s.46.1.46.24Z"/><path d="M106.1,120.29l-.13.59a11.12,11.12,0,0,0-.24,1.29c0,.23-.06.47-.07.69a4,4,0,0,0,0,.6c0,.35,0,.59,0,.59h0s0-.24-.06-.59c0-.17-.06-.38-.07-.6s0-.46,0-.7c0-.47-.09-1-.14-1.3s-.11-.59-.11-.59c0-.17.13-.33.39-.35s.46.12.45.31A.13.13,0,0,1,106.1,120.29Z"/><path d="M109.74,118.5l-.08.58a5.53,5.53,0,0,0,0,.6c0,.23,0,.47,0,.71.08,1,.24,1.89.24,1.89h0a14.85,14.85,0,0,0-.44-1.86c-.07-.23-.14-.46-.2-.68s-.14-.42-.19-.6c-.09-.37-.16-.61-.16-.61,0-.19.1-.36.35-.38s.47.12.48.29Z"/><path d="M114.62,114.44a17.11,17.11,0,0,0,.32,1.89,17.82,17.82,0,0,0,.57,1.82h0s-.33-.89-.76-1.75-.92-1.71-.92-1.71c-.1-.17,0-.37.24-.46a.41.41,0,0,1,.54.16A.43.43,0,0,0,114.62,114.44Z"/><path d="M114.41,97.77s0,.26.06.64q0,.3.06.66c0,.24.06.49.07.75s0,.51.06.74,0,.46,0,.65c0,.38,0,.63,0,.63h0l0-.63a5.58,5.58,0,0,0-.08-.64c-.06-.22-.12-.47-.19-.71a4.8,4.8,0,0,0-.24-.7c-.09-.22-.17-.42-.25-.59l-.29-.57c-.09-.18,0-.38.26-.47s.48,0,.53.18C114.4,97.73,114.41,97.75,114.41,97.77Z"/><path d="M109,83.86s-.07,1,0,1.93a18.71,18.71,0,0,0,.17,1.9h0a18.34,18.34,0,0,0-.37-1.87c-.24-.93-.59-1.84-.59-1.84-.07-.18.07-.36.32-.41s.48.05.5.23Z"/><path d="M113,81.45s0,.2.13.49.08.33.13.51.1.37.13.57l.12.56c0,.18.06.35.09.49l.1.47h0s0-.18-.12-.47a3.11,3.11,0,0,0-.15-.47l-.23-.51a3.26,3.26,0,0,0-.3-.48,3.46,3.46,0,0,0-.29-.4l-.33-.35c-.11-.1,0-.3.18-.44s.45-.15.52,0S113,81.44,113,81.45Z"/><path d="M119.79,74.14l.43.4a3.69,3.69,0,0,1,.36.46,4.15,4.15,0,0,1,.39.52l.31.56a2.12,2.12,0,0,1,.22.5l.21.49h0l-.22-.48a2.15,2.15,0,0,0-.28-.47l-.4-.47a2.74,2.74,0,0,0-.49-.37,2.81,2.81,0,0,0-.45-.27l-.49-.16c-.15,0-.18-.25-.09-.49s.31-.36.46-.26Z"/><path d="M124.83,79.58a1.38,1.38,0,0,0,.07.14c0,.09.09.21.15.37a4.62,4.62,0,0,1,.16.52,4.14,4.14,0,0,1,.09.6,2.93,2.93,0,0,1,0,.59,5,5,0,0,1-.07.5c-.07.29-.12.47-.12.47h0s0-.18.1-.47a4,4,0,0,0,0-.5,2.5,2.5,0,0,0-.13-.54,2.32,2.32,0,0,0-.24-.5,3,3,0,0,0-.31-.36l-.25-.21-.1-.07c-.12-.07-.08-.27.09-.46s.39-.25.51-.12Z"/><path d="M125.2,78.47l.1.11.24.32a5.37,5.37,0,0,1,.55,1c.08.19.14.38.2.55s.09.34.13.48l.1.48h0s0-.19-.12-.47a2.81,2.81,0,0,0-.19-.46,2.66,2.66,0,0,0-.3-.47,2.45,2.45,0,0,0-.77-.67l-.3-.14-.12,0c-.13,0-.14-.24,0-.47s.32-.34.46-.24Z"/><path d="M79.16,82.43l-.15,0h-.39a4.69,4.69,0,0,0-.56.08,4.47,4.47,0,0,0-.62.25,3.25,3.25,0,0,0-.57.36,3.44,3.44,0,0,0-.43.41c-.23.26-.37.45-.37.45h0l.35-.47c.12-.12.24-.29.4-.45a3.84,3.84,0,0,1,.51-.47,5.67,5.67,0,0,1,.57-.43c.21-.11.4-.23.57-.3l.44-.18.17-.05c.2-.06.38.1.39.35s-.1.47-.26.48Z"/><path d="M127.4,82.13l.15.1.35.28a6.36,6.36,0,0,1,.45.45,3.37,3.37,0,0,1,.41.58,1.91,1.91,0,0,1,.16.32l.12.32c0,.09,0,.21.06.3s0,.19,0,.28c0,.34,0,.57,0,.57h0s0-.23,0-.57c0-.08,0-.17-.07-.27a1.08,1.08,0,0,0-.09-.29c-.05-.09-.11-.18-.16-.28a1.26,1.26,0,0,0-.21-.26,2.37,2.37,0,0,0-.49-.41,3.06,3.06,0,0,0-.5-.23l-.37-.11-.15,0c-.16,0-.24-.22-.17-.47s.25-.4.44-.32Z"/><path d="M123.65,75.5l.15,0,.38.13a5.86,5.86,0,0,1,1.08.52c.18.11.35.23.51.35s.28.26.4.35.19.21.25.28l.1.1h0l-.1-.1c-.07-.06-.15-.16-.27-.26a3.2,3.2,0,0,0-.43-.3,2.45,2.45,0,0,0-.55-.23,3.34,3.34,0,0,0-1.08-.13l-.35,0-.14,0c-.14,0-.27-.13-.29-.38s.11-.46.29-.45Z"/><path d="M82.74,75l-.57-.1a5,5,0,0,0-.59,0,3.86,3.86,0,0,0-.68,0c-.23,0-.46,0-.68.06a4.28,4.28,0,0,0-.58.11l-.56.13h0l.55-.15c.17,0,.36-.12.57-.17l.67-.19c.22-.08.45-.12.66-.18l.6-.16.59-.14c.18-.05.34.11.36.36S83,75,82.79,75Z"/><path d="M74.64,100.25a9,9,0,0,0-.93.22,7.62,7.62,0,0,0-1.92.82,4.72,4.72,0,0,0-.9.68,4.22,4.22,0,0,0-.63.76c-.08.12-.13.24-.19.34a3,3,0,0,0-.12.29l-.08.25h0l.08-.25a1.63,1.63,0,0,1,.12-.29,2.94,2.94,0,0,1,.18-.35,5.72,5.72,0,0,1,1.42-1.6,12,12,0,0,1,1.82-1.2c.52-.29.89-.46.89-.46a.48.48,0,0,1,.68.18.46.46,0,0,1-.33.59Z"/><path d="M71,110.09l-.2.06c-.13,0-.3.12-.52.21a6.14,6.14,0,0,0-.71.37l-.37.26a2.57,2.57,0,0,0-.37.28,5.18,5.18,0,0,0-.67.65,7,7,0,0,0-.81,1.13,1.94,1.94,0,0,0-.1.19h0l.1-.19c.07-.12.16-.3.29-.5s.27-.45.45-.68.38-.5.59-.75.22-.24.33-.35.21-.24.32-.34.43-.42.63-.57l.48-.38.19-.13a.4.4,0,0,1,.6.12.42.42,0,0,1-.16.59Z"/><path d="M69.21,115.58l-.55.27a1.84,1.84,0,0,0-.25.17l-.26.2a3.11,3.11,0,0,0-.56.48c-.16.19-.32.38-.48.55a3.44,3.44,0,0,0-.34.55c-.18.33-.31.55-.31.55h0l.29-.56a5.22,5.22,0,0,1,.29-.58l.39-.64a4.89,4.89,0,0,1,.44-.62l.2-.29a2.94,2.94,0,0,1,.2-.26l.45-.49a.32.32,0,0,1,.52.07.43.43,0,0,1,0,.57Z"/><path d="M73.48,115.86s-.13.11-.32.3a5.92,5.92,0,0,0-.52.84c-.32.66-.57,1.35-.57,1.35h0a7.72,7.72,0,0,0,.37-1.41l.19-1,.15-.49c0-.16.25-.19.46,0s.32.35.26.45S73.49,115.86,73.48,115.86Z"/><path d="M78.15,120.52s-.13.29-.31.74a3.25,3.25,0,0,0-.11.37c0,.14-.07.28-.11.43a8.7,8.7,0,0,0-.18.94,16.3,16.3,0,0,0-.15,1.8c0,.49,0,.82,0,.82h0v-.82c0-.49,0-1.15,0-1.81,0-.33,0-.67,0-1s0-.31,0-.45a2.7,2.7,0,0,1,0-.41c0-.51.09-.86.09-.86a.4.4,0,0,1,.49-.38.44.44,0,0,1,.33.54A.19.19,0,0,1,78.15,120.52Z"/><path d="M85.5,121.06s0,.24-.11.59a10.6,10.6,0,0,0-.17,1.3,17.18,17.18,0,0,0,.06,1.89h0A17.33,17.33,0,0,0,85,123c-.06-.24-.07-.47-.11-.69s-.08-.43-.11-.61c-.08-.35-.13-.59-.13-.59,0-.18.12-.34.37-.36s.47.12.46.3Z"/><path d="M88.05,126.11a3.11,3.11,0,0,0-.18.29,3.7,3.7,0,0,0-.26.7,4.5,4.5,0,0,0-.13,1.08h0a8.63,8.63,0,0,0-.08-1.09c0-.28-.08-.56-.11-.78l-.05-.38c0-.12.16-.18.41-.12s.43.18.41.27S88.05,126.1,88.05,126.11Z"/><path d="M90.93,112l-.1.15-.2.42c-.08.18-.15.39-.23.63a4.34,4.34,0,0,0-.13.75,3.29,3.29,0,0,0,0,.77,3,3,0,0,0,.14.67,1.18,1.18,0,0,0,.1.25,1.14,1.14,0,0,0,.09.19l.08.17h0l-.08-.17-.1-.18a1.89,1.89,0,0,1-.11-.25,4.71,4.71,0,0,1-.2-.66,4,4,0,0,1-.14-.79,7.32,7.32,0,0,1,0-.81c0-.26,0-.5,0-.71s0-.39.06-.52l0-.19a.35.35,0,0,1,.5-.25.4.4,0,0,1,.31.48Z"/><path d="M78.56,91.53l-.42.28a4.09,4.09,0,0,0-.79.74,3.36,3.36,0,0,0-.55,1,3,3,0,0,0-.09.34l0,.14h0l0-.14c0-.08,0-.21.08-.35a6.45,6.45,0,0,1,.4-1,10.67,10.67,0,0,1,.52-1L78,91c.08-.15.3-.13.49,0s.25.4.15.51Z"/><path d="M90.4,80.71h-.16l-.42.08a4.24,4.24,0,0,0-.58.24,4.62,4.62,0,0,0-.59.45,3.85,3.85,0,0,0-.51.56,4.66,4.66,0,0,0-.36.55c-.19.34-.3.58-.3.58h0l.28-.59c.1-.17.18-.39.31-.59a6.64,6.64,0,0,1,.43-.65,5,5,0,0,1,.51-.61,5.53,5.53,0,0,1,.55-.47L90,80l.19-.08a.34.34,0,0,1,.48.28c0,.25-.06.49-.22.52Z"/><path d="M87.94,73.17l-.57-.11-.59-.1c-.21,0-.44-.06-.67-.07a16.11,16.11,0,0,0-1.83.06h0a17.79,17.79,0,0,0,1.82-.27l.67-.11.59-.1.57-.13c.18,0,.34.12.35.37s-.11.47-.29.46C88,73.18,88,73.17,87.94,73.17Z"/><path d="M97.62,84.87a.83.83,0,0,1,0,.17c0,.1,0,.26.06.44a7,7,0,0,1,0,1.27,7.77,7.77,0,0,1-.23,1.2,2.64,2.64,0,0,1-.11.38,1,1,0,0,1,0,.14h0a1,1,0,0,0,0-.14,2.67,2.67,0,0,0,.1-.39,4.19,4.19,0,0,0,0-1.19,3.47,3.47,0,0,0-.32-1.12L97,85.31a.49.49,0,0,0-.09-.1c-.1-.11,0-.3.2-.45s.45-.13.54,0C97.61,84.83,97.61,84.85,97.62,84.87Z"/><path d="M100.71,84.3a4.44,4.44,0,0,0-.31.81,3.53,3.53,0,0,0-.11.81h0a3.22,3.22,0,0,0-.1-.81,4.44,4.44,0,0,0-.31-.81c0-.07.12-.14.37-.15s.47,0,.46.13Z"/><path d="M117.59,77.26s.18.15.42.39a4.66,4.66,0,0,1,.75,1,2.74,2.74,0,0,1,.28.57c.08.18.11.36.17.51l.1.52h0s0-.21-.12-.51a5,5,0,0,0-.22-.49,2.46,2.46,0,0,0-.37-.48,2.66,2.66,0,0,0-.93-.6,2.7,2.7,0,0,0-.48-.16c-.15,0-.2-.24-.1-.48s.3-.36.46-.27Z"/><path d="M117.7,70.84a.85.85,0,0,1,.18,0l.48-.07.67,0a6.44,6.44,0,0,1,.75,0,5.6,5.6,0,0,1,.73.09c.23,0,.44.12.62.15l.42.15.16.06h0l-.16-.06c-.1,0-.25-.09-.43-.13a5,5,0,0,0-.62-.08,3.49,3.49,0,0,0-.72,0,4.66,4.66,0,0,0-.69.15,4,4,0,0,0-.57.23l-.38.21-.13.09c-.14.11-.35,0-.48-.2s-.09-.47.11-.55Z"/><path d="M120.53,72.94l.34.14a2.52,2.52,0,0,1,.34.16c.12.06.25.1.37.17l.35.19a1.69,1.69,0,0,1,.3.17l.28.16h0l-.29-.15a1.69,1.69,0,0,0-.32-.11l-.38-.06a1.6,1.6,0,0,0-.38,0,1,1,0,0,0-.33,0,2.48,2.48,0,0,0-.32.1c-.09,0-.17-.14-.18-.39s.07-.46.18-.45Z"/><path d="M87.33,70.49a1.72,1.72,0,0,0-.61-.31,5.88,5.88,0,0,0-1.62-.29,6.74,6.74,0,0,0-1.68.11,3.92,3.92,0,0,0-.74.2h0a7,7,0,0,1,.74-.22,11.79,11.79,0,0,1,1.67-.3,10.75,10.75,0,0,1,1.74-.08,4.12,4.12,0,0,1,.62.08l.24.06c.3.09.43.47.22.63a.84.84,0,0,1-.3.15.29.29,0,0,1-.24,0Z"/><path d="M80.68,77.93a2.5,2.5,0,0,0-.49,0,5.47,5.47,0,0,0-1.1.27,5,5,0,0,0-1,.48c-.13.09-.22.18-.3.23l-.11.09h0l.11-.09a3.07,3.07,0,0,1,.29-.24c.24-.19.58-.43.93-.66s.7-.47,1-.64.48-.28.48-.28a.26.26,0,0,1,.28,0,.36.36,0,0,1,.14.28,1.16,1.16,0,0,1,0,.34c0,.09,0,.13-.11.15Z"/><path d="M95,81.62l-.26.4c-.06.13-.12.28-.19.45a1.83,1.83,0,0,0-.17.53c0,.19-.08.38-.1.56a2.78,2.78,0,0,0,0,.5c0,.29,0,.48,0,.48h0l-.06-.48c0-.15,0-.31-.06-.5s0-.38,0-.58a3.87,3.87,0,0,1,0-.59c0-.19,0-.37,0-.53l0-.52c0-.16.21-.24.45-.15s.4.26.35.39A.05.05,0,0,1,95,81.62Z"/><path d="M88.6,88.4l-.71.66c-.21.2-.44.44-.69.71a7.06,7.06,0,0,0-.68.9l-.3.49-.22.51a1.87,1.87,0,0,0-.16.49c0,.16-.08.31-.11.46a1.84,1.84,0,0,0,0,.39v.31c0,.17,0,.26,0,.26h0v-.26c0-.09,0-.19,0-.31a1.88,1.88,0,0,1,0-.4c0-.14.05-.3.08-.46a1.91,1.91,0,0,1,.13-.51l.18-.54.24-.54c.15-.36.38-.69.55-1l.54-.86.55-.82a.48.48,0,0,1,.67-.2.45.45,0,0,1,0,.68Z"/><path class="cls-8" d="M104,85.6a3.08,3.08,0,0,0-2.24,1.27,34.72,34.72,0,0,0,0,10.84c1.23,7,2.34,4.79,2.34,4.79a33.85,33.85,0,0,0,3.26-5.58c.63-1.39.7-4.66.58-7.86C106.65,87,105.31,85.6,104,85.6Z"/><path class="cls-6" d="M63.32,125.27a8,8,0,0,1-5-4.38,16.91,16.91,0,0,1-.85-12.48,13.41,13.41,0,0,1,2-3.33c1.37-1.78,2.36-3.06,1-5.72l.61-.32c1.6,3,.38,4.63-1,6.46a12.73,12.73,0,0,0-2,3.16A16.21,16.21,0,0,0,59,120.57a7.34,7.34,0,0,0,4.53,4Z"/><path class="cls-6" d="M64.62,118.68c-2.32-1.28-9.76-6-8.19-13.17a18.23,18.23,0,0,1,1-3c.82-2,1.59-3.92.8-6l.65-.25c.88,2.31,0,4.44-.81,6.49a18.13,18.13,0,0,0-1,2.85c-1.46,6.72,5.64,11.21,7.85,12.42Z"/><path class="cls-6" d="M143.76,121.28c-2-4.54-.14-8.82,1.67-13L146,107c1.57-3.67.82-6.26-.52-9.78l.65-.25c1.35,3.57,2.18,6.4.5,10.3-.18.44-.37.87-.56,1.31-1.76,4-3.58,8.13-1.68,12.39Z"/><path class="cls-6" d="M55.18,124.46c-4-5.16-4-9.45-.26-15.3.6-.94,1.24-1.8,1.85-2.63,1.91-2.58,3.56-4.81,3.52-8.36H61c0,3.79-1.76,6.21-3.66,8.78-.61.83-1.24,1.67-1.83,2.6-3.63,5.62-3.56,9.56.23,14.5Z"/><path class="cls-6" d="M144.43,126c-.18-2.85,1-5.29,2.21-7.65,1.43-2.86,2.78-5.57,1.94-9a14.44,14.44,0,0,0-1.85-3.78c-1.19-2-2.41-4-2.13-6l.69.09c-.26,1.8.91,3.72,2,5.58a14.86,14.86,0,0,1,1.93,4c.9,3.72-.57,6.66-2,9.51-1.19,2.38-2.31,4.63-2.14,7.3Z"/><path class="cls-6" d="M45,126.47c-4.27-9,2.57-13.61,9.94-17.61.37-.21.81-.42,1.28-.66,3-1.51,7.54-3.79,5.89-7.12l.62-.31c2,4-3,6.42-6.2,8-.47.23-.89.44-1.26.64-7.08,3.85-13.66,8.31-9.64,16.71Z"/><path class="cls-6" d="M150.26,119.23l-.61-.32c2-3.86,3.71-8.39,1.35-12.69a14.37,14.37,0,0,0-1.89-2.26c-1.83-2-3.91-4.17-3.1-6.1l.63.26c-.63,1.52,1.37,3.65,3,5.36a14.7,14.7,0,0,1,2,2.41C154.12,110.47,152.34,115.2,150.26,119.23Z"/><path class="cls-6" d="M49.07,108.57c-.48-3.66,2.29-5.46,5-7.2,2.4-1.56,4.67-3,4.36-5.76l.68-.08c.37,3.16-2.19,4.82-4.67,6.42s-5.07,3.3-4.66,6.53Z"/><path class="cls-6" d="M157.89,110l-.67-.2c1.27-4.27-2.44-6-5.72-7.43l-1-.46c-2.33-1.1-3.28-2.61-4.47-4.8l.61-.33c1.15,2.13,2,3.49,4.16,4.5l1,.46C155.14,103.27,159.32,105.16,157.89,110Z"/></g></g></svg>